SplineFontDB: 3.0
FontName: NixieOne-Regular
FullName: Nixie One
FamilyName: Nixie One
Weight: Book
Copyright: Copyright (c) 2011, Jovanny Lemonad (lemonad@jovanny.ru), with Reserved Font Name "Nixie"
Version: 1.004
ItalicAngle: 0
UnderlinePosition: -50
UnderlineWidth: 50
Ascent: 800
Descent: 200
sfntRevision: 0x000100c5
LayerCount: 2
Layer: 0 1 "Back"  1
Layer: 1 1 "Fore"  0
XUID: [1021 723 548469661 1047257]
FSType: 0
OS2Version: 3
OS2_WeightWidthSlopeOnly: 0
OS2_UseTypoMetrics: 1
CreationTime: 1307587740
ModificationTime: 1334259414
PfmFamily: 17
TTFWeight: 400
TTFWidth: 5
LineGap: 0
VLineGap: 0
Panose: 2 0 5 3 8 0 0 2 0 4
OS2TypoAscent: 126
OS2TypoAOffset: 1
OS2TypoDescent: -10
OS2TypoDOffset: 1
OS2TypoLinegap: 0
OS2WinAscent: 6
OS2WinAOffset: 1
OS2WinDescent: 0
OS2WinDOffset: 1
HheadAscent: 6
HheadAOffset: 1
HheadDescent: 0
HheadDOffset: 1
OS2SubXSize: 700
OS2SubYSize: 650
OS2SubXOff: 0
OS2SubYOff: 140
OS2SupXSize: 700
OS2SupYSize: 650
OS2SupXOff: 0
OS2SupYOff: 477
OS2StrikeYSize: 50
OS2StrikeYPos: 250
OS2Vendor: 'PYRS'
OS2CodePages: 00000001.00000000
OS2UnicodeRanges: 800000af.0000000a.00000000.00000000
Lookup: 258 0 0 "'kern' Horizontal Kerning in Latin lookup 0"  {"'kern' Horizontal Kerning in Latin lookup 0 subtable"  } ['kern' ('DFLT' <'dflt' > 'latn' <'dflt' > ) ]
DEI: 91125
TtTable: prep
PUSHW_1
 511
SCANCTRL
PUSHB_1
 4
SCANTYPE
EndTTInstrs
ShortTable: maxp 16
  1
  0
  221
  104
  7
  0
  0
  2
  0
  1
  1
  0
  64
  0
  0
  0
EndShort
LangName: 1033 "" "" "" "JovannyLemonad: Nixie One: 2011" "" "Version 1.004" "" "Nixie is a trademark of Jovanny Lemonad." "Jovanny Lemonad" "Jovanny Lemonad" "" "http://jovanny.ru/" "http://jovanny.ru/" "This Font Software is licensed under the SIL Open Font License, Version 1.1. This license is available with a FAQ at: http://scripts.sil.org/OFL" "http://scripts.sil.org/OFL" "" "" "" "Nixie One" 
GaspTable: 1 65535 15 1
Encoding: UnicodeBmp
Compacted: 1
UnicodeInterp: none
NameList: Adobe Glyph List
DisplaySize: -24

StartChar: exclam
Encoding: 33 33 4
Width: 268
GlyphClass: 2
Flags: W
LayerCount: 2
Fore
SplineSet
80 40 m 128,-1,1
 80 63 80 63 93.5 76.5 c 128,-1,2
 107 90 107 90 130 90 c 128,-1,3
 153 90 153 90 166.5 76.5 c 128,-1,4
 180 63 180 63 180 40 c 128,-1,5
 180 17 180 17 166.5 3.5 c 128,-1,6
 153 -10 153 -10 130 -10 c 128,-1,7
 107 -10 107 -10 93.5 3.5 c 128,-1,0
 80 17 80 17 80 40 c 128,-1,1
115 185 m 2,8,-1
 115 685 l 2,9,10
 115 700 115 700 130 700 c 128,-1,11
 145 700 145 700 145 685 c 2,12,-1
 145 185 l 2,13,14
 145 170 145 170 130 170 c 128,-1,15
 115 170 115 170 115 185 c 2,8,-1
EndSplineSet
EndChar

StartChar: quotedbl
Encoding: 34 34 5
Width: 314
GlyphClass: 2
Flags: W
LayerCount: 2
Fore
SplineSet
77 475 m 2,0,-1
 77 685 l 2,1,2
 77 700 77 700 92 700 c 128,-1,3
 107 700 107 700 107 685 c 2,4,-1
 107 475 l 2,5,6
 107 460 107 460 92 460 c 128,-1,7
 77 460 77 460 77 475 c 2,0,-1
207 475 m 2,8,-1
 207 685 l 2,9,10
 207 700 207 700 222 700 c 128,-1,11
 237 700 237 700 237 685 c 2,12,-1
 237 475 l 2,13,14
 237 460 237 460 222 460 c 128,-1,15
 207 460 207 460 207 475 c 2,8,-1
EndSplineSet
EndChar

StartChar: numbersign
Encoding: 35 35 6
Width: 760
GlyphClass: 2
Flags: W
LayerCount: 2
Fore
SplineSet
36 206 m 128,-1,1
 36 221 36 221 51 221 c 2,2,-1
 197 221 l 1,3,-1
 262 479 l 1,4,-1
 119 479 l 2,5,6
 104 479 104 479 104 494 c 128,-1,7
 104 509 104 509 119 509 c 2,8,-1
 269 509 l 1,9,-1
 314 688 l 2,10,11
 318 700 318 700 328 700 c 0,12,13
 330 700 330 700 332 699 c 0,14,15
 347 696 347 696 343 681 c 2,16,-1
 300 509 l 1,17,-1
 539 509 l 1,18,-1
 584 688 l 2,19,20
 588 700 588 700 598 700 c 0,21,22
 600 700 600 700 602 699 c 0,23,24
 617 696 617 696 613 681 c 2,25,-1
 570 509 l 1,26,-1
 709 509 l 2,27,28
 724 509 724 509 724 494 c 128,-1,29
 724 479 724 479 709 479 c 2,30,-1
 562 479 l 1,31,-1
 498 221 l 1,32,-1
 641 221 l 2,33,34
 656 221 656 221 656 206 c 128,-1,35
 656 191 656 191 641 191 c 2,36,-1
 490 191 l 1,37,-1
 446 12 l 1,38,39
 442 0 442 0 432 0 c 0,40,41
 430 0 430 0 428 1 c 0,42,43
 413 4 413 4 417 19 c 2,44,-1
 460 191 l 1,45,-1
 220 191 l 1,46,-1
 176 12 l 1,47,48
 172 0 172 0 162 0 c 0,49,50
 160 0 160 0 158 1 c 0,51,52
 143 4 143 4 147 19 c 2,53,-1
 190 191 l 1,54,-1
 51 191 l 2,55,0
 36 191 36 191 36 206 c 128,-1,1
228 221 m 1,56,-1
 467 221 l 1,57,-1
 532 479 l 1,58,-1
 292 479 l 1,59,-1
 228 221 l 1,56,-1
EndSplineSet
EndChar

StartChar: dollar
Encoding: 36 36 7
Width: 624
GlyphClass: 2
Flags: W
LayerCount: 2
Fore
SplineSet
296 -8 m 1,0,1
 192 2 192 2 106 75 c 0,2,3
 90 88 90 88 90 65 c 2,4,-1
 90 15 l 2,5,6
 90 0 90 0 75 0 c 256,7,8
 60 0 60 0 60 15 c 2,9,-1
 60 205 l 2,10,11
 60 220 60 220 75 220 c 256,12,13
 90 220 90 220 90 205 c 2,14,-1
 90 130 l 1,15,16
 142 71 142 71 231 37 c 0,17,18
 260 26 260 26 296 22 c 1,19,-1
 296 346 l 1,20,21
 200 372 200 372 154.5 394.5 c 128,-1,22
 109 417 109 417 84.5 450 c 128,-1,23
 60 483 60 483 60 526 c 0,24,25
 60 610 60 610 115 660 c 128,-1,26
 170 710 170 710 290 710 c 2,27,-1
 296 710 l 1,28,-1
 296 765 l 2,29,30
 296 780 296 780 311 780 c 128,-1,31
 326 780 326 780 326 765 c 2,32,-1
 326 708 l 1,33,34
 415 694 415 694 475 651 c 0,35,36
 496 636 496 636 508 626 c 0,37,38
 526 612 526 612 525 635 c 1,39,-1
 525 685 l 2,40,41
 525 700 525 700 540 700 c 256,42,43
 555 700 555 700 555 685 c 2,44,-1
 555 495 l 2,45,46
 555 480 555 480 540 480 c 256,47,48
 525 480 525 480 525 495 c 2,49,-1
 525 565 l 1,50,51
 470 628 470 628 387 662 c 0,52,53
 359 674 359 674 326 678 c 1,54,-1
 326 373 l 1,55,56
 329 372 329 372 384.5 357.5 c 128,-1,57
 440 343 440 343 485.5 320.5 c 128,-1,58
 531 298 531 298 555.5 265 c 128,-1,59
 580 232 580 232 580 186 c 0,60,61
 580 96 580 96 517 43 c 128,-1,62
 454 -10 454 -10 335 -10 c 2,63,-1
 326 -10 l 1,64,-1
 326 -65 l 2,65,66
 326 -80 326 -80 311 -80 c 128,-1,67
 296 -80 296 -80 296 -65 c 2,68,-1
 296 -8 l 1,0,1
335 20 m 2,69,70
 439 20 439 20 494.5 64.5 c 128,-1,71
 550 109 550 109 550 180 c 0,72,73
 550 219 550 219 525.5 248 c 128,-1,74
 501 277 501 277 465.5 293 c 128,-1,75
 430 309 430 309 394 319 c 128,-1,76
 358 329 358 329 326 338 c 1,77,-1
 326 20 l 1,78,-1
 335 20 l 2,69,70
114.5 467 m 128,-1,80
 139 438 139 438 174.5 422 c 128,-1,81
 210 406 210 406 241.5 397 c 128,-1,82
 273 388 273 388 296 381 c 1,83,-1
 296 680 l 1,84,-1
 290 680 l 2,85,86
 188 680 188 680 139 638 c 128,-1,87
 90 596 90 596 90 535 c 0,88,79
 90 496 90 496 114.5 467 c 128,-1,80
EndSplineSet
EndChar

StartChar: percent
Encoding: 37 37 8
Width: 784
GlyphClass: 2
Flags: W
LayerCount: 2
Fore
SplineSet
37 540 m 128,-1,1
 37 612 37 612 84 661 c 128,-1,2
 131 710 131 710 202 710 c 128,-1,3
 273 710 273 710 320 661 c 128,-1,4
 367 612 367 612 367 540 c 128,-1,5
 367 468 367 468 320 419 c 128,-1,6
 273 370 273 370 202 370 c 128,-1,7
 131 370 131 370 84 419 c 128,-1,0
 37 468 37 468 37 540 c 128,-1,1
67 540 m 128,-1,9
 67 480 67 480 106 440 c 128,-1,10
 145 400 145 400 202 400 c 128,-1,11
 259 400 259 400 298 440 c 128,-1,12
 337 480 337 480 337 540 c 128,-1,13
 337 600 337 600 298 640 c 128,-1,14
 259 680 259 680 202 680 c 128,-1,15
 145 680 145 680 106 640 c 128,-1,8
 67 600 67 600 67 540 c 128,-1,9
162 23 m 2,16,-1
 595 692 l 2,17,18
 600 699 600 699 606 699 c 128,-1,19
 612 699 612 699 615 697 c 0,20,21
 629 687 629 687 619 677 c 1,22,-1
 187 7 l 1,23,24
 178 -4 178 -4 168 2 c 128,-1,25
 158 8 158 8 158 12 c 0,26,27
 158 18 158 18 162 23 c 2,16,-1
417 160 m 128,-1,29
 417 232 417 232 464 281 c 128,-1,30
 511 330 511 330 582 330 c 128,-1,31
 653 330 653 330 700 281 c 128,-1,32
 747 232 747 232 747 160 c 128,-1,33
 747 88 747 88 700 39 c 128,-1,34
 653 -10 653 -10 582 -10 c 128,-1,35
 511 -10 511 -10 464 39 c 128,-1,28
 417 88 417 88 417 160 c 128,-1,29
447 160 m 128,-1,37
 447 100 447 100 486 60 c 128,-1,38
 525 20 525 20 582 20 c 128,-1,39
 639 20 639 20 678 60 c 128,-1,40
 717 100 717 100 717 160 c 128,-1,41
 717 220 717 220 678 260 c 128,-1,42
 639 300 639 300 582 300 c 128,-1,43
 525 300 525 300 486 260 c 128,-1,36
 447 220 447 220 447 160 c 128,-1,37
EndSplineSet
EndChar

StartChar: ampersand
Encoding: 38 38 9
Width: 699
GlyphClass: 2
Flags: W
LayerCount: 2
Fore
SplineSet
75 170 m 0,0,1
 75 99 75 99 121 54 c 1,2,3
 168 10 168 10 240 10 c 0,4,5
 370 10 370 10 459 121 c 0,6,7
 465 128 465 128 465 133.5 c 128,-1,8
 465 139 465 139 460 144 c 2,9,-1
 286 340 l 1,10,11
 282 347 282 347 275.5 347 c 128,-1,12
 269 347 269 347 261 345 c 0,13,14
 75 295 75 295 75 170 c 0,0,1
340 710 m 0,15,16
 397 710 397 710 442.5 683 c 128,-1,17
 488 656 488 656 514 614 c 0,18,19
 521 603 521 603 508.5 595.5 c 128,-1,20
 496 588 496 588 486 601 c 0,21,22
 457 638 457 638 423 659 c 128,-1,23
 389 680 389 680 330 680 c 128,-1,24
 271 680 271 680 230.5 645.5 c 128,-1,25
 190 611 190 611 190 560 c 0,26,27
 190 495 190 495 266 410 c 2,28,-1
 478 170 l 2,29,30
 487 160 487 160 494 170 c 2,31,-1
 612 348 l 1,32,33
 621 359 621 359 633.5 351 c 128,-1,34
 646 343 646 343 636 330 c 1,35,-1
 515 149 l 2,36,37
 507 138 507 138 517 127 c 2,38,-1
 589 45 l 2,39,40
 602 30 602 30 614 30 c 2,41,-1
 680 30 l 2,42,43
 695 30 695 30 695 15 c 256,44,45
 695 0 695 0 680 0 c 2,46,-1
 600 0 l 2,47,48
 587 0 587 0 574 15 c 2,49,-1
 499 100 l 1,50,51
 488 110 488 110 481 100 c 0,52,53
 386 -20 386 -20 240 -20 c 0,54,55
 155 -20 155 -20 100 32 c 256,56,57
 45 84 45 84 45 165 c 128,-1,58
 45 246 45 246 96 296.5 c 128,-1,59
 147 347 147 347 241 369 c 1,60,61
 256 374 256 374 242 390 c 0,62,63
 207 432 207 432 183.5 472.5 c 128,-1,64
 160 513 160 513 160 560 c 0,65,66
 160 629 160 629 208 669.5 c 128,-1,67
 256 710 256 710 340 710 c 0,15,16
EndSplineSet
EndChar

StartChar: quotesingle
Encoding: 39 39 10
Width: 184
GlyphClass: 2
Flags: W
LayerCount: 2
Fore
SplineSet
77 475 m 2,0,-1
 77 685 l 2,1,2
 77 700 77 700 92 700 c 128,-1,3
 107 700 107 700 107 685 c 2,4,-1
 107 475 l 2,5,6
 107 460 107 460 92 460 c 128,-1,7
 77 460 77 460 77 475 c 2,0,-1
EndSplineSet
EndChar

StartChar: parenleft
Encoding: 40 40 11
Width: 281
GlyphClass: 2
Flags: W
LayerCount: 2
Fore
SplineSet
76 260 m 2,0,-1
 76 360 l 2,1,2
 76 487 76 487 113 596 c 128,-1,3
 150 705 150 705 206 772 c 0,4,5
 213 779 213 779 219 779 c 1,6,-1
 228 776 l 1,7,8
 235 770 235 770 235 765 c 128,-1,9
 235 760 235 760 231 756 c 0,10,11
 177 691 177 691 141.5 589 c 128,-1,12
 106 487 106 487 106 360 c 2,13,-1
 106 260 l 2,14,15
 106 133 106 133 141.5 30 c 128,-1,16
 177 -73 177 -73 231 -136 c 0,17,18
 235 -140 235 -140 235 -145 c 128,-1,19
 235 -150 235 -150 229 -154 c 0,20,21
 223 -159 223 -159 219 -159 c 1,22,-1
 206 -152 l 1,23,24
 150 -85 150 -85 113 24 c 128,-1,25
 76 133 76 133 76 260 c 2,0,-1
EndSplineSet
EndChar

StartChar: parenright
Encoding: 41 41 12
Width: 281
GlyphClass: 2
Flags: W
LayerCount: 2
Fore
SplineSet
50 -136 m 0,0,1
 104 -73 104 -73 139.5 30 c 128,-1,2
 175 133 175 133 175 260 c 2,3,-1
 175 360 l 2,4,5
 175 487 175 487 139.5 589 c 128,-1,6
 104 691 104 691 50 756 c 0,7,8
 46 760 46 760 46 765 c 128,-1,9
 46 770 46 770 52 774 c 128,-1,10
 58 778 58 778 62 779 c 1,11,-1
 75 772 l 1,12,13
 131 705 131 705 168 596 c 128,-1,14
 205 487 205 487 205 360 c 2,15,-1
 205 260 l 2,16,17
 205 133 205 133 168 24 c 128,-1,18
 131 -85 131 -85 75 -152 c 0,19,20
 68 -159 68 -159 62 -159 c 1,21,-1
 53 -156 l 1,22,23
 46 -150 46 -150 46 -144 c 0,24,25
 46 -140 46 -140 50 -136 c 0,0,1
EndSplineSet
EndChar

StartChar: asterisk
Encoding: 42 42 13
Width: 448
GlyphClass: 2
Flags: W
LayerCount: 2
Fore
SplineSet
70 449 m 0,0,1
 67 454 67 454 67 460 c 128,-1,2
 67 466 67 466 76 470 c 2,3,-1
 183 531 l 2,4,5
 188 533 188 533 188 537.5 c 128,-1,6
 188 542 188 542 183 545 c 2,7,-1
 76 606 l 2,8,9
 67 610 67 610 67 616 c 128,-1,10
 67 622 67 622 70 627 c 0,11,12
 77 640 77 640 91 632 c 2,13,-1
 193 572 l 2,14,15
 209 563 209 563 209 580 c 2,16,-1
 209 685 l 2,17,18
 209 700 209 700 224 700 c 128,-1,19
 239 700 239 700 239 685 c 2,20,-1
 239 580 l 2,21,22
 239 563 239 563 255 572 c 2,23,-1
 357 632 l 2,24,25
 371 640 371 640 378 627 c 0,26,27
 381 622 381 622 381 616 c 128,-1,28
 381 610 381 610 372 606 c 2,29,-1
 265 545 l 2,30,31
 260 542 260 542 260 537.5 c 128,-1,32
 260 533 260 533 265 531 c 2,33,-1
 372 470 l 2,34,35
 381 466 381 466 381 460 c 128,-1,36
 381 454 381 454 378 449 c 0,37,38
 371 436 371 436 357 444 c 2,39,-1
 255 503 l 2,40,41
 239 512 239 512 239 495 c 2,42,-1
 239 395 l 2,43,44
 239 380 239 380 224 380 c 128,-1,45
 209 380 209 380 209 395 c 2,46,-1
 209 495 l 2,47,48
 209 512 209 512 193 503 c 2,49,-1
 91 444 l 2,50,51
 77 436 77 436 70 449 c 0,0,1
EndSplineSet
EndChar

StartChar: plus
Encoding: 43 43 14
Width: 501
GlyphClass: 2
Flags: W
LayerCount: 2
Fore
SplineSet
40 320 m 128,-1,1
 40 335 40 335 55 335 c 2,2,-1
 215 335 l 2,3,4
 230 335 230 335 230 350 c 2,5,-1
 230 515 l 2,6,7
 230 530 230 530 245 530 c 128,-1,8
 260 530 260 530 260 515 c 2,9,-1
 260 350 l 2,10,11
 260 335 260 335 275 335 c 2,12,-1
 445 335 l 2,13,14
 460 335 460 335 460 320 c 128,-1,15
 460 305 460 305 445 305 c 2,16,-1
 275 305 l 2,17,18
 260 305 260 305 260 290 c 2,19,-1
 260 125 l 2,20,21
 260 110 260 110 245 110 c 128,-1,22
 230 110 230 110 230 125 c 2,23,-1
 230 290 l 2,24,25
 230 305 230 305 215 305 c 2,26,-1
 55 305 l 2,27,0
 40 305 40 305 40 320 c 128,-1,1
EndSplineSet
EndChar

StartChar: comma
Encoding: 44 44 15
Width: 242
GlyphClass: 2
Flags: W
LayerCount: 2
Fore
SplineSet
75 40 m 128,-1,1
 75 63 75 63 88.5 76.5 c 128,-1,2
 102 90 102 90 125 90 c 0,3,4
 175 90 175 90 175 30 c 2,5,-1
 175 15 l 2,6,7
 175 -37 175 -37 155 -73.5 c 128,-1,8
 135 -110 135 -110 100 -125 c 0,9,10
 94 -128 94 -128 88 -128 c 128,-1,11
 82 -128 82 -128 78 -121 c 0,12,13
 71 -108 71 -108 84 -102 c 0,14,15
 145 -75 145 -75 145 -10 c 2,16,-1
 145 -2 l 1,17,18
 132 -10 132 -10 116 -10 c 128,-1,19
 100 -10 100 -10 87.5 3.5 c 128,-1,0
 75 17 75 17 75 40 c 128,-1,1
EndSplineSet
EndChar

StartChar: hyphen
Encoding: 45 45 16
Width: 572
GlyphClass: 2
Flags: W
LayerCount: 2
Fore
SplineSet
76 320 m 128,-1,1
 76 335 76 335 91 335 c 2,2,-1
 481 335 l 2,3,4
 496 335 496 335 496 320 c 128,-1,5
 496 305 496 305 481 305 c 2,6,-1
 91 305 l 2,7,0
 76 305 76 305 76 320 c 128,-1,1
EndSplineSet
EndChar

StartChar: period
Encoding: 46 46 17
Width: 242
GlyphClass: 2
Flags: W
LayerCount: 2
Fore
SplineSet
71 40 m 128,-1,1
 71 63 71 63 84.5 76.5 c 128,-1,2
 98 90 98 90 121 90 c 128,-1,3
 144 90 144 90 157.5 76.5 c 128,-1,4
 171 63 171 63 171 40 c 128,-1,5
 171 17 171 17 157.5 3.5 c 128,-1,6
 144 -10 144 -10 121 -10 c 128,-1,7
 98 -10 98 -10 84.5 3.5 c 128,-1,0
 71 17 71 17 71 40 c 128,-1,1
EndSplineSet
EndChar

StartChar: slash
Encoding: 47 47 18
Width: 518
GlyphClass: 2
Flags: W
LayerCount: 2
Fore
SplineSet
30 23 m 2,0,-1
 463 692 l 2,1,2
 468 699 468 699 474 699 c 128,-1,3
 480 699 480 699 483 697 c 0,4,5
 491 691 491 691 491 686 c 128,-1,6
 491 681 491 681 487 677 c 1,7,-1
 55 7 l 2,8,9
 50 0 50 0 44 0 c 128,-1,10
 38 0 38 0 32 4 c 128,-1,11
 26 8 26 8 26 12 c 0,12,13
 26 18 26 18 30 23 c 2,0,-1
EndSplineSet
EndChar

StartChar: zero
Encoding: 48 48 19
Width: 654
GlyphClass: 2
Flags: W
LayerCount: 2
Fore
SplineSet
62 350 m 128,-1,1
 62 520 62 520 137.5 615 c 128,-1,2
 213 710 213 710 327 710 c 128,-1,3
 441 710 441 710 516.5 615 c 128,-1,4
 592 520 592 520 592 350 c 128,-1,5
 592 180 592 180 516.5 85 c 128,-1,6
 441 -10 441 -10 327 -10 c 128,-1,7
 213 -10 213 -10 137.5 85 c 128,-1,0
 62 180 62 180 62 350 c 128,-1,1
92 350 m 128,-1,9
 92 193 92 193 159.5 106.5 c 128,-1,10
 227 20 227 20 327 20 c 128,-1,11
 427 20 427 20 494.5 106.5 c 128,-1,12
 562 193 562 193 562 350 c 128,-1,13
 562 507 562 507 494.5 593.5 c 128,-1,14
 427 680 427 680 327 680 c 128,-1,15
 227 680 227 680 159.5 593.5 c 128,-1,8
 92 507 92 507 92 350 c 128,-1,9
EndSplineSet
EndChar

StartChar: one
Encoding: 49 49 20
Width: 346
GlyphClass: 2
Flags: W
LayerCount: 2
Fore
SplineSet
53 555 m 1,0,1
 42 544 42 544 34 553 c 128,-1,2
 26 562 26 562 26 567.5 c 128,-1,3
 26 573 26 573 33 578 c 2,4,-1
 161 685 l 1,5,6
 182 700 182 700 188 700 c 0,7,8
 208 700 208 700 208 685 c 2,9,-1
 208 45 l 2,10,11
 208 30 208 30 223 30 c 2,12,-1
 293 30 l 2,13,14
 308 30 308 30 308 15 c 128,-1,15
 308 0 308 0 293 0 c 2,16,-1
 93 0 l 2,17,18
 78 0 78 0 78 15 c 128,-1,19
 78 30 78 30 93 30 c 2,20,-1
 163 30 l 2,21,22
 178 30 178 30 178 45 c 2,23,-1
 178 650 l 2,24,25
 178 660 178 660 164 650 c 1,26,-1
 53 555 l 1,0,1
EndSplineSet
EndChar

StartChar: two
Encoding: 50 50 21
Width: 595
GlyphClass: 2
Flags: W
LayerCount: 2
Fore
SplineSet
300 710 m 0,0,1
 406 710 406 710 468 653 c 256,2,3
 530 596 530 596 530 526 c 128,-1,4
 530 456 530 456 484.5 404 c 128,-1,5
 439 352 439 352 374 314 c 1,6,-1
 246 244 l 2,7,8
 182 210 182 210 136 165.5 c 128,-1,9
 90 121 90 121 90 70 c 2,10,-1
 90 45 l 2,11,12
 90 30 90 30 105 30 c 2,13,-1
 485 30 l 2,14,15
 500 30 500 30 500 45 c 2,16,-1
 500 155 l 2,17,18
 500 170 500 170 515 170 c 256,19,20
 530 170 530 170 530 155 c 2,21,-1
 530 15 l 2,22,23
 530 0 530 0 515 0 c 2,24,-1
 75 0 l 2,25,26
 60 0 60 0 60 15 c 2,27,-1
 60 70 l 2,28,29
 60 150 60 150 156 224 c 0,30,31
 184 246 184 246 216 263 c 2,32,-1
 344 334 l 1,33,34
 408 368 408 368 454 415.5 c 128,-1,35
 500 463 500 463 500 523.5 c 128,-1,36
 500 584 500 584 446 632 c 256,37,38
 392 680 392 680 300 680 c 0,39,40
 239 680 239 680 181.5 657 c 128,-1,41
 124 634 124 634 81 589 c 0,42,43
 70 578 70 578 62 586 c 128,-1,44
 54 594 54 594 54 599 c 128,-1,45
 54 604 54 604 60 610 c 0,46,47
 162 710 162 710 300 710 c 0,0,1
EndSplineSet
EndChar

StartChar: three
Encoding: 51 51 22
Width: 601
GlyphClass: 2
Flags: W
LayerCount: 2
Fore
SplineSet
292 710 m 0,0,1
 399 710 399 710 459.5 657 c 128,-1,2
 520 604 520 604 520 525 c 0,3,4
 520 405 520 405 395 367 c 1,5,6
 465 355 465 355 502.5 307 c 128,-1,7
 540 259 540 259 540 190 c 0,8,9
 540 99 540 99 475 44 c 0,10,11
 410 -10 410 -10 300 -10 c 0,12,13
 162 -10 162 -10 60 90 c 0,14,15
 54 96 54 96 54 100 c 128,-1,16
 54 104 54 104 58 108 c 0,17,18
 71 121 71 121 81 111 c 0,19,20
 124 66 124 66 181.5 43 c 128,-1,21
 239 20 239 20 300 20 c 0,22,23
 399 20 399 20 454.5 65.5 c 128,-1,24
 510 111 510 111 510 188 c 128,-1,25
 510 265 510 265 463 307.5 c 128,-1,26
 416 350 416 350 340 350 c 2,27,-1
 235 350 l 2,28,29
 220 350 220 350 220 365 c 256,30,31
 220 380 220 380 235 380 c 2,32,-1
 320 380 l 2,33,34
 398 380 398 380 444 420 c 128,-1,35
 490 460 490 460 490 527 c 128,-1,36
 490 594 490 594 436 637 c 128,-1,37
 382 680 382 680 292 680 c 0,38,39
 235 680 235 680 183.5 656.5 c 128,-1,40
 132 633 132 633 93 599 c 0,41,42
 82 589 82 589 71.5 599.5 c 128,-1,43
 61 610 61 610 72 620 c 0,44,45
 116 658 116 658 169.5 684 c 128,-1,46
 223 710 223 710 292 710 c 0,0,1
EndSplineSet
EndChar

StartChar: four
Encoding: 52 52 23
Width: 578
GlyphClass: 2
Flags: W
LayerCount: 2
Fore
SplineSet
16 177 m 1,0,1
 14 179 14 179 14 183 c 128,-1,2
 14 187 14 187 17 193 c 0,3,4
 106 326 106 326 127 365 c 0,5,6
 203 509 203 509 203 715 c 0,7,8
 203 730 203 730 218 730 c 128,-1,9
 233 730 233 730 233 715 c 0,10,11
 232 538 232 538 184 422 c 0,12,13
 158 361 158 361 133.5 318 c 128,-1,14
 109 275 109 275 66 215 c 1,15,16
 59 200 59 200 77 200 c 2,17,-1
 408 200 l 2,18,19
 423 200 423 200 423 215 c 2,20,-1
 423 501 l 2,21,22
 423 516 423 516 438 516 c 128,-1,23
 453 516 453 516 453 501 c 2,24,-1
 453 215 l 2,25,26
 453 200 453 200 468 200 c 2,27,-1
 548 200 l 2,28,29
 563 200 563 200 563 185 c 128,-1,30
 563 170 563 170 548 170 c 2,31,-1
 468 170 l 2,32,33
 453 170 453 170 453 155 c 2,34,-1
 453 5 l 2,35,36
 453 -10 453 -10 438 -10 c 128,-1,37
 423 -10 423 -10 423 5 c 2,38,-1
 423 155 l 2,39,40
 423 170 423 170 408 170 c 2,41,-1
 28 170 l 2,42,43
 19 170 19 170 16 177 c 1,0,1
EndSplineSet
EndChar

StartChar: five
Encoding: 53 53 24
Width: 572
GlyphClass: 2
Flags: W
LayerCount: 2
Fore
SplineSet
70 685 m 2,0,1
 70 700 70 700 85 700 c 2,2,-1
 475 700 l 2,3,4
 490 700 490 700 490 685 c 256,5,6
 490 670 490 670 475 670 c 2,7,-1
 115 670 l 2,8,9
 100 670 100 670 100 655 c 2,10,-1
 100 420 l 2,11,12
 100 400 100 400 115 408 c 0,13,14
 194 450 194 450 283 450 c 0,15,16
 401 450 401 450 463 391 c 128,-1,17
 525 332 525 332 525 230 c 0,18,19
 525 104 525 104 404 37 c 256,20,21
 283 -30 283 -30 90 -30 c 0,22,23
 75 -30 75 -30 75 -15 c 256,24,25
 75 0 75 0 90 0 c 0,26,27
 329 0 329 0 436 100 c 1,28,29
 495 153 495 153 495 235.5 c 128,-1,30
 495 318 495 318 440.5 369 c 128,-1,31
 386 420 386 420 282 420 c 128,-1,32
 178 420 178 420 100 366 c 1,33,34
 86 360 86 360 84 360 c 0,35,36
 70 360 70 360 70 375 c 2,37,-1
 70 685 l 2,0,1
EndSplineSet
EndChar

StartChar: six
Encoding: 54 54 25
Width: 597
GlyphClass: 2
Flags: W
LayerCount: 2
Fore
SplineSet
123 475 m 0,0,1
 118 460 118 460 136 460 c 2,2,-1
 290 460 l 2,3,4
 415 460 415 460 486 397 c 128,-1,5
 557 334 557 334 557 227 c 128,-1,6
 557 120 557 120 492.5 55 c 128,-1,7
 428 -10 428 -10 315.5 -10 c 128,-1,8
 203 -10 203 -10 130 71.5 c 128,-1,9
 57 153 57 153 57 300 c 0,10,11
 57 478 57 478 168 604 c 256,12,13
 279 730 279 730 457 730 c 0,14,15
 472 730 472 730 472 715 c 256,16,17
 472 700 472 700 457 700 c 0,18,19
 262 700 262 700 150 528 c 0,20,21
 132 500 132 500 123 475 c 0,0,1
102 415 m 1,22,23
 87 365 87 365 87 300 c 0,24,25
 87 166 87 166 151 93 c 256,26,27
 215 20 215 20 316 20 c 128,-1,28
 417 20 417 20 472 76 c 128,-1,29
 527 132 527 132 527 227 c 128,-1,30
 527 322 527 322 466.5 376 c 128,-1,31
 406 430 406 430 285 430 c 2,32,-1
 122 430 l 2,33,34
 108 430 108 430 102 415 c 1,22,23
EndSplineSet
EndChar

StartChar: seven
Encoding: 55 55 26
Width: 466
GlyphClass: 2
Flags: W
LayerCount: 2
Fore
SplineSet
455 700 m 2,0,1
 469 700 469 700 469 687 c 0,2,3
 469 683 469 683 466 677 c 2,4,-1
 392 553 l 1,5,6
 304 401 304 401 264 291 c 0,7,8
 210 141 210 141 210 15 c 0,9,10
 210 0 210 0 195 0 c 128,-1,11
 180 0 180 0 180 15 c 0,12,13
 180 275 180 275 421 655 c 1,14,15
 428 670 428 670 410 670 c 2,16,-1
 45 670 l 2,17,18
 30 670 30 670 30 655 c 2,19,-1
 30 545 l 2,20,21
 30 530 30 530 15 530 c 128,-1,22
 0 530 0 530 0 545 c 2,23,-1
 0 685 l 2,24,25
 0 700 0 700 15 700 c 2,26,-1
 455 700 l 2,0,1
EndSplineSet
EndChar

StartChar: eight
Encoding: 56 56 27
Width: 644
GlyphClass: 2
Flags: W
LayerCount: 2
Fore
SplineSet
105 280 m 0,0,1
 124 295 124 295 135.5 303 c 128,-1,2
 147 311 147 311 174.5 323.5 c 128,-1,3
 202 336 202 336 213.5 340 c 128,-1,4
 225 344 225 344 257 356 c 0,5,6
 269 361 269 361 257 366 c 0,7,8
 154 408 154 408 120 447 c 0,9,10
 87 486 87 486 87 540 c 0,11,12
 87 615 87 615 148.5 662.5 c 128,-1,13
 210 710 210 710 322 710 c 128,-1,14
 434 710 434 710 495.5 662.5 c 128,-1,15
 557 615 557 615 557 537 c 0,16,17
 556 459 556 459 482 413 c 0,18,19
 445 390 445 390 387 366 c 0,20,21
 375 361 375 361 387 356 c 0,22,23
 487 318 487 318 518 296 c 1,24,25
 587 250 587 250 587 171 c 128,-1,26
 587 92 587 92 512.5 41 c 128,-1,27
 438 -10 438 -10 322 -10 c 128,-1,28
 206 -10 206 -10 131.5 41 c 128,-1,29
 57 92 57 92 57 167 c 128,-1,30
 57 242 57 242 105 280 c 0,0,1
87 170 m 0,31,32
 87 103 87 103 152 61.5 c 128,-1,33
 217 20 217 20 322 20 c 128,-1,34
 427 20 427 20 492 61.5 c 128,-1,35
 557 103 557 103 557 170 c 0,36,37
 557 219 557 219 527 249 c 1,38,-1
 507 268 l 1,39,40
 477 294 477 294 390 323 c 2,41,-1
 356 334 l 2,42,43
 330 342 330 342 322 345 c 1,44,45
 314 342 314 342 288 334 c 2,46,-1
 254 323 l 2,47,48
 205 307 205 307 175 291 c 128,-1,49
 145 275 145 275 137 268 c 2,50,-1
 117 249 l 1,51,52
 87 219 87 219 87 170 c 0,31,32
117 540 m 0,53,54
 117 464 117 464 207 420 c 0,55,56
 250 399 250 399 322 377 c 1,57,58
 445 415 445 415 486 452 c 128,-1,59
 527 489 527 489 527 546 c 128,-1,60
 527 603 527 603 475 641.5 c 128,-1,61
 423 680 423 680 322 680 c 128,-1,62
 221 680 221 680 169 641.5 c 128,-1,63
 117 603 117 603 117 540 c 0,53,54
EndSplineSet
EndChar

StartChar: nine
Encoding: 57 57 28
Width: 597
GlyphClass: 2
Flags: W
LayerCount: 2
Fore
SplineSet
406 118 m 0,0,1
 457 175 457 175 471 216 c 0,2,3
 477 233 477 233 473 236.5 c 128,-1,4
 469 240 469 240 461 240 c 2,5,-1
 307 240 l 2,6,7
 182 240 182 240 111 303 c 128,-1,8
 40 366 40 366 40 472.5 c 128,-1,9
 40 579 40 579 104 644.5 c 128,-1,10
 168 710 168 710 280.5 710 c 128,-1,11
 393 710 393 710 467 629 c 1,12,13
 540 547 540 547 540 400 c 0,14,15
 540 222 540 222 429 96 c 256,16,17
 318 -30 318 -30 140 -30 c 0,18,19
 125 -30 125 -30 125 -15 c 256,20,21
 125 0 125 0 140 0 c 0,22,23
 301 0 301 0 406 118 c 0,0,1
475 270 m 2,24,25
 490 270 490 270 494 282 c 0,26,27
 502 302 502 302 506 341 c 128,-1,28
 510 380 510 380 510 400 c 0,29,30
 510 534 510 534 446 607 c 256,31,32
 382 680 382 680 280.5 680 c 128,-1,33
 179 680 179 680 124.5 624 c 128,-1,34
 70 568 70 568 70 473.5 c 128,-1,35
 70 379 70 379 130.5 324.5 c 128,-1,36
 191 270 191 270 312 270 c 2,37,-1
 475 270 l 2,24,25
EndSplineSet
EndChar

StartChar: colon
Encoding: 58 58 29
Width: 252
GlyphClass: 2
Flags: W
LayerCount: 2
Fore
SplineSet
76 40 m 128,-1,1
 76 63 76 63 89.5 76.5 c 128,-1,2
 103 90 103 90 126 90 c 128,-1,3
 149 90 149 90 162.5 76.5 c 128,-1,4
 176 63 176 63 176 40 c 128,-1,5
 176 17 176 17 162.5 3.5 c 128,-1,6
 149 -10 149 -10 126 -10 c 128,-1,7
 103 -10 103 -10 89.5 3.5 c 128,-1,0
 76 17 76 17 76 40 c 128,-1,1
76 460 m 128,-1,9
 76 483 76 483 89.5 496.5 c 128,-1,10
 103 510 103 510 126 510 c 128,-1,11
 149 510 149 510 162.5 496.5 c 128,-1,12
 176 483 176 483 176 460 c 128,-1,13
 176 437 176 437 162.5 423.5 c 128,-1,14
 149 410 149 410 126 410 c 128,-1,15
 103 410 103 410 89.5 423.5 c 128,-1,8
 76 437 76 437 76 460 c 128,-1,9
EndSplineSet
EndChar

StartChar: semicolon
Encoding: 59 59 30
Width: 252
GlyphClass: 2
Flags: W
LayerCount: 2
Fore
SplineSet
80 40 m 128,-1,1
 80 63 80 63 93.5 76.5 c 128,-1,2
 107 90 107 90 130 90 c 0,3,4
 180 90 180 90 180 30 c 2,5,-1
 180 15 l 2,6,7
 180 -37 180 -37 160 -73.5 c 128,-1,8
 140 -110 140 -110 105 -125 c 0,9,10
 100 -128 100 -128 94 -128 c 128,-1,11
 88 -128 88 -128 83 -121 c 1,12,13
 76 -108 76 -108 89 -102 c 0,14,15
 150 -75 150 -75 150 -10 c 2,16,-1
 150 -2 l 1,17,18
 138 -10 138 -10 122 -10 c 128,-1,19
 106 -10 106 -10 93 3.5 c 128,-1,0
 80 17 80 17 80 40 c 128,-1,1
80 460 m 128,-1,21
 80 483 80 483 93.5 496.5 c 128,-1,22
 107 510 107 510 130 510 c 128,-1,23
 153 510 153 510 166.5 496.5 c 128,-1,24
 180 483 180 483 180 460 c 128,-1,25
 180 437 180 437 166.5 423.5 c 128,-1,26
 153 410 153 410 130 410 c 128,-1,27
 107 410 107 410 93.5 423.5 c 128,-1,20
 80 437 80 437 80 460 c 128,-1,21
EndSplineSet
EndChar

StartChar: less
Encoding: 60 60 31
Width: 499
GlyphClass: 2
Flags: W
LayerCount: 2
Fore
SplineSet
33 249.5 m 128,-1,1
 33 260 33 260 43 266 c 2,2,-1
 419 482 l 2,3,4
 424 486 424 486 430 486 c 128,-1,5
 436 486 436 486 439 479 c 0,6,7
 443 472 443 472 443 466 c 128,-1,8
 443 460 443 460 435 456 c 2,9,-1
 92 258 l 2,10,11
 78 249 78 249 92 240 c 2,12,-1
 435 43 l 1,13,14
 443 37 443 37 443 32 c 128,-1,15
 443 27 443 27 439 20 c 0,16,17
 436 13 436 13 430 13 c 128,-1,18
 424 13 424 13 419 17 c 2,19,-1
 44 233 l 2,20,0
 33 239 33 239 33 249.5 c 128,-1,1
EndSplineSet
EndChar

StartChar: equal
Encoding: 61 61 32
Width: 580
GlyphClass: 2
Flags: W
LayerCount: 2
Fore
SplineSet
80 220 m 128,-1,1
 80 235 80 235 95 235 c 2,2,-1
 485 235 l 2,3,4
 500 235 500 235 500 220 c 128,-1,5
 500 205 500 205 485 205 c 2,6,-1
 95 205 l 2,7,0
 80 205 80 205 80 220 c 128,-1,1
80 420 m 128,-1,9
 80 435 80 435 95 435 c 2,10,-1
 485 435 l 2,11,12
 500 435 500 435 500 420 c 128,-1,13
 500 405 500 405 485 405 c 2,14,-1
 95 405 l 2,15,8
 80 405 80 405 80 420 c 128,-1,9
EndSplineSet
EndChar

StartChar: greater
Encoding: 62 62 33
Width: 499
GlyphClass: 2
Flags: W
LayerCount: 2
Fore
SplineSet
80 17 m 2,0,1
 75 13 75 13 69.5 13 c 128,-1,2
 64 13 64 13 60 20 c 128,-1,3
 56 27 56 27 56 32 c 128,-1,4
 56 37 56 37 64 43 c 1,5,-1
 407 240 l 1,6,7
 420 249 420 249 407 258 c 1,8,-1
 64 456 l 2,9,10
 56 460 56 460 56 466 c 128,-1,11
 56 472 56 472 60 479 c 128,-1,12
 64 486 64 486 69.5 486 c 128,-1,13
 75 486 75 486 80 482 c 2,14,-1
 456 266 l 2,15,16
 466 260 466 260 466 249.5 c 128,-1,17
 466 239 466 239 455 233 c 2,18,-1
 80 17 l 2,0,1
EndSplineSet
EndChar

StartChar: question
Encoding: 63 63 34
Width: 542
GlyphClass: 2
Flags: W
LayerCount: 2
Fore
SplineSet
35 510 m 0,0,1
 35 601 35 601 96.5 655.5 c 128,-1,2
 158 710 158 710 264.5 710 c 128,-1,3
 371 710 371 710 433 653 c 128,-1,4
 495 596 495 596 495 520 c 0,5,6
 495 467 495 467 473 428 c 128,-1,7
 451 389 451 389 420 365 c 2,8,-1
 356 318 l 2,9,10
 280 263 280 263 280 185 c 0,11,12
 280 170 280 170 265 170 c 128,-1,13
 250 170 250 170 250 185 c 0,14,15
 250 228 250 228 266 262 c 128,-1,16
 282 296 282 296 306 316 c 2,17,-1
 409 399 l 2,18,19
 433 418 433 418 449 449.5 c 128,-1,20
 465 481 465 481 465 520 c 0,21,22
 465 584 465 584 411 632 c 128,-1,23
 357 680 357 680 264.5 680 c 128,-1,24
 172 680 172 680 118.5 634.5 c 128,-1,25
 65 589 65 589 65 510 c 0,26,27
 65 495 65 495 50 495 c 128,-1,28
 35 495 35 495 35 510 c 0,0,1
215 40 m 128,-1,30
 215 63 215 63 228.5 76.5 c 128,-1,31
 242 90 242 90 265 90 c 128,-1,32
 288 90 288 90 301.5 76.5 c 128,-1,33
 315 63 315 63 315 40 c 128,-1,34
 315 17 315 17 301.5 3.5 c 128,-1,35
 288 -10 288 -10 265 -10 c 128,-1,36
 242 -10 242 -10 228.5 3.5 c 128,-1,29
 215 17 215 17 215 40 c 128,-1,30
EndSplineSet
EndChar

StartChar: at
Encoding: 64 64 35
Width: 922
GlyphClass: 2
Flags: W
LayerCount: 2
Fore
SplineSet
51 260 m 128,-1,1
 51 456 51 456 171 583 c 0,2,3
 292 710 292 710 466 710 c 128,-1,4
 640 710 640 710 760.5 583 c 128,-1,5
 881 456 881 456 881 260 c 0,6,7
 881 137 881 137 840 63.5 c 128,-1,8
 799 -10 799 -10 733 -10 c 0,9,10
 653 -10 653 -10 626 70 c 1,11,12
 620 91 620 91 610 80 c 0,13,14
 530 -10 530 -10 441 -10 c 128,-1,15
 352 -10 352 -10 289 58 c 128,-1,16
 226 126 226 126 226 250 c 128,-1,17
 226 374 226 374 289 442 c 128,-1,18
 352 510 352 510 441 510 c 128,-1,19
 530 510 530 510 610 420 c 0,20,21
 618 412 618 412 622 416 c 128,-1,22
 626 420 626 420 626 430 c 2,23,-1
 626 485 l 2,24,25
 626 500 626 500 641 500 c 128,-1,26
 656 500 656 500 656 485 c 2,27,-1
 656 110 l 2,28,29
 656 66 656 66 676.5 43 c 128,-1,30
 697 20 697 20 733 20 c 0,31,32
 785 20 785 20 818 86 c 128,-1,33
 851 152 851 152 851 260 c 0,34,35
 851 445 851 445 740.5 562.5 c 128,-1,36
 630 680 630 680 466 680 c 128,-1,37
 302 680 302 680 191.5 562.5 c 128,-1,38
 81 445 81 445 81 260 c 128,-1,39
 81 75 81 75 191.5 -42.5 c 128,-1,40
 302 -160 302 -160 468 -160 c 128,-1,41
 634 -160 634 -160 715 -69 c 0,42,43
 726 -58 726 -58 736 -69 c 128,-1,44
 746 -80 746 -80 736 -90 c 0,45,46
 644 -190 644 -190 468 -190 c 128,-1,47
 292 -190 292 -190 171.5 -63 c 128,-1,0
 51 64 51 64 51 260 c 128,-1,1
256 250 m 128,-1,49
 256 137 256 137 310 78 c 0,50,51
 364 20 364 20 440 20 c 128,-1,52
 516 20 516 20 578 90 c 0,53,54
 606 122 606 122 626 160 c 1,55,-1
 626 340 l 1,56,57
 606 378 606 378 578 410 c 0,58,59
 516 480 516 480 440 480 c 128,-1,60
 364 480 364 480 310 421.5 c 128,-1,48
 256 363 256 363 256 250 c 128,-1,49
EndSplineSet
EndChar

StartChar: A
Encoding: 65 65 36
Width: 724
GlyphClass: 2
Flags: W
LayerCount: 2
Fore
SplineSet
368 645 m 2,0,1
 366 651 366 651 362 651 c 128,-1,2
 358 651 358 651 356 645 c 2,3,-1
 219 289 l 1,4,5
 211 274 211 274 230 274 c 2,6,-1
 494 274 l 2,7,8
 512 274 512 274 505 289 c 1,9,-1
 368 645 l 2,0,1
528 230 m 2,10,11
 522 244 522 244 504 244 c 2,12,-1
 220 244 l 2,13,14
 202 244 202 244 196 230 c 2,15,-1
 125 45 l 1,16,17
 117 30 117 30 135 30 c 2,18,-1
 195 30 l 2,19,20
 210 30 210 30 210 15 c 256,21,22
 210 0 210 0 195 0 c 2,23,-1
 5 0 l 2,24,25
 -10 0 -10 0 -10 15 c 256,26,27
 -10 30 -10 30 5 30 c 2,28,-1
 70 30 l 2,29,30
 82 30 82 30 90 45 c 1,31,-1
 340 695 l 1,32,33
 344 710 344 710 362 710 c 128,-1,34
 380 710 380 710 384 695 c 1,35,-1
 634 45 l 1,36,37
 641 30 641 30 654 30 c 2,38,-1
 719 30 l 2,39,40
 734 30 734 30 734 15 c 256,41,42
 734 0 734 0 719 0 c 2,43,-1
 529 0 l 2,44,45
 514 0 514 0 514 15 c 256,46,47
 514 30 514 30 529 30 c 2,48,-1
 589 30 l 2,49,50
 606 30 606 30 599 45 c 1,51,-1
 528 230 l 2,10,11
EndSplineSet
EndChar

StartChar: B
Encoding: 66 66 37
Width: 651
GlyphClass: 2
Flags: W
LayerCount: 2
Fore
SplineSet
451 374 m 1,0,1
 596 346 596 346 596 182 c 0,2,3
 596 102 596 102 546.5 51 c 128,-1,4
 497 0 497 0 406 0 c 2,5,-1
 61 0 l 2,6,7
 46 0 46 0 46 15 c 256,8,9
 46 30 46 30 61 30 c 2,10,-1
 131 30 l 2,11,12
 146 30 146 30 146 45 c 2,13,-1
 146 655 l 2,14,15
 146 670 146 670 131 670 c 2,16,-1
 61 670 l 2,17,18
 46 670 46 670 46 685 c 256,19,20
 46 700 46 700 61 700 c 2,21,-1
 366 700 l 2,22,23
 446 700 446 700 496 650 c 256,24,25
 546 600 546 600 546 525 c 0,26,27
 546 419 546 419 451 374 c 1,0,1
176 395 m 2,28,29
 176 380 176 380 191 380 c 2,30,-1
 371 380 l 2,31,32
 434 380 434 380 475 422.5 c 128,-1,33
 516 465 516 465 516 527 c 128,-1,34
 516 589 516 589 475.5 629.5 c 128,-1,35
 435 670 435 670 366 670 c 2,36,-1
 191 670 l 2,37,38
 176 670 176 670 176 655 c 2,39,-1
 176 395 l 2,28,29
176 45 m 2,40,41
 176 30 176 30 191 30 c 2,42,-1
 406 30 l 2,43,44
 481 30 481 30 523.5 72.5 c 128,-1,45
 566 115 566 115 566 190 c 256,46,47
 566 265 566 265 523.5 307.5 c 128,-1,48
 481 350 481 350 406 350 c 2,49,-1
 191 350 l 2,50,51
 176 350 176 350 176 335 c 2,52,-1
 176 45 l 2,40,41
EndSplineSet
EndChar

StartChar: C
Encoding: 67 67 38
Width: 695
GlyphClass: 2
Flags: W
LayerCount: 2
Fore
SplineSet
58 350 m 256,0,1
 58 506 58 506 146 608 c 128,-1,2
 234 710 234 710 373 710 c 0,3,4
 494 710 494 710 592 625 c 0,5,6
 608 612 608 612 608 635 c 2,7,-1
 608 685 l 2,8,9
 608 700 608 700 623 700 c 256,10,11
 638 700 638 700 638 685 c 2,12,-1
 638 495 l 2,13,14
 638 480 638 480 623 480 c 256,15,16
 608 480 608 480 608 495 c 2,17,-1
 608 565 l 1,18,19
 581 596 581 596 545 622 c 0,20,21
 463 680 463 680 373 680 c 0,22,23
 250 680 250 680 169 585.5 c 128,-1,24
 88 491 88 491 88 348.5 c 128,-1,25
 88 206 88 206 172 113 c 256,26,27
 256 20 256 20 396 20 c 128,-1,28
 536 20 536 20 622 111 c 0,29,30
 632 121 632 121 640 113 c 128,-1,31
 648 105 648 105 648 100 c 128,-1,32
 648 95 648 95 643 90 c 0,33,34
 541 -10 541 -10 391.5 -10 c 128,-1,35
 242 -10 242 -10 150 92 c 128,-1,36
 58 194 58 194 58 350 c 256,0,1
EndSplineSet
EndChar

StartChar: D
Encoding: 68 68 39
Width: 734
GlyphClass: 2
Flags: W
LayerCount: 2
Fore
SplineSet
46 15 m 128,-1,1
 46 30 46 30 61 30 c 2,2,-1
 131 30 l 2,3,4
 146 30 146 30 146 45 c 2,5,-1
 146 655 l 2,6,7
 146 670 146 670 131 670 c 2,8,-1
 61 670 l 2,9,10
 46 670 46 670 46 685 c 128,-1,11
 46 700 46 700 61 700 c 2,12,-1
 341 700 l 2,13,14
 492 700 492 700 584 600 c 128,-1,15
 676 500 676 500 676 350 c 128,-1,16
 676 200 676 200 584 100 c 128,-1,17
 492 0 492 0 341 0 c 2,18,-1
 61 0 l 2,19,0
 46 0 46 0 46 15 c 128,-1,1
176 45 m 2,20,21
 176 30 176 30 191 30 c 2,22,-1
 341 30 l 2,23,24
 477 30 477 30 561.5 121 c 128,-1,25
 646 212 646 212 646 350 c 128,-1,26
 646 488 646 488 561.5 579 c 128,-1,27
 477 670 477 670 341 670 c 2,28,-1
 191 670 l 2,29,30
 176 670 176 670 176 655 c 2,31,-1
 176 45 l 2,20,21
EndSplineSet
EndChar

StartChar: E
Encoding: 69 69 40
Width: 614
GlyphClass: 2
Flags: W
LayerCount: 2
Fore
SplineSet
46 15 m 128,-1,1
 46 30 46 30 61 30 c 2,2,-1
 131 30 l 2,3,4
 146 30 146 30 146 45 c 2,5,-1
 146 655 l 2,6,7
 146 670 146 670 131 670 c 2,8,-1
 61 670 l 2,9,10
 46 670 46 670 46 685 c 128,-1,11
 46 700 46 700 61 700 c 2,12,-1
 536 700 l 2,13,14
 551 700 551 700 551 685 c 2,15,-1
 551 545 l 2,16,17
 551 530 551 530 536 530 c 128,-1,18
 521 530 521 530 521 545 c 2,19,-1
 521 655 l 2,20,21
 521 670 521 670 506 670 c 2,22,-1
 191 670 l 2,23,24
 176 670 176 670 176 655 c 2,25,-1
 176 385 l 2,26,27
 176 370 176 370 191 370 c 2,28,-1
 416 370 l 2,29,30
 431 370 431 370 431 385 c 2,31,-1
 431 435 l 2,32,33
 431 450 431 450 446 450 c 128,-1,34
 461 450 461 450 461 435 c 2,35,-1
 461 275 l 2,36,37
 461 260 461 260 446 260 c 128,-1,38
 431 260 431 260 431 275 c 2,39,-1
 431 325 l 2,40,41
 431 340 431 340 416 340 c 2,42,-1
 191 340 l 2,43,44
 176 340 176 340 176 325 c 2,45,-1
 176 45 l 2,46,47
 176 30 176 30 191 30 c 2,48,-1
 516 30 l 2,49,50
 531 30 531 30 531 45 c 2,51,-1
 531 155 l 2,52,53
 531 170 531 170 546 170 c 128,-1,54
 561 170 561 170 561 155 c 2,55,-1
 561 15 l 2,56,57
 561 0 561 0 546 0 c 2,58,-1
 61 0 l 2,59,0
 46 0 46 0 46 15 c 128,-1,1
EndSplineSet
EndChar

StartChar: F
Encoding: 70 70 41
Width: 586
GlyphClass: 2
Flags: W
LayerCount: 2
Fore
SplineSet
61 30 m 2,0,-1
 131 30 l 2,1,2
 146 30 146 30 146 45 c 2,3,-1
 146 655 l 2,4,5
 146 670 146 670 131 670 c 2,6,-1
 61 670 l 2,7,8
 46 670 46 670 46 685 c 128,-1,9
 46 700 46 700 61 700 c 2,10,-1
 536 700 l 2,11,12
 551 700 551 700 551 685 c 2,13,-1
 551 545 l 2,14,15
 551 530 551 530 536 530 c 128,-1,16
 521 530 521 530 521 545 c 2,17,-1
 521 655 l 2,18,19
 521 670 521 670 506 670 c 2,20,-1
 191 670 l 2,21,22
 176 670 176 670 176 655 c 2,23,-1
 176 385 l 2,24,25
 176 370 176 370 191 370 c 2,26,-1
 426 370 l 2,27,28
 441 370 441 370 441 385 c 2,29,-1
 441 435 l 2,30,31
 441 450 441 450 456 450 c 128,-1,32
 471 450 471 450 471 435 c 2,33,-1
 471 275 l 2,34,35
 471 260 471 260 456 260 c 128,-1,36
 441 260 441 260 441 275 c 2,37,-1
 441 325 l 2,38,39
 441 340 441 340 426 340 c 2,40,-1
 191 340 l 2,41,42
 176 340 176 340 176 325 c 2,43,-1
 176 45 l 2,44,45
 176 30 176 30 191 30 c 2,46,-1
 271 30 l 2,47,48
 286 30 286 30 286 15 c 128,-1,49
 286 0 286 0 271 0 c 2,50,-1
 61 0 l 2,51,52
 46 0 46 0 46 15 c 128,-1,53
 46 30 46 30 61 30 c 2,0,-1
EndSplineSet
EndChar

StartChar: G
Encoding: 71 71 42
Width: 764
GlyphClass: 2
Flags: W
LayerCount: 2
Fore
SplineSet
170.5 113.5 m 128,-1,1
 253 20 253 20 379 20 c 128,-1,2
 505 20 505 20 608 135 c 1,3,-1
 608 325 l 2,4,5
 608 340 608 340 593 340 c 2,6,-1
 533 340 l 2,7,8
 518 340 518 340 518 355 c 128,-1,9
 518 370 518 370 533 370 c 2,10,-1
 723 370 l 2,11,12
 738 370 738 370 738 355 c 128,-1,13
 738 340 738 340 723 340 c 2,14,-1
 653 340 l 2,15,16
 638 340 638 340 638 325 c 2,17,-1
 638 15 l 2,18,19
 638 0 638 0 623 0 c 128,-1,20
 608 0 608 0 608 15 c 2,21,-1
 608 65 l 2,22,23
 608 89 608 89 592 75 c 0,24,25
 493 -10 493 -10 383 -10 c 0,26,27
 238 -10 238 -10 148 92 c 128,-1,28
 58 194 58 194 58 349.5 c 128,-1,29
 58 505 58 505 146.5 607.5 c 128,-1,30
 235 710 235 710 373 710 c 0,31,32
 493 710 493 710 592 625 c 0,33,34
 608 611 608 611 608 635 c 2,35,-1
 608 685 l 2,36,37
 608 700 608 700 623 700 c 128,-1,38
 638 700 638 700 638 685 c 2,39,-1
 638 495 l 2,40,41
 638 480 638 480 623 480 c 128,-1,42
 608 480 608 480 608 495 c 2,43,-1
 608 565 l 1,44,45
 581 596 581 596 545 622 c 0,46,47
 463 680 463 680 373 680 c 0,48,49
 250 680 250 680 169 586 c 128,-1,50
 88 492 88 492 88 349.5 c 128,-1,0
 88 207 88 207 170.5 113.5 c 128,-1,1
EndSplineSet
EndChar

StartChar: H
Encoding: 72 72 43
Width: 782
GlyphClass: 2
Flags: W
LayerCount: 2
Fore
SplineSet
606 655 m 2,0,1
 606 670 606 670 591 670 c 2,2,-1
 531 670 l 2,3,4
 516 670 516 670 516 685 c 256,5,6
 516 700 516 700 531 700 c 2,7,-1
 721 700 l 2,8,9
 736 700 736 700 736 685 c 256,10,11
 736 670 736 670 721 670 c 2,12,-1
 651 670 l 2,13,14
 636 670 636 670 636 655 c 2,15,-1
 636 45 l 2,16,17
 636 30 636 30 651 30 c 2,18,-1
 721 30 l 2,19,20
 736 30 736 30 736 15 c 256,21,22
 736 0 736 0 721 0 c 2,23,-1
 531 0 l 2,24,25
 516 0 516 0 516 15 c 256,26,27
 516 30 516 30 531 30 c 2,28,-1
 591 30 l 2,29,30
 606 30 606 30 606 45 c 2,31,-1
 606 325 l 2,32,33
 606 340 606 340 591 340 c 2,34,-1
 191 340 l 2,35,36
 176 340 176 340 176 325 c 2,37,-1
 176 45 l 2,38,39
 176 30 176 30 191 30 c 2,40,-1
 251 30 l 2,41,42
 266 30 266 30 266 15 c 256,43,44
 266 0 266 0 251 0 c 2,45,-1
 61 0 l 2,46,47
 46 0 46 0 46 15 c 256,48,49
 46 30 46 30 61 30 c 2,50,-1
 131 30 l 2,51,52
 146 30 146 30 146 45 c 2,53,-1
 146 655 l 2,54,55
 146 670 146 670 131 670 c 2,56,-1
 61 670 l 2,57,58
 46 670 46 670 46 685 c 256,59,60
 46 700 46 700 61 700 c 2,61,-1
 251 700 l 2,62,63
 266 700 266 700 266 685 c 256,64,65
 266 670 266 670 251 670 c 2,66,-1
 191 670 l 2,67,68
 176 670 176 670 176 655 c 2,69,-1
 176 385 l 2,70,71
 176 370 176 370 191 370 c 2,72,-1
 591 370 l 2,73,74
 606 370 606 370 606 385 c 2,75,-1
 606 655 l 2,0,1
EndSplineSet
EndChar

StartChar: I
Encoding: 73 73 44
Width: 322
GlyphClass: 2
Flags: W
LayerCount: 2
Fore
SplineSet
46 15 m 128,-1,1
 46 30 46 30 61 30 c 2,2,-1
 131 30 l 2,3,4
 146 30 146 30 146 45 c 2,5,-1
 146 655 l 2,6,7
 146 670 146 670 131 670 c 2,8,-1
 61 670 l 2,9,10
 46 670 46 670 46 685 c 128,-1,11
 46 700 46 700 61 700 c 2,12,-1
 261 700 l 2,13,14
 276 700 276 700 276 685 c 128,-1,15
 276 670 276 670 261 670 c 2,16,-1
 191 670 l 2,17,18
 176 670 176 670 176 655 c 2,19,-1
 176 45 l 2,20,21
 176 30 176 30 191 30 c 2,22,-1
 261 30 l 2,23,24
 276 30 276 30 276 15 c 128,-1,25
 276 0 276 0 261 0 c 2,26,-1
 61 0 l 2,27,0
 46 0 46 0 46 15 c 128,-1,1
EndSplineSet
EndChar

StartChar: J
Encoding: 74 74 45
Width: 505
GlyphClass: 2
Flags: W
LayerCount: 2
Fore
SplineSet
111 41 m 128,-1,1
 145 20 145 20 202.5 20 c 128,-1,2
 260 20 260 20 302 63 c 128,-1,3
 344 106 344 106 344 185 c 2,4,-1
 344 655 l 2,5,6
 344 670 344 670 329 670 c 2,7,-1
 259 670 l 2,8,9
 244 670 244 670 244 685 c 256,10,11
 244 700 244 700 259 700 c 2,12,-1
 459 700 l 2,13,14
 474 700 474 700 474 685 c 256,15,16
 474 670 474 670 459 670 c 2,17,-1
 389 670 l 2,18,19
 374 670 374 670 374 655 c 2,20,-1
 374 185 l 2,21,22
 374 92 374 92 324.5 41 c 128,-1,23
 275 -10 275 -10 194 -10 c 0,24,25
 137 -10 137 -10 91.5 17 c 128,-1,26
 46 44 46 44 20 86 c 0,27,28
 17 90 17 90 17 95 c 128,-1,29
 17 100 17 100 28 106 c 0,30,31
 38 112 38 112 48 99 c 0,32,0
 77 62 77 62 111 41 c 128,-1,1
EndSplineSet
EndChar

StartChar: K
Encoding: 75 75 46
Width: 696
GlyphClass: 2
Flags: W
LayerCount: 2
Fore
SplineSet
61 30 m 2,0,-1
 131 30 l 2,1,2
 146 30 146 30 146 45 c 2,3,-1
 146 655 l 2,4,5
 146 670 146 670 131 670 c 2,6,-1
 61 670 l 2,7,8
 46 670 46 670 46 685 c 128,-1,9
 46 700 46 700 61 700 c 2,10,-1
 251 700 l 2,11,12
 266 700 266 700 266 685 c 128,-1,13
 266 670 266 670 251 670 c 2,14,-1
 191 670 l 2,15,16
 176 670 176 670 176 655 c 2,17,-1
 176 285 l 1,18,-1
 516 655 l 1,19,20
 522 660 522 660 520.5 665 c 128,-1,21
 519 670 519 670 511 670 c 2,22,-1
 446 670 l 2,23,24
 431 670 431 670 431 685 c 128,-1,25
 431 700 431 700 446 700 c 2,26,-1
 651 700 l 2,27,28
 666 700 666 700 666 685 c 128,-1,29
 666 670 666 670 651 670 c 2,30,-1
 587 670 l 2,31,32
 576 670 576 670 561 655 c 2,33,-1
 330 404 l 1,34,-1
 591 45 l 1,35,36
 604 30 604 30 616 30 c 2,37,-1
 681 30 l 2,38,39
 696 30 696 30 696 15 c 128,-1,40
 696 0 696 0 681 0 c 2,41,-1
 481 0 l 2,42,43
 466 0 466 0 466 15 c 128,-1,44
 466 30 466 30 481 30 c 2,45,-1
 546 30 l 2,46,47
 564 30 564 30 551 45 c 1,48,-1
 308 380 l 1,49,-1
 176 236 l 1,50,-1
 176 45 l 2,51,52
 176 30 176 30 191 30 c 2,53,-1
 251 30 l 2,54,55
 266 30 266 30 266 15 c 128,-1,56
 266 0 266 0 251 0 c 2,57,-1
 61 0 l 2,58,59
 46 0 46 0 46 15 c 128,-1,60
 46 30 46 30 61 30 c 2,0,-1
EndSplineSet
EndChar

StartChar: L
Encoding: 76 76 47
Width: 578
GlyphClass: 2
Flags: W
LayerCount: 2
Fore
SplineSet
46 15 m 128,-1,1
 46 30 46 30 61 30 c 2,2,-1
 131 30 l 2,3,4
 146 30 146 30 146 45 c 2,5,-1
 146 655 l 2,6,7
 146 670 146 670 131 670 c 2,8,-1
 61 670 l 2,9,10
 46 670 46 670 46 685 c 128,-1,11
 46 700 46 700 61 700 c 2,12,-1
 281 700 l 2,13,14
 296 700 296 700 296 685 c 128,-1,15
 296 670 296 670 281 670 c 2,16,-1
 191 670 l 2,17,18
 176 670 176 670 176 655 c 2,19,-1
 176 45 l 2,20,21
 176 30 176 30 191 30 c 2,22,-1
 511 30 l 2,23,24
 526 30 526 30 526 45 c 2,25,-1
 526 155 l 2,26,27
 526 170 526 170 541 170 c 128,-1,28
 556 170 556 170 556 155 c 2,29,-1
 556 15 l 2,30,31
 556 0 556 0 541 0 c 2,32,-1
 61 0 l 2,33,0
 46 0 46 0 46 15 c 128,-1,1
EndSplineSet
EndChar

StartChar: M
Encoding: 77 77 48
Width: 972
GlyphClass: 2
Flags: W
LayerCount: 2
Fore
SplineSet
61 30 m 2,0,-1
 131 30 l 2,1,2
 146 30 146 30 146 45 c 2,3,-1
 146 655 l 2,4,5
 146 670 146 670 131 670 c 2,6,-1
 61 670 l 2,7,8
 46 670 46 670 46 685 c 128,-1,9
 46 700 46 700 61 700 c 2,10,-1
 171 700 l 2,11,12
 189 700 189 700 196 685 c 2,13,-1
 476 65 l 2,14,15
 486 45 486 45 496 65 c 2,16,-1
 776 685 l 2,17,18
 783 700 783 700 801 700 c 2,19,-1
 911 700 l 2,20,21
 926 700 926 700 926 685 c 128,-1,22
 926 670 926 670 911 670 c 2,23,-1
 841 670 l 2,24,25
 826 670 826 670 826 655 c 2,26,-1
 826 45 l 2,27,28
 826 30 826 30 841 30 c 2,29,-1
 911 30 l 2,30,31
 926 30 926 30 926 15 c 128,-1,32
 926 0 926 0 911 0 c 2,33,-1
 721 0 l 2,34,35
 706 0 706 0 706 15 c 128,-1,36
 706 30 706 30 721 30 c 2,37,-1
 781 30 l 2,38,39
 796 30 796 30 796 45 c 2,40,-1
 796 630 l 2,41,42
 796 640 796 640 792 638 c 0,43,44
 790 638 790 638 788 635 c 2,45,-1
 508 15 l 1,46,47
 500 0 500 0 486 0 c 128,-1,48
 472 0 472 0 464 15 c 1,49,-1
 184 635 l 1,50,51
 180 641 180 641 178 638 c 128,-1,52
 176 635 176 635 176 630 c 2,53,-1
 176 45 l 2,54,55
 176 30 176 30 191 30 c 2,56,-1
 251 30 l 2,57,58
 266 30 266 30 266 15 c 128,-1,59
 266 0 266 0 251 0 c 2,60,-1
 61 0 l 2,61,62
 46 0 46 0 46 15 c 128,-1,63
 46 30 46 30 61 30 c 2,0,-1
EndSplineSet
EndChar

StartChar: N
Encoding: 78 78 49
Width: 785
GlyphClass: 2
Flags: W
LayerCount: 2
Fore
SplineSet
61 30 m 2,0,-1
 131 30 l 2,1,2
 146 30 146 30 146 45 c 2,3,-1
 146 655 l 2,4,5
 146 670 146 670 131 670 c 2,6,-1
 61 670 l 2,7,8
 46 670 46 670 46 685 c 128,-1,9
 46 700 46 700 61 700 c 2,10,-1
 171 700 l 2,11,12
 187 700 187 700 196 685 c 2,13,-1
 606 60 l 2,14,15
 608 56 608 56 612 56.5 c 128,-1,16
 616 57 616 57 616 65 c 2,17,-1
 616 655 l 2,18,19
 616 670 616 670 601 670 c 2,20,-1
 541 670 l 2,21,22
 526 670 526 670 526 685 c 128,-1,23
 526 700 526 700 541 700 c 2,24,-1
 731 700 l 2,25,26
 746 700 746 700 746 685 c 128,-1,27
 746 670 746 670 731 670 c 2,28,-1
 661 670 l 2,29,30
 646 670 646 670 646 655 c 2,31,-1
 646 45 l 2,32,33
 646 30 646 30 661 30 c 2,34,-1
 731 30 l 2,35,36
 746 30 746 30 746 15 c 128,-1,37
 746 0 746 0 731 0 c 2,38,-1
 621 0 l 2,39,40
 605 0 605 0 596 15 c 2,41,-1
 186 640 l 2,42,43
 184 644 184 644 180 643.5 c 128,-1,44
 176 643 176 643 176 635 c 2,45,-1
 176 45 l 2,46,47
 176 30 176 30 191 30 c 2,48,-1
 251 30 l 2,49,50
 266 30 266 30 266 15 c 128,-1,51
 266 0 266 0 251 0 c 2,52,-1
 61 0 l 2,53,54
 46 0 46 0 46 15 c 128,-1,55
 46 30 46 30 61 30 c 2,0,-1
EndSplineSet
EndChar

StartChar: O
Encoding: 79 79 50
Width: 786
GlyphClass: 2
Flags: W
LayerCount: 2
Fore
SplineSet
58 350 m 128,-1,1
 58 507 58 507 150 608.5 c 128,-1,2
 242 710 242 710 393 710 c 128,-1,3
 544 710 544 710 636 608.5 c 128,-1,4
 728 507 728 507 728 350 c 128,-1,5
 728 193 728 193 636 91.5 c 128,-1,6
 544 -10 544 -10 393 -10 c 128,-1,7
 242 -10 242 -10 150 91.5 c 128,-1,0
 58 193 58 193 58 350 c 128,-1,1
88 350 m 128,-1,9
 88 206 88 206 172 113 c 128,-1,10
 256 20 256 20 393 20 c 128,-1,11
 530 20 530 20 614 113 c 128,-1,12
 698 206 698 206 698 350 c 128,-1,13
 698 494 698 494 614 587 c 128,-1,14
 530 680 530 680 393 680 c 128,-1,15
 256 680 256 680 172 587 c 128,-1,8
 88 494 88 494 88 350 c 128,-1,9
EndSplineSet
EndChar

StartChar: P
Encoding: 80 80 51
Width: 633
GlyphClass: 2
Flags: W
LayerCount: 2
Fore
SplineSet
191 280 m 2,0,1
 176 280 176 280 176 265 c 2,2,-1
 176 45 l 2,3,4
 176 30 176 30 191 30 c 2,5,-1
 271 30 l 2,6,7
 286 30 286 30 286 15 c 256,8,9
 286 0 286 0 271 0 c 2,10,-1
 61 0 l 2,11,12
 46 0 46 0 46 15 c 256,13,14
 46 30 46 30 61 30 c 2,15,-1
 131 30 l 2,16,17
 146 30 146 30 146 45 c 2,18,-1
 146 655 l 2,19,20
 146 670 146 670 131 670 c 2,21,-1
 61 670 l 2,22,23
 46 670 46 670 46 685 c 256,24,25
 46 700 46 700 61 700 c 2,26,-1
 396 700 l 2,27,28
 495 700 495 700 545.5 646.5 c 128,-1,29
 596 593 596 593 596 490 c 256,30,31
 596 387 596 387 545.5 333.5 c 128,-1,32
 495 280 495 280 396 280 c 2,33,-1
 191 280 l 2,0,1
396 310 m 2,34,35
 566 310 566 310 566 490 c 256,36,37
 566 670 566 670 396 670 c 2,38,-1
 191 670 l 2,39,40
 176 670 176 670 176 655 c 2,41,-1
 176 325 l 2,42,43
 176 310 176 310 191 310 c 2,44,-1
 396 310 l 2,34,35
EndSplineSet
EndChar

StartChar: Q
Encoding: 81 81 52
Width: 787
GlyphClass: 2
Flags: W
LayerCount: 2
Fore
SplineSet
493 4 m 1,0,1
 526 -49 526 -49 560 -60 c 1,2,3
 593 -60 593 -60 610.5 -47 c 128,-1,4
 628 -34 628 -34 636.5 -46 c 128,-1,5
 645 -58 645 -58 633.5 -66.5 c 128,-1,6
 622 -75 622 -75 601 -82.5 c 128,-1,7
 580 -90 580 -90 560 -90 c 0,8,9
 495 -90 495 -90 462 -4 c 1,10,11
 430 -10 430 -10 393 -10 c 0,12,13
 242 -10 242 -10 150 91 c 1,14,15
 58 194 58 194 58 350.5 c 128,-1,16
 58 507 58 507 149.5 608.5 c 128,-1,17
 241 710 241 710 392.5 710 c 128,-1,18
 544 710 544 710 636 608.5 c 128,-1,19
 728 507 728 507 728 350 c 0,20,21
 728 221 728 221 665.5 127.5 c 128,-1,22
 603 34 603 34 493 4 c 1,0,1
298 33 m 1,23,24
 327 119 327 119 393 119 c 0,25,26
 428 119 428 119 449.5 96.5 c 128,-1,27
 471 74 471 74 485 32 c 1,28,29
 560 53 560 53 614 113 c 0,30,31
 698 206 698 206 698 350 c 256,32,33
 698 494 698 494 614 587 c 256,34,35
 530 680 530 680 393 680 c 256,36,37
 256 680 256 680 172 587 c 256,38,39
 88 494 88 494 88 350 c 256,40,41
 88 206 88 206 172 113 c 0,42,43
 225 54 225 54 298 33 c 1,23,24
329 25 m 1,44,45
 367 20 367 20 398 20 c 128,-1,46
 429 20 429 20 454 25 c 1,47,48
 436 89 436 89 393 89 c 0,49,50
 347 89 347 89 329 25 c 1,44,45
EndSplineSet
EndChar

StartChar: R
Encoding: 82 82 53
Width: 688
GlyphClass: 2
Flags: W
LayerCount: 2
Fore
SplineSet
396 350 m 2,0,1
 478 350 478 350 522 392 c 128,-1,2
 566 434 566 434 566 510 c 256,3,4
 566 586 566 586 522 628 c 128,-1,5
 478 670 478 670 396 670 c 2,6,-1
 191 670 l 2,7,8
 176 670 176 670 176 655 c 2,9,-1
 176 365 l 2,10,11
 176 350 176 350 191 350 c 2,12,-1
 396 350 l 2,0,1
176 45 m 2,13,14
 176 30 176 30 191 30 c 2,15,-1
 251 30 l 2,16,17
 266 30 266 30 266 15 c 256,18,19
 266 0 266 0 251 0 c 2,20,-1
 61 0 l 2,21,22
 46 0 46 0 46 15 c 256,23,24
 46 30 46 30 61 30 c 2,25,-1
 131 30 l 2,26,27
 146 30 146 30 146 45 c 2,28,-1
 146 655 l 2,29,30
 146 670 146 670 131 670 c 2,31,-1
 61 670 l 2,32,33
 46 670 46 670 46 685 c 256,34,35
 46 700 46 700 61 700 c 2,36,-1
 396 700 l 2,37,38
 493 700 493 700 544.5 650 c 128,-1,39
 596 600 596 600 596 510 c 256,40,41
 596 420 596 420 544.5 370 c 128,-1,42
 493 320 493 320 396 320 c 2,43,-1
 391 320 l 2,44,45
 383 320 383 320 379.5 315.5 c 128,-1,46
 376 311 376 311 381 305 c 2,47,-1
 571 45 l 1,48,49
 584 30 584 30 596 30 c 2,50,-1
 661 30 l 2,51,52
 676 30 676 30 676 15 c 256,53,54
 676 0 676 0 661 0 c 2,55,-1
 461 0 l 2,56,57
 446 0 446 0 446 15 c 256,58,59
 446 30 446 30 461 30 c 2,60,-1
 526 30 l 2,61,62
 544 30 544 30 531 45 c 1,63,-1
 331 320 l 1,64,-1
 191 320 l 2,65,66
 176 320 176 320 176 305 c 2,67,-1
 176 45 l 2,13,14
EndSplineSet
EndChar

StartChar: S
Encoding: 83 83 54
Width: 645
GlyphClass: 2
Flags: W
LayerCount: 2
Fore
SplineSet
164 75 m 0,0,1
 248 20 248 20 348.5 20 c 128,-1,2
 449 20 449 20 504.5 64.5 c 128,-1,3
 560 109 560 109 560 180 c 0,4,5
 560 219 560 219 536 248 c 256,6,7
 512 277 512 277 476 293 c 0,8,9
 436 311 436 311 321 342.5 c 128,-1,10
 206 374 206 374 162.5 395.5 c 128,-1,11
 119 417 119 417 94.5 450 c 128,-1,12
 70 483 70 483 70 526 c 0,13,14
 70 610 70 610 125 660 c 128,-1,15
 180 710 180 710 300 710 c 0,16,17
 419 710 419 710 519 625 c 0,18,19
 535 612 535 612 535 635 c 2,20,-1
 535 685 l 2,21,22
 535 700 535 700 550 700 c 256,23,24
 565 700 565 700 565 685 c 2,25,-1
 565 495 l 2,26,27
 565 480 565 480 550 480 c 256,28,29
 535 480 535 480 535 495 c 2,30,-1
 535 565 l 1,31,32
 480 628 480 628 398 662 c 0,33,34
 354 680 354 680 300 680 c 0,35,36
 198 680 198 680 149 638 c 128,-1,37
 100 596 100 596 100 535 c 0,38,39
 100 496 100 496 124 467 c 256,40,41
 148 438 148 438 184 422 c 0,42,43
 224 404 224 404 339 372.5 c 128,-1,44
 454 341 454 341 497.5 319.5 c 128,-1,45
 541 298 541 298 565.5 265 c 128,-1,46
 590 232 590 232 590 186 c 0,47,48
 590 96 590 96 527 43 c 128,-1,49
 464 -10 464 -10 340 -10 c 128,-1,50
 216 -10 216 -10 116 75 c 0,51,52
 100 88 100 88 100 65 c 2,53,-1
 100 15 l 2,54,55
 100 0 100 0 85 0 c 256,56,57
 70 0 70 0 70 15 c 2,58,-1
 70 205 l 2,59,60
 70 220 70 220 85 220 c 256,61,62
 100 220 100 220 100 205 c 2,63,-1
 100 130 l 1,64,65
 127 99 127 99 164 75 c 0,0,1
EndSplineSet
EndChar

StartChar: T
Encoding: 84 84 55
Width: 618
GlyphClass: 2
Flags: W
LayerCount: 2
Fore
SplineSet
26 540 m 2,0,-1
 26 685 l 2,1,2
 26 700 26 700 41 700 c 2,3,-1
 581 700 l 2,4,5
 596 700 596 700 596 685 c 2,6,-1
 596 540 l 2,7,8
 596 525 596 525 581 525 c 128,-1,9
 566 525 566 525 566 540 c 2,10,-1
 566 655 l 2,11,12
 566 670 566 670 551 670 c 2,13,-1
 341 670 l 2,14,15
 326 670 326 670 326 655 c 2,16,-1
 326 45 l 2,17,18
 326 30 326 30 341 30 c 2,19,-1
 411 30 l 2,20,21
 426 30 426 30 426 15 c 128,-1,22
 426 0 426 0 411 0 c 2,23,-1
 211 0 l 2,24,25
 196 0 196 0 196 15 c 128,-1,26
 196 30 196 30 211 30 c 2,27,-1
 281 30 l 2,28,29
 296 30 296 30 296 45 c 2,30,-1
 296 655 l 2,31,32
 296 670 296 670 281 670 c 2,33,-1
 71 670 l 2,34,35
 56 670 56 670 56 655 c 2,36,-1
 56 540 l 2,37,38
 56 525 56 525 41 525 c 128,-1,39
 26 525 26 525 26 540 c 2,0,-1
EndSplineSet
EndChar

StartChar: U
Encoding: 85 85 56
Width: 776
GlyphClass: 2
Flags: W
LayerCount: 2
Fore
SplineSet
43 700 m 2,0,-1
 233 700 l 2,1,2
 248 700 248 700 248 685 c 128,-1,3
 248 670 248 670 233 670 c 2,4,-1
 173 670 l 2,5,6
 158 670 158 670 158 655 c 2,7,-1
 158 250 l 2,8,9
 158 146 158 146 223 83 c 128,-1,10
 288 20 288 20 388 20 c 128,-1,11
 488 20 488 20 553 83 c 128,-1,12
 618 146 618 146 618 250 c 2,13,-1
 618 655 l 2,14,15
 618 670 618 670 603 670 c 2,16,-1
 543 670 l 2,17,18
 528 670 528 670 528 685 c 128,-1,19
 528 700 528 700 543 700 c 2,20,-1
 733 700 l 2,21,22
 748 700 748 700 748 685 c 128,-1,23
 748 670 748 670 733 670 c 2,24,-1
 663 670 l 2,25,26
 648 670 648 670 648 655 c 2,27,-1
 648 250 l 2,28,29
 648 135 648 135 574.5 62.5 c 128,-1,30
 501 -10 501 -10 388 -10 c 128,-1,31
 275 -10 275 -10 201.5 62.5 c 128,-1,32
 128 135 128 135 128 250 c 2,33,-1
 128 655 l 2,34,35
 128 670 128 670 113 670 c 2,36,-1
 43 670 l 2,37,38
 28 670 28 670 28 685 c 128,-1,39
 28 700 28 700 43 700 c 2,0,-1
EndSplineSet
EndChar

StartChar: V
Encoding: 86 86 57
Width: 724
GlyphClass: 2
Flags: W
LayerCount: 2
Fore
SplineSet
5 700 m 2,0,-1
 195 700 l 2,1,2
 210 700 210 700 210 685 c 128,-1,3
 210 670 210 670 195 670 c 2,4,-1
 135 670 l 2,5,6
 118 670 118 670 125 655 c 1,7,-1
 356 55 l 2,8,9
 358 49 358 49 362 49 c 128,-1,10
 366 49 366 49 368 55 c 2,11,-1
 599 655 l 1,12,13
 606 670 606 670 589 670 c 2,14,-1
 529 670 l 2,15,16
 514 670 514 670 514 685 c 128,-1,17
 514 700 514 700 529 700 c 2,18,-1
 719 700 l 2,19,20
 734 700 734 700 734 685 c 128,-1,21
 734 670 734 670 719 670 c 2,22,-1
 654 670 l 2,23,24
 642 670 642 670 634 655 c 1,25,-1
 384 5 l 1,26,27
 380 -10 380 -10 362 -10 c 128,-1,28
 344 -10 344 -10 340 5 c 1,29,-1
 90 655 l 1,30,31
 82 670 82 670 70 670 c 2,32,-1
 5 670 l 2,33,34
 -10 670 -10 670 -10 685 c 128,-1,35
 -10 700 -10 700 5 700 c 2,0,-1
EndSplineSet
EndChar

StartChar: W
Encoding: 87 87 58
Width: 1013
GlyphClass: 2
Flags: W
LayerCount: 2
Fore
SplineSet
5 700 m 2,0,-1
 195 700 l 2,1,2
 210 700 210 700 210 685 c 128,-1,3
 210 670 210 670 195 670 c 2,4,-1
 135 670 l 2,5,6
 118 670 118 670 125 655 c 1,7,-1
 304 77 l 2,8,9
 306 71 306 71 310 71 c 128,-1,10
 314 71 314 71 316 77 c 2,11,-1
 487 685 l 2,12,13
 492 700 492 700 507 700 c 128,-1,14
 522 700 522 700 527 685 c 2,15,-1
 697 77 l 2,16,17
 699 71 699 71 703 71 c 128,-1,18
 707 71 707 71 709 77 c 2,19,-1
 888 655 l 1,20,21
 896 670 896 670 878 670 c 2,22,-1
 818 670 l 2,23,24
 803 670 803 670 803 685 c 128,-1,25
 803 700 803 700 818 700 c 2,26,-1
 1008 700 l 2,27,28
 1023 700 1023 700 1023 685 c 128,-1,29
 1023 670 1023 670 1008 670 c 2,30,-1
 943 670 l 2,31,32
 928 670 928 670 923 655 c 2,33,-1
 722 5 l 2,34,35
 718 -10 718 -10 703 -10 c 128,-1,36
 688 -10 688 -10 684 5 c 2,37,-1
 513 615 l 2,38,39
 511 621 511 621 506 621 c 128,-1,40
 501 621 501 621 499 615 c 2,41,-1
 329 5 l 2,42,43
 324 -10 324 -10 310 -10 c 128,-1,44
 296 -10 296 -10 291 5 c 2,45,-1
 90 655 l 2,46,47
 86 670 86 670 70 670 c 2,48,-1
 5 670 l 2,49,50
 -10 670 -10 670 -10 685 c 128,-1,51
 -10 700 -10 700 5 700 c 2,0,-1
EndSplineSet
EndChar

StartChar: X
Encoding: 88 88 59
Width: 661
GlyphClass: 2
Flags: W
LayerCount: 2
Fore
SplineSet
22 30 m 2,0,-1
 82 30 l 2,1,2
 98 30 98 30 107 45 c 2,3,-1
 307 348 l 2,4,5
 313 357 313 357 307 366 c 2,6,-1
 117 655 l 2,7,8
 108 670 108 670 92 670 c 2,9,-1
 32 670 l 2,10,11
 17 670 17 670 17 685 c 128,-1,12
 17 700 17 700 32 700 c 2,13,-1
 222 700 l 2,14,15
 237 700 237 700 237 685 c 128,-1,16
 237 670 237 670 222 670 c 2,17,-1
 162 670 l 2,18,19
 154 670 154 670 151 665.5 c 128,-1,20
 148 661 148 661 152 655 c 2,21,-1
 323 395 l 2,22,23
 330 385 330 385 337 395 c 2,24,-1
 509 655 l 2,25,26
 513 661 513 661 510 665.5 c 128,-1,27
 507 670 507 670 499 670 c 2,28,-1
 439 670 l 2,29,30
 424 670 424 670 424 685 c 128,-1,31
 424 700 424 700 439 700 c 2,32,-1
 629 700 l 2,33,34
 644 700 644 700 644 685 c 128,-1,35
 644 670 644 670 629 670 c 2,36,-1
 569 670 l 2,37,38
 553 670 553 670 544 655 c 2,39,-1
 354 366 l 2,40,41
 348 357 348 357 354 348 c 2,42,-1
 554 45 l 2,43,44
 563 30 563 30 579 30 c 2,45,-1
 639 30 l 2,46,47
 654 30 654 30 654 15 c 128,-1,48
 654 0 654 0 639 0 c 2,49,-1
 449 0 l 2,50,51
 434 0 434 0 434 15 c 128,-1,52
 434 30 434 30 449 30 c 2,53,-1
 509 30 l 2,54,55
 517 30 517 30 520 34.5 c 128,-1,56
 523 39 523 39 519 45 c 2,57,-1
 337 320 l 2,58,59
 330 330 330 330 323 320 c 2,60,-1
 142 45 l 2,61,62
 138 39 138 39 141 34.5 c 128,-1,63
 144 30 144 30 152 30 c 2,64,-1
 212 30 l 2,65,66
 227 30 227 30 227 15 c 128,-1,67
 227 0 227 0 212 0 c 2,68,-1
 22 0 l 2,69,70
 7 0 7 0 7 15 c 128,-1,71
 7 30 7 30 22 30 c 2,0,-1
EndSplineSet
EndChar

StartChar: Y
Encoding: 89 89 60
Width: 627
GlyphClass: 2
Flags: W
LayerCount: 2
Fore
SplineSet
5 700 m 2,0,-1
 195 700 l 2,1,2
 210 700 210 700 210 685 c 128,-1,3
 210 670 210 670 195 670 c 2,4,-1
 135 670 l 2,5,6
 127 670 127 670 124 665.5 c 128,-1,7
 121 661 121 661 125 655 c 2,8,-1
 306 339 l 1,9,10
 313 329 313 329 320 339 c 1,11,-1
 502 655 l 2,12,13
 506 661 506 661 503 665.5 c 128,-1,14
 500 670 500 670 492 670 c 2,15,-1
 432 670 l 2,16,17
 417 670 417 670 417 685 c 128,-1,18
 417 700 417 700 432 700 c 2,19,-1
 622 700 l 2,20,21
 637 700 637 700 637 685 c 128,-1,22
 637 670 637 670 622 670 c 2,23,-1
 562 670 l 2,24,25
 546 670 546 670 537 655 c 2,26,-1
 329 294 l 1,27,-1
 329 45 l 2,28,29
 329 30 329 30 344 30 c 2,30,-1
 414 30 l 2,31,32
 429 30 429 30 429 15 c 128,-1,33
 429 0 429 0 414 0 c 2,34,-1
 214 0 l 2,35,36
 199 0 199 0 199 15 c 128,-1,37
 199 30 199 30 214 30 c 2,38,-1
 284 30 l 2,39,40
 299 30 299 30 299 45 c 2,41,-1
 299 292 l 1,42,-1
 90 655 l 2,43,44
 81 670 81 670 65 670 c 2,45,-1
 5 670 l 2,46,47
 -10 670 -10 670 -10 685 c 128,-1,48
 -10 700 -10 700 5 700 c 2,0,-1
EndSplineSet
EndChar

StartChar: Z
Encoding: 90 90 61
Width: 615
GlyphClass: 2
Flags: W
LayerCount: 2
Fore
SplineSet
50 17 m 0,0,1
 50 21 50 21 62 40 c 1,2,-1
 511 654 l 1,3,4
 517 660 517 660 514 665 c 128,-1,5
 511 670 511 670 500 670 c 2,6,-1
 100 670 l 2,7,8
 85 670 85 670 85 655 c 2,9,-1
 85 545 l 2,10,11
 85 530 85 530 70 530 c 128,-1,12
 55 530 55 530 55 545 c 2,13,-1
 55 685 l 2,14,15
 55 700 55 700 70 700 c 2,16,-1
 550 700 l 2,17,18
 565 700 565 700 565 683 c 0,19,20
 565 679 565 679 553 660 c 1,21,-1
 104 46 l 1,22,23
 98 40 98 40 101 35 c 128,-1,24
 104 30 104 30 115 30 c 2,25,-1
 515 30 l 2,26,27
 530 30 530 30 530 45 c 2,28,-1
 530 155 l 2,29,30
 530 170 530 170 545 170 c 128,-1,31
 560 170 560 170 560 155 c 2,32,-1
 560 15 l 2,33,34
 560 0 560 0 545 0 c 2,35,-1
 65 0 l 2,36,37
 50 0 50 0 50 17 c 0,0,1
EndSplineSet
EndChar

StartChar: bracketleft
Encoding: 91 91 62
Width: 290
GlyphClass: 2
Flags: W
LayerCount: 2
Fore
SplineSet
107 -145 m 2,0,-1
 107 765 l 2,1,2
 107 780 107 780 122 780 c 2,3,-1
 252 780 l 2,4,5
 267 780 267 780 267 765 c 128,-1,6
 267 750 267 750 252 750 c 2,7,-1
 152 750 l 2,8,9
 137 750 137 750 137 735 c 2,10,-1
 137 -115 l 2,11,12
 137 -130 137 -130 152 -130 c 2,13,-1
 252 -130 l 2,14,15
 267 -130 267 -130 267 -145 c 128,-1,16
 267 -160 267 -160 252 -160 c 2,17,-1
 122 -160 l 2,18,19
 107 -160 107 -160 107 -145 c 2,0,-1
EndSplineSet
EndChar

StartChar: backslash
Encoding: 92 92 63
Width: 519
GlyphClass: 2
Flags: W
LayerCount: 2
Fore
SplineSet
31 677 m 1,0,1
 27 681 27 681 27 685 c 0,2,3
 27 691 27 691 35 697 c 0,4,5
 38 699 38 699 44 699 c 128,-1,6
 50 699 50 699 55 692 c 2,7,-1
 488 23 l 2,8,9
 492 18 492 18 492 12 c 128,-1,10
 492 6 492 6 486 4 c 1,11,12
 480 0 480 0 474 0 c 128,-1,13
 468 0 468 0 463 7 c 2,14,-1
 31 677 l 1,0,1
EndSplineSet
EndChar

StartChar: bracketright
Encoding: 93 93 64
Width: 290
GlyphClass: 2
Flags: W
LayerCount: 2
Fore
SplineSet
23 -145 m 128,-1,1
 23 -130 23 -130 38 -130 c 2,2,-1
 138 -130 l 2,3,4
 153 -130 153 -130 153 -115 c 2,5,-1
 153 735 l 2,6,7
 153 750 153 750 138 750 c 2,8,-1
 38 750 l 2,9,10
 23 750 23 750 23 765 c 128,-1,11
 23 780 23 780 38 780 c 2,12,-1
 168 780 l 2,13,14
 183 780 183 780 183 765 c 2,15,-1
 183 -145 l 2,16,17
 183 -160 183 -160 168 -160 c 2,18,-1
 38 -160 l 2,19,0
 23 -160 23 -160 23 -145 c 128,-1,1
EndSplineSet
EndChar

StartChar: asciicircum
Encoding: 94 94 65
Width: 467
GlyphClass: 2
Flags: W
LayerCount: 2
Fore
SplineSet
24 466 m 2,0,-1
 217 729 l 1,1,2
 223 740 223 740 233.5 740 c 128,-1,3
 244 740 244 740 250 729 c 1,4,-1
 443 466 l 2,5,6
 446 462 446 462 446 456.5 c 128,-1,7
 446 451 446 451 440 446.5 c 128,-1,8
 434 442 434 442 428 442 c 128,-1,9
 422 442 422 442 417 450 c 2,10,-1
 243 687 l 2,11,12
 239 693 239 693 233.5 693 c 128,-1,13
 228 693 228 693 224 687 c 2,14,-1
 50 450 l 2,15,16
 45 442 45 442 39 442 c 128,-1,17
 33 442 33 442 27 446.5 c 128,-1,18
 21 451 21 451 21 456.5 c 128,-1,19
 21 462 21 462 24 466 c 2,0,-1
EndSplineSet
EndChar

StartChar: underscore
Encoding: 95 95 66
Width: 708
GlyphClass: 2
Flags: W
LayerCount: 2
Fore
SplineSet
189 -65 m 128,-1,1
 189 -50 189 -50 204 -50 c 2,2,-1
 504 -50 l 2,3,4
 519 -50 519 -50 519 -65 c 128,-1,5
 519 -80 519 -80 504 -80 c 2,6,-1
 204 -80 l 2,7,0
 189 -80 189 -80 189 -65 c 128,-1,1
EndSplineSet
EndChar

StartChar: grave
Encoding: 96 96 67
Width: 242
GlyphClass: 2
Flags: W
LayerCount: 2
Fore
SplineSet
64 695 m 2,0,1
 60 700 60 700 60 706 c 128,-1,2
 60 712 60 712 68 715 c 1,3,4
 72 720 72 720 78 720 c 128,-1,5
 84 720 84 720 89 711 c 1,6,-1
 178 584 l 2,7,8
 182 579 182 579 182 574 c 256,9,10
 182 569 182 569 175 564 c 0,11,12
 170 561 170 561 164 561 c 128,-1,13
 158 561 158 561 154 567 c 2,14,-1
 64 695 l 2,0,1
EndSplineSet
EndChar

StartChar: a
Encoding: 97 97 68
Width: 572
GlyphClass: 2
Flags: W
LayerCount: 2
Fore
SplineSet
421 245 m 2,0,1
 421 260 421 260 406 260 c 2,2,-1
 241 260 l 2,3,4
 154 260 154 260 112.5 226 c 128,-1,5
 71 192 71 192 71 139.5 c 128,-1,6
 71 87 71 87 109.5 53.5 c 128,-1,7
 148 20 148 20 226 20 c 0,8,9
 323 20 323 20 397 118 c 0,10,11
 410 135 410 135 421 155 c 1,12,-1
 421 245 l 2,0,1
265 510 m 0,13,14
 349 510 349 510 400 462.5 c 128,-1,15
 451 415 451 415 451 345 c 2,16,-1
 451 45 l 2,17,18
 451 30 451 30 466 30 c 2,19,-1
 536 30 l 2,20,21
 551 30 551 30 551 15 c 256,22,23
 551 0 551 0 536 0 c 2,24,-1
 436 0 l 2,25,26
 421 0 421 0 421 15 c 2,27,-1
 421 71 l 2,28,29
 421 81 421 81 417 85 c 128,-1,30
 413 89 413 89 405 81 c 1,31,32
 378 47 378 47 330 18.5 c 128,-1,33
 282 -10 282 -10 230 -10 c 0,34,35
 137 -10 137 -10 89 31.5 c 128,-1,36
 41 73 41 73 41 139 c 128,-1,37
 41 205 41 205 96 247.5 c 128,-1,38
 151 290 151 290 241 290 c 2,39,-1
 406 290 l 2,40,41
 421 290 421 290 421 305 c 2,42,-1
 421 345 l 2,43,44
 421 403 421 403 377 441.5 c 128,-1,45
 333 480 333 480 269 480 c 128,-1,46
 205 480 205 480 164 462.5 c 128,-1,47
 123 445 123 445 106.5 432 c 128,-1,48
 90 419 90 419 81.5 431 c 128,-1,49
 73 443 73 443 84 451 c 0,50,51
 156 510 156 510 265 510 c 0,13,14
EndSplineSet
EndChar

StartChar: b
Encoding: 98 98 69
Width: 599
GlyphClass: 2
Flags: W
LayerCount: 2
Fore
SplineSet
126 155 m 1,0,1
 149 115 149 115 177 87 c 0,2,3
 244 20 244 20 327.5 20 c 128,-1,4
 411 20 411 20 463.5 80.5 c 128,-1,5
 516 141 516 141 516 249.5 c 128,-1,6
 516 358 516 358 453 414 c 128,-1,7
 390 470 390 470 276 470 c 2,8,-1
 141 470 l 2,9,10
 126 470 126 470 126 455 c 2,11,-1
 126 155 l 1,0,1
126 515 m 2,12,13
 126 500 126 500 141 500 c 2,14,-1
 276 500 l 2,15,16
 403 500 403 500 474 435 c 0,17,18
 546 370 546 370 546 249 c 0,19,20
 546 129 546 129 486 59.5 c 128,-1,21
 426 -10 426 -10 326 -10 c 0,22,23
 264 -10 264 -10 214 19 c 1,24,25
 167 49 167 49 142 81 c 1,26,27
 134 89 134 89 130 85 c 128,-1,28
 126 81 126 81 126 71 c 2,29,-1
 126 15 l 2,30,31
 126 0 126 0 111 0 c 256,32,33
 96 0 96 0 96 15 c 2,34,-1
 96 655 l 2,35,36
 96 670 96 670 81 670 c 2,37,-1
 11 670 l 2,38,39
 -4 670 -4 670 -4 685 c 256,40,41
 -4 700 -4 700 11 700 c 2,42,-1
 111 700 l 2,43,44
 126 700 126 700 126 685 c 2,45,-1
 126 515 l 2,12,13
EndSplineSet
EndChar

StartChar: c
Encoding: 99 99 70
Width: 549
GlyphClass: 2
Flags: W
LayerCount: 2
Fore
SplineSet
461 375 m 1,0,1
 380 480 380 480 271 480 c 0,2,3
 190 480 190 480 135 416 c 1,4,5
 81 351 81 351 81 248 c 128,-1,6
 81 145 81 145 138 82.5 c 128,-1,7
 195 20 195 20 288 20 c 0,8,9
 380 20 380 20 442 70 c 0,10,11
 458 82 458 82 467 90 c 128,-1,12
 476 98 476 98 481 95.5 c 128,-1,13
 486 93 486 93 491 87 c 128,-1,14
 496 81 496 81 496 76.5 c 128,-1,15
 496 72 496 72 487 63 c 0,16,17
 454 34 454 34 406.5 12 c 128,-1,18
 359 -10 359 -10 286 -10 c 0,19,20
 180 -10 180 -10 115.5 62.5 c 128,-1,21
 51 135 51 135 51 250 c 256,22,23
 51 365 51 365 114 437.5 c 128,-1,24
 177 510 177 510 273.5 510 c 128,-1,25
 370 510 370 510 445 435 c 1,26,27
 461 421 461 421 461 445 c 2,28,-1
 461 485 l 2,29,30
 461 500 461 500 476 500 c 256,31,32
 491 500 491 500 491 485 c 2,33,-1
 491 325 l 2,34,35
 491 310 491 310 476 310 c 256,36,37
 461 310 461 310 461 325 c 2,38,-1
 461 375 l 1,0,1
EndSplineSet
EndChar

StartChar: d
Encoding: 100 100 71
Width: 631
GlyphClass: 2
Flags: W
LayerCount: 2
Fore
SplineSet
470 655 m 2,0,1
 470 670 470 670 455 670 c 2,2,-1
 375 670 l 2,3,4
 360 670 360 670 360 685 c 256,5,6
 360 700 360 700 375 700 c 2,7,-1
 485 700 l 2,8,9
 500 700 500 700 500 685 c 2,10,-1
 500 45 l 2,11,12
 500 30 500 30 515 30 c 2,13,-1
 585 30 l 2,14,15
 600 30 600 30 600 15 c 256,16,17
 600 0 600 0 585 0 c 2,18,-1
 485 0 l 2,19,20
 470 0 470 0 470 15 c 2,21,-1
 470 71 l 2,22,23
 470 81 470 81 466 85 c 128,-1,24
 462 89 462 89 454 81 c 1,25,26
 429 48 429 48 380.5 19 c 128,-1,27
 332 -10 332 -10 276 -10 c 0,28,29
 170 -10 170 -10 110 59.5 c 128,-1,30
 50 129 50 129 50 249 c 128,-1,31
 50 369 50 369 121.5 434.5 c 128,-1,32
 193 500 193 500 320 500 c 2,33,-1
 455 500 l 2,34,35
 470 500 470 500 470 515 c 2,36,-1
 470 655 l 2,0,1
470 455 m 2,37,38
 470 470 470 470 455 470 c 2,39,-1
 320 470 l 2,40,41
 206 470 206 470 143 414 c 128,-1,42
 80 358 80 358 80 249.5 c 128,-1,43
 80 141 80 141 132.5 80.5 c 128,-1,44
 185 20 185 20 268.5 20 c 128,-1,45
 352 20 352 20 419 87 c 0,46,47
 447 115 447 115 470 155 c 1,48,-1
 470 455 l 2,37,38
EndSplineSet
EndChar

StartChar: e
Encoding: 101 101 72
Width: 567
GlyphClass: 2
Flags: W
LayerCount: 2
Fore
SplineSet
444 70 m 0,0,1
 460 82 460 82 468.5 90 c 128,-1,2
 477 98 477 98 482 95.5 c 128,-1,3
 487 93 487 93 494.5 84.5 c 128,-1,4
 502 76 502 76 490 66 c 0,5,6
 454 35 454 35 407 12.5 c 128,-1,7
 360 -10 360 -10 287 -10 c 0,8,9
 181 -10 181 -10 116.5 63 c 128,-1,10
 52 136 52 136 52 250 c 256,11,12
 52 364 52 364 116.5 437 c 128,-1,13
 181 510 181 510 285.5 510 c 128,-1,14
 390 510 390 510 456 444 c 256,15,16
 522 378 522 378 522 285 c 2,17,-1
 522 270 l 2,18,19
 522 240 522 240 492 240 c 2,20,-1
 98 240 l 2,21,22
 81 240 81 240 83 225 c 0,23,24
 89 138 89 138 142.5 79 c 128,-1,25
 196 20 196 20 289.5 20 c 128,-1,26
 383 20 383 20 444 70 c 0,0,1
84 282 m 0,27,28
 84 270 84 270 98 270 c 2,29,-1
 477 270 l 2,30,31
 492 270 492 270 492 285 c 0,32,33
 492 365 492 365 433.5 422.5 c 128,-1,34
 375 480 375 480 285.5 480 c 128,-1,35
 196 480 196 480 140 417 c 128,-1,36
 84 354 84 354 84 282 c 0,27,28
EndSplineSet
EndChar

StartChar: f
Encoding: 102 102 73
Width: 414
GlyphClass: 2
Flags: W
LayerCount: 2
Fore
SplineSet
296 710 m 0,0,1
 338 710 338 710 369 694 c 128,-1,2
 400 678 400 678 416 662 c 128,-1,3
 432 646 432 646 432 640 c 128,-1,4
 432 634 432 634 424 627 c 0,5,6
 416 619 416 619 402.5 632.5 c 128,-1,7
 389 646 389 646 361.5 663 c 128,-1,8
 334 680 334 680 296 680 c 0,9,10
 233 680 233 680 199.5 640.5 c 128,-1,11
 166 601 166 601 166 525 c 2,12,-1
 166 515 l 2,13,14
 166 500 166 500 181 500 c 2,15,-1
 341 500 l 2,16,17
 356 500 356 500 356 485 c 256,18,19
 356 470 356 470 341 470 c 2,20,-1
 181 470 l 2,21,22
 166 470 166 470 166 455 c 2,23,-1
 166 45 l 2,24,25
 166 30 166 30 181 30 c 2,26,-1
 261 30 l 2,27,28
 276 30 276 30 276 15 c 256,29,30
 276 0 276 0 261 0 c 2,31,-1
 51 0 l 2,32,33
 36 0 36 0 36 15 c 256,34,35
 36 30 36 30 51 30 c 2,36,-1
 121 30 l 2,37,38
 136 30 136 30 136 45 c 2,39,-1
 136 455 l 2,40,41
 136 470 136 470 121 470 c 2,42,-1
 51 470 l 2,43,44
 36 470 36 470 36 485 c 256,45,46
 36 500 36 500 51 500 c 2,47,-1
 121 500 l 2,48,49
 136 500 136 500 136 515 c 2,50,-1
 136 525 l 2,51,52
 136 615 136 615 177 662.5 c 128,-1,53
 218 710 218 710 296 710 c 0,0,1
EndSplineSet
EndChar

StartChar: g
Encoding: 103 103 74
Width: 605
GlyphClass: 2
Flags: W
LayerCount: 2
Fore
SplineSet
285 70 m 128,-1,1
 55 70 55 70 55 -55 c 128,-1,2
 55 -180 55 -180 285 -180 c 0,3,4
 466 -180 466 -180 504 -104 c 0,5,6
 516 -81 516 -81 515 -55 c 1,7,0
 515 70 515 70 285 70 c 128,-1,1
285 190 m 256,8,9
 386 190 386 190 430.5 228.5 c 128,-1,10
 475 267 475 267 475 334.5 c 128,-1,11
 475 402 475 402 430.5 441 c 128,-1,12
 386 480 386 480 285 480 c 256,13,14
 184 480 184 480 139.5 441 c 128,-1,15
 95 402 95 402 95 334.5 c 128,-1,16
 95 267 95 267 139.5 228.5 c 128,-1,17
 184 190 184 190 285 190 c 256,8,9
80 139 m 0,18,19
 80 100 80 100 160 100 c 2,20,-1
 285 100 l 2,21,22
 486 100 486 100 531 8 c 0,23,24
 545 -20 545 -20 545 -55 c 0,25,26
 546 -166 546 -166 406 -198 c 0,27,28
 356 -210 356 -210 285 -210 c 0,29,30
 84 -210 84 -210 39 -118 c 0,31,32
 25 -90 25 -90 25 -55 c 0,33,34
 25 -21 25 -21 44.5 12 c 128,-1,35
 64 45 64 45 100 63 c 0,36,37
 107 66 107 66 107 71.5 c 128,-1,38
 107 77 107 77 94 81.5 c 128,-1,39
 81 86 81 86 66 102 c 0,40,41
 50 118 50 118 50 142 c 0,42,43
 50 181 50 181 103 204 c 1,44,45
 116 211 116 211 102 227 c 0,46,47
 66 267 66 267 65.5 340.5 c 128,-1,48
 65 414 65 414 120.5 462 c 128,-1,49
 176 510 176 510 277 510 c 128,-1,50
 378 510 378 510 435 473 c 1,51,52
 467 505 467 505 515 505 c 2,53,-1
 580 505 l 2,54,55
 595 505 595 505 595 490 c 2,56,-1
 595 375 l 2,57,58
 595 360 595 360 580 360 c 256,59,60
 565 360 565 360 565 375 c 2,61,-1
 565 465 l 2,62,63
 565 480 565 480 550 480 c 2,64,-1
 515 480 l 2,65,66
 494 480 494 480 468 467 c 1,67,68
 456 455 456 455 467 445 c 1,69,70
 505 400 505 400 505 328 c 128,-1,71
 505 256 505 256 449.5 208 c 128,-1,72
 394 160 394 160 294 160 c 128,-1,73
 194 160 194 160 144 192 c 1,74,75
 115 184 115 184 97.5 173 c 128,-1,76
 80 162 80 162 80 139 c 0,18,19
EndSplineSet
EndChar

StartChar: h
Encoding: 104 104 75
Width: 651
GlyphClass: 2
Flags: W
LayerCount: 2
Fore
SplineSet
34 30 m 2,0,-1
 104 30 l 2,1,2
 119 30 119 30 119 45 c 2,3,-1
 119 655 l 2,4,5
 119 670 119 670 104 670 c 2,6,-1
 34 670 l 2,7,8
 19 670 19 670 19 685 c 128,-1,9
 19 700 19 700 34 700 c 2,10,-1
 134 700 l 2,11,12
 149 700 149 700 149 685 c 2,13,-1
 149 429 l 2,14,15
 149 419 149 419 153 415 c 128,-1,16
 157 411 157 411 165 419 c 0,17,18
 246 510 246 510 341 510 c 128,-1,19
 436 510 436 510 487.5 458.5 c 128,-1,20
 539 407 539 407 539 310 c 2,21,-1
 539 45 l 2,22,23
 539 30 539 30 554 30 c 2,24,-1
 624 30 l 2,25,26
 639 30 639 30 639 15 c 128,-1,27
 639 0 639 0 624 0 c 2,28,-1
 434 0 l 2,29,30
 419 0 419 0 419 15 c 128,-1,31
 419 30 419 30 434 30 c 2,32,-1
 494 30 l 2,33,34
 509 30 509 30 509 45 c 2,35,-1
 509 310 l 2,36,37
 509 395 509 395 465 437.5 c 128,-1,38
 421 480 421 480 345 480 c 128,-1,39
 269 480 269 480 201 412 c 0,40,41
 172 382 172 382 149 345 c 1,42,-1
 149 45 l 2,43,44
 149 30 149 30 164 30 c 2,45,-1
 224 30 l 2,46,47
 239 30 239 30 239 15 c 128,-1,48
 239 0 239 0 224 0 c 2,49,-1
 34 0 l 2,50,51
 19 0 19 0 19 15 c 128,-1,52
 19 30 19 30 34 30 c 2,0,-1
EndSplineSet
EndChar

StartChar: i
Encoding: 105 105 76
Width: 286
GlyphClass: 2
Flags: W
LayerCount: 2
Fore
SplineSet
37 15 m 128,-1,1
 37 30 37 30 52 30 c 2,2,-1
 122 30 l 2,3,4
 137 30 137 30 137 45 c 2,5,-1
 137 455 l 2,6,7
 137 470 137 470 122 470 c 2,8,-1
 52 470 l 2,9,10
 37 470 37 470 37 485 c 128,-1,11
 37 500 37 500 52 500 c 2,12,-1
 152 500 l 2,13,14
 167 500 167 500 167 485 c 2,15,-1
 167 45 l 2,16,17
 167 30 167 30 182 30 c 2,18,-1
 252 30 l 2,19,20
 267 30 267 30 267 15 c 128,-1,21
 267 0 267 0 252 0 c 2,22,-1
 52 0 l 2,23,0
 37 0 37 0 37 15 c 128,-1,1
107 620 m 128,-1,25
 107 637 107 637 118.5 648.5 c 128,-1,26
 130 660 130 660 147 660 c 128,-1,27
 164 660 164 660 175.5 648.5 c 128,-1,28
 187 637 187 637 187 620 c 128,-1,29
 187 603 187 603 175.5 591.5 c 128,-1,30
 164 580 164 580 147 580 c 128,-1,31
 130 580 130 580 118.5 591.5 c 128,-1,24
 107 603 107 603 107 620 c 128,-1,25
EndSplineSet
EndChar

StartChar: j
Encoding: 106 106 77
Width: 245
GlyphClass: 2
Flags: W
LayerCount: 2
Fore
SplineSet
100 591 m 1,0,1
 89 603 89 603 89 620 c 128,-1,2
 89 637 89 637 100.5 648.5 c 128,-1,3
 112 660 112 660 129 660 c 128,-1,4
 146 660 146 660 157.5 648.5 c 128,-1,5
 169 637 169 637 169 620 c 128,-1,6
 169 603 169 603 157.5 591.5 c 128,-1,7
 146 580 146 580 129 580 c 128,-1,8
 112 580 112 580 100 591 c 1,0,1
87.5 -143.5 m 128,-1,10
 119 -107 119 -107 119 -35 c 2,11,-1
 119 455 l 2,12,13
 119 470 119 470 104 470 c 2,14,-1
 34 470 l 2,15,16
 19 470 19 470 19 485 c 256,17,18
 19 500 19 500 34 500 c 2,19,-1
 134 500 l 2,20,21
 149 500 149 500 149 485 c 2,22,-1
 149 -35 l 2,23,24
 149 -120 149 -120 109.5 -165 c 128,-1,25
 70 -210 70 -210 -5 -210 c 128,-1,26
 -80 -210 -80 -210 -129 -153 c 0,27,28
 -136 -146 -136 -146 -136 -140 c 128,-1,29
 -136 -134 -136 -134 -131 -130 c 0,30,31
 -121 -120 -121 -120 -107 -133 c 0,32,33
 -56 -180 -56 -180 0 -180 c 128,-1,9
 56 -180 56 -180 87.5 -143.5 c 128,-1,10
EndSplineSet
EndChar

StartChar: k
Encoding: 107 107 78
Width: 581
GlyphClass: 2
Flags: W
LayerCount: 2
Fore
SplineSet
34 30 m 2,0,-1
 104 30 l 2,1,2
 119 30 119 30 119 45 c 2,3,-1
 119 655 l 2,4,5
 119 670 119 670 104 670 c 2,6,-1
 34 670 l 2,7,8
 19 670 19 670 19 685 c 128,-1,9
 19 700 19 700 34 700 c 2,10,-1
 134 700 l 2,11,12
 149 700 149 700 149 685 c 2,13,-1
 149 193 l 1,14,-1
 389 455 l 1,15,16
 395 460 395 460 393.5 465 c 128,-1,17
 392 470 392 470 384 470 c 2,18,-1
 328 470 l 2,19,20
 313 470 313 470 313 485 c 128,-1,21
 313 500 313 500 328 500 c 2,22,-1
 524 500 l 2,23,24
 539 500 539 500 539 485 c 128,-1,25
 539 470 539 470 524 470 c 2,26,-1
 460 470 l 2,27,28
 449 470 449 470 434 455 c 2,29,-1
 284 292 l 1,30,-1
 464 45 l 1,31,32
 477 30 477 30 489 30 c 2,33,-1
 554 30 l 2,34,35
 569 30 569 30 569 15 c 128,-1,36
 569 0 569 0 554 0 c 2,37,-1
 364 0 l 2,38,39
 349 0 349 0 349 15 c 128,-1,40
 349 30 349 30 364 30 c 2,41,-1
 419 30 l 2,42,43
 437 30 437 30 424 45 c 1,44,-1
 262 268 l 1,45,-1
 149 144 l 1,46,-1
 149 45 l 2,47,48
 149 30 149 30 164 30 c 2,49,-1
 224 30 l 2,50,51
 239 30 239 30 239 15 c 128,-1,52
 239 0 239 0 224 0 c 2,53,-1
 34 0 l 2,54,55
 19 0 19 0 19 15 c 128,-1,56
 19 30 19 30 34 30 c 2,0,-1
EndSplineSet
EndChar

StartChar: l
Encoding: 108 108 79
Width: 268
GlyphClass: 2
Flags: W
LayerCount: 2
Fore
SplineSet
19 15 m 128,-1,1
 19 30 19 30 34 30 c 2,2,-1
 104 30 l 2,3,4
 119 30 119 30 119 45 c 2,5,-1
 119 655 l 2,6,7
 119 670 119 670 104 670 c 2,8,-1
 34 670 l 2,9,10
 19 670 19 670 19 685 c 128,-1,11
 19 700 19 700 34 700 c 2,12,-1
 134 700 l 2,13,14
 149 700 149 700 149 685 c 2,15,-1
 149 45 l 2,16,17
 149 30 149 30 164 30 c 2,18,-1
 234 30 l 2,19,20
 249 30 249 30 249 15 c 128,-1,21
 249 0 249 0 234 0 c 2,22,-1
 34 0 l 2,23,0
 19 0 19 0 19 15 c 128,-1,1
EndSplineSet
EndChar

StartChar: m
Encoding: 109 109 80
Width: 959
GlyphClass: 2
Flags: W
LayerCount: 2
Fore
SplineSet
51 30 m 2,0,-1
 121 30 l 2,1,2
 136 30 136 30 136 45 c 2,3,-1
 136 455 l 2,4,5
 136 470 136 470 121 470 c 2,6,-1
 51 470 l 2,7,8
 36 470 36 470 36 485 c 128,-1,9
 36 500 36 500 51 500 c 2,10,-1
 151 500 l 2,11,12
 166 500 166 500 166 485 c 2,13,-1
 166 429 l 2,14,15
 166 403 166 403 182 419 c 1,16,17
 260 510 260 510 336 510 c 0,18,19
 394 510 394 510 437 477 c 128,-1,20
 480 444 480 444 497 382 c 1,21,22
 517 417 517 417 545 446 c 0,23,24
 607 510 607 510 679 510 c 128,-1,25
 751 510 751 510 798.5 457.5 c 128,-1,26
 846 405 846 405 846 310 c 2,27,-1
 846 45 l 2,28,29
 846 30 846 30 861 30 c 2,30,-1
 931 30 l 2,31,32
 946 30 946 30 946 15 c 128,-1,33
 946 0 946 0 931 0 c 2,34,-1
 741 0 l 2,35,36
 726 0 726 0 726 15 c 128,-1,37
 726 30 726 30 741 30 c 2,38,-1
 801 30 l 2,39,40
 816 30 816 30 816 45 c 2,41,-1
 816 310 l 2,42,43
 816 392 816 392 776 436 c 128,-1,44
 736 480 736 480 675 480 c 128,-1,45
 614 480 614 480 552 410 c 0,46,47
 524 378 524 378 504 340 c 1,48,49
 506 318 506 318 506 310 c 2,50,-1
 506 45 l 2,51,52
 506 30 506 30 521 30 c 2,53,-1
 581 30 l 2,54,55
 596 30 596 30 596 15 c 128,-1,56
 596 0 596 0 581 0 c 2,57,-1
 401 0 l 2,58,59
 386 0 386 0 386 15 c 128,-1,60
 386 30 386 30 401 30 c 2,61,-1
 461 30 l 2,62,63
 476 30 476 30 476 45 c 2,64,-1
 476 310 l 2,65,66
 476 392 476 392 436 436 c 128,-1,67
 396 480 396 480 335.5 480 c 128,-1,68
 275 480 275 480 215 412 c 0,69,70
 189 383 189 383 166 345 c 1,71,-1
 166 45 l 2,72,73
 166 30 166 30 181 30 c 2,74,-1
 241 30 l 2,75,76
 256 30 256 30 256 15 c 128,-1,77
 256 0 256 0 241 0 c 2,78,-1
 51 0 l 2,79,80
 36 0 36 0 36 15 c 128,-1,81
 36 30 36 30 51 30 c 2,0,-1
EndSplineSet
EndChar

StartChar: n
Encoding: 110 110 81
Width: 668
GlyphClass: 2
Flags: W
LayerCount: 2
Fore
SplineSet
51 30 m 2,0,-1
 121 30 l 2,1,2
 136 30 136 30 136 45 c 2,3,-1
 136 455 l 2,4,5
 136 470 136 470 121 470 c 2,6,-1
 51 470 l 2,7,8
 36 470 36 470 36 485 c 128,-1,9
 36 500 36 500 51 500 c 2,10,-1
 151 500 l 2,11,12
 166 500 166 500 166 485 c 2,13,-1
 166 429 l 2,14,15
 166 419 166 419 170 415 c 128,-1,16
 174 411 174 411 182 419 c 0,17,18
 263 510 263 510 358 510 c 128,-1,19
 453 510 453 510 504.5 458.5 c 128,-1,20
 556 407 556 407 556 310 c 2,21,-1
 556 45 l 2,22,23
 556 30 556 30 571 30 c 2,24,-1
 641 30 l 2,25,26
 656 30 656 30 656 15 c 128,-1,27
 656 0 656 0 641 0 c 2,28,-1
 451 0 l 2,29,30
 436 0 436 0 436 15 c 128,-1,31
 436 30 436 30 451 30 c 2,32,-1
 511 30 l 2,33,34
 526 30 526 30 526 45 c 2,35,-1
 526 310 l 2,36,37
 526 395 526 395 482 437.5 c 128,-1,38
 438 480 438 480 362 480 c 128,-1,39
 286 480 286 480 218 412 c 0,40,41
 188 382 188 382 166 345 c 1,42,-1
 166 45 l 2,43,44
 166 30 166 30 181 30 c 2,45,-1
 241 30 l 2,46,47
 256 30 256 30 256 15 c 128,-1,48
 256 0 256 0 241 0 c 2,49,-1
 51 0 l 2,50,51
 36 0 36 0 36 15 c 128,-1,52
 36 30 36 30 51 30 c 2,0,-1
EndSplineSet
EndChar

StartChar: o
Encoding: 111 111 82
Width: 592
GlyphClass: 2
Flags: W
LayerCount: 2
Fore
SplineSet
51 250 m 128,-1,1
 51 366 51 366 119 438 c 128,-1,2
 187 510 187 510 296 510 c 128,-1,3
 405 510 405 510 473 438 c 128,-1,4
 541 366 541 366 541 250 c 128,-1,5
 541 134 541 134 473 62 c 128,-1,6
 405 -10 405 -10 296 -10 c 128,-1,7
 187 -10 187 -10 119 62 c 128,-1,0
 51 134 51 134 51 250 c 128,-1,1
140 417 m 128,-1,9
 81 354 81 354 81 249.5 c 128,-1,10
 81 145 81 145 139.5 82.5 c 128,-1,11
 198 20 198 20 296 20 c 128,-1,12
 394 20 394 20 452.5 82.5 c 128,-1,13
 511 145 511 145 511 249.5 c 128,-1,14
 511 354 511 354 452 417 c 128,-1,15
 393 480 393 480 296 480 c 128,-1,8
 199 480 199 480 140 417 c 128,-1,9
EndSplineSet
EndChar

StartChar: p
Encoding: 112 112 83
Width: 622
GlyphClass: 2
Flags: W
LayerCount: 2
Fore
SplineSet
299 30 m 2,0,1
 414 30 414 30 476.5 86 c 128,-1,2
 539 142 539 142 539 251 c 128,-1,3
 539 360 539 360 486.5 420 c 128,-1,4
 434 480 434 480 351 480 c 128,-1,5
 268 480 268 480 200 412 c 0,6,7
 172 384 172 384 149 345 c 1,8,-1
 149 45 l 2,9,10
 149 30 149 30 164 30 c 2,11,-1
 299 30 l 2,0,1
164 0 m 2,12,13
 149 0 149 0 149 -15 c 2,14,-1
 149 -155 l 2,15,16
 149 -170 149 -170 164 -170 c 2,17,-1
 244 -170 l 2,18,19
 259 -170 259 -170 259 -185 c 256,20,21
 259 -200 259 -200 244 -200 c 2,22,-1
 34 -200 l 2,23,24
 19 -200 19 -200 19 -185 c 256,25,26
 19 -170 19 -170 34 -170 c 2,27,-1
 104 -170 l 2,28,29
 119 -170 119 -170 119 -155 c 2,30,-1
 119 455 l 2,31,32
 119 470 119 470 104 470 c 2,33,-1
 34 470 l 2,34,35
 19 470 19 470 19 485 c 256,36,37
 19 500 19 500 34 500 c 2,38,-1
 134 500 l 2,39,40
 149 500 149 500 149 485 c 2,41,-1
 149 429 l 2,42,43
 149 419 149 419 153 415 c 128,-1,44
 157 411 157 411 165 419 c 1,45,46
 190 451 190 451 238 480.5 c 128,-1,47
 286 510 286 510 349 510 c 0,48,49
 449 510 449 510 509 439.5 c 128,-1,50
 569 369 569 369 569 250 c 128,-1,51
 569 131 569 131 497 65 c 0,52,53
 425 0 425 0 299 0 c 2,54,-1
 164 0 l 2,12,13
EndSplineSet
EndChar

StartChar: q
Encoding: 113 113 84
Width: 612
GlyphClass: 2
Flags: W
LayerCount: 2
Fore
SplineSet
473 345 m 1,0,1
 454 380 454 380 422 412 c 0,2,3
 354 480 354 480 271 480 c 128,-1,4
 188 480 188 480 135.5 419.5 c 128,-1,5
 83 359 83 359 83 250.5 c 128,-1,6
 83 142 83 142 146 86 c 128,-1,7
 209 30 209 30 323 30 c 2,8,-1
 458 30 l 2,9,10
 473 30 473 30 473 45 c 2,11,-1
 473 345 l 1,0,1
473 -15 m 2,12,13
 473 0 473 0 458 0 c 2,14,-1
 323 0 l 2,15,16
 196 0 196 0 125 65 c 0,17,18
 53 130 53 130 53 249.5 c 128,-1,19
 53 369 53 369 113 439.5 c 128,-1,20
 173 510 173 510 273 510 c 0,21,22
 336 510 336 510 384 480 c 1,23,24
 431 454 431 454 457 419 c 1,25,26
 465 411 465 411 469 415 c 128,-1,27
 473 419 473 419 473 429 c 2,28,-1
 473 485 l 2,29,30
 473 500 473 500 488 500 c 256,31,32
 503 500 503 500 503 485 c 2,33,-1
 503 -155 l 2,34,35
 503 -170 503 -170 518 -170 c 2,36,-1
 588 -170 l 2,37,38
 603 -170 603 -170 603 -185 c 256,39,40
 603 -200 603 -200 588 -200 c 2,41,-1
 378 -200 l 2,42,43
 363 -200 363 -200 363 -185 c 256,44,45
 363 -170 363 -170 378 -170 c 2,46,-1
 458 -170 l 2,47,48
 473 -170 473 -170 473 -155 c 2,49,-1
 473 -15 l 2,12,13
EndSplineSet
EndChar

StartChar: r
Encoding: 114 114 85
Width: 507
GlyphClass: 2
Flags: W
LayerCount: 2
Fore
SplineSet
416 480 m 2,0,1
 290 480 290 480 206 381 c 0,2,3
 182 353 182 353 166 325 c 1,4,-1
 166 45 l 2,5,6
 166 30 166 30 181 30 c 2,7,-1
 261 30 l 2,8,9
 276 30 276 30 276 15 c 256,10,11
 276 0 276 0 261 0 c 2,12,-1
 51 0 l 2,13,14
 36 0 36 0 36 15 c 256,15,16
 36 30 36 30 51 30 c 2,17,-1
 121 30 l 2,18,19
 136 30 136 30 136 45 c 2,20,-1
 136 455 l 2,21,22
 136 470 136 470 121 470 c 2,23,-1
 51 470 l 2,24,25
 36 470 36 470 36 485 c 256,26,27
 36 500 36 500 51 500 c 2,28,-1
 151 500 l 2,29,30
 166 500 166 500 166 485 c 2,31,-1
 166 406 l 2,32,33
 166 381 166 381 187 405 c 0,34,35
 224 447 224 447 283.5 478.5 c 128,-1,36
 343 510 343 510 416 510 c 2,37,-1
 465 510 l 2,38,39
 480 510 480 510 480 495 c 2,40,-1
 480 370 l 2,41,42
 480 355 480 355 465 355 c 128,-1,43
 450 355 450 355 450 370 c 2,44,-1
 450 465 l 2,45,46
 450 480 450 480 435 480 c 2,47,-1
 416 480 l 2,0,1
EndSplineSet
EndChar

StartChar: s
Encoding: 115 115 86
Width: 554
GlyphClass: 2
Flags: W
LayerCount: 2
Fore
SplineSet
290 20 m 0,0,1
 377 20 377 20 423.5 50.5 c 128,-1,2
 470 81 470 81 470 130 c 0,3,4
 470 196 470 196 375 218 c 0,5,6
 331 228 331 228 269 237 c 0,7,8
 208 246 208 246 180 254 c 0,9,10
 120 270 120 270 90 298.5 c 128,-1,11
 60 327 60 327 60 379.5 c 128,-1,12
 60 432 60 432 113.5 471 c 128,-1,13
 167 510 167 510 263 510 c 128,-1,14
 359 510 359 510 434 435 c 0,15,16
 443 425 443 425 446.5 431 c 128,-1,17
 450 437 450 437 450 445 c 2,18,-1
 450 485 l 2,19,20
 450 500 450 500 465 500 c 256,21,22
 480 500 480 500 480 485 c 2,23,-1
 480 325 l 2,24,25
 480 310 480 310 465 310 c 256,26,27
 450 310 450 310 450 325 c 2,28,-1
 450 375 l 1,29,30
 407 432 407 432 340 464 c 0,31,32
 305 480 305 480 261 480 c 0,33,34
 179 480 179 480 134.5 450.5 c 128,-1,35
 90 421 90 421 90 376 c 128,-1,36
 90 331 90 331 128.5 306.5 c 128,-1,37
 167 282 167 282 246 270 c 0,38,39
 280 264 280 264 315 259 c 128,-1,40
 350 254 350 254 378 248 c 0,41,42
 436 235 436 235 468 208 c 128,-1,43
 500 181 500 181 500 125.5 c 128,-1,44
 500 70 500 70 447.5 30 c 128,-1,45
 395 -10 395 -10 290 -10 c 0,46,47
 208 -10 208 -10 138 38 c 0,48,49
 118 52 118 52 107 63.5 c 128,-1,50
 96 75 96 75 93 69 c 128,-1,51
 90 63 90 63 90 55 c 2,52,-1
 90 15 l 2,53,54
 90 0 90 0 75 0 c 256,55,56
 60 0 60 0 60 15 c 2,57,-1
 60 175 l 2,58,59
 60 190 60 190 75 190 c 256,60,61
 90 190 90 190 90 175 c 2,62,-1
 90 125 l 1,63,64
 131 67 131 67 202 36 c 0,65,66
 239 20 239 20 290 20 c 0,0,1
EndSplineSet
EndChar

StartChar: t
Encoding: 116 116 87
Width: 403
GlyphClass: 2
Flags: W
LayerCount: 2
Fore
SplineSet
375 70 m 0,0,1
 385 80 385 80 393 72 c 128,-1,2
 401 64 401 64 401 59 c 0,3,4
 402 54 402 54 394 46 c 0,5,6
 370 22 370 22 346 10 c 1,7,8
 284 -11 284 -11 275 -10.5 c 128,-1,9
 266 -10 266 -10 265 -10 c 0,10,11
 195 -10 195 -10 155 35 c 128,-1,12
 115 80 115 80 115 165 c 2,13,-1
 115 455 l 2,14,15
 115 470 115 470 100 470 c 2,16,-1
 30 470 l 2,17,18
 15 470 15 470 15 485 c 256,19,20
 15 500 15 500 30 500 c 2,21,-1
 100 500 l 2,22,23
 115 500 115 500 115 515 c 2,24,-1
 115 685 l 2,25,26
 115 700 115 700 130 700 c 256,27,28
 145 700 145 700 145 685 c 2,29,-1
 145 515 l 2,30,31
 145 500 145 500 160 500 c 2,32,-1
 330 500 l 2,33,34
 345 500 345 500 345 485 c 256,35,36
 345 470 345 470 330 470 c 2,37,-1
 160 470 l 2,38,39
 145 470 145 470 145 455 c 2,40,-1
 145 165 l 2,41,42
 145 93 145 93 177 56.5 c 128,-1,43
 209 20 209 20 265.5 20 c 128,-1,44
 322 20 322 20 375 70 c 0,0,1
EndSplineSet
EndChar

StartChar: u
Encoding: 117 117 88
Width: 650
GlyphClass: 2
Flags: W
LayerCount: 2
Fore
SplineSet
26 500 m 2,0,-1
 126 500 l 2,1,2
 141 500 141 500 141 485 c 2,3,-1
 141 190 l 2,4,5
 141 105 141 105 185 62.5 c 128,-1,6
 229 20 229 20 305 20 c 128,-1,7
 381 20 381 20 448 87 c 0,8,9
 478 118 478 118 501 155 c 1,10,-1
 501 455 l 2,11,12
 501 470 501 470 486 470 c 2,13,-1
 416 470 l 2,14,15
 401 470 401 470 401 485 c 128,-1,16
 401 500 401 500 416 500 c 2,17,-1
 516 500 l 2,18,19
 531 500 531 500 531 485 c 2,20,-1
 531 45 l 2,21,22
 531 30 531 30 546 30 c 2,23,-1
 616 30 l 2,24,25
 631 30 631 30 631 15 c 128,-1,26
 631 0 631 0 616 0 c 2,27,-1
 516 0 l 2,28,29
 501 0 501 0 501 15 c 2,30,-1
 501 71 l 2,31,32
 501 81 501 81 497 85 c 128,-1,33
 493 89 493 89 485 81 c 0,34,35
 404 -10 404 -10 309 -10 c 128,-1,36
 214 -10 214 -10 162.5 41.5 c 128,-1,37
 111 93 111 93 111 190 c 2,38,-1
 111 455 l 2,39,40
 111 470 111 470 96 470 c 2,41,-1
 26 470 l 2,42,43
 11 470 11 470 11 485 c 128,-1,44
 11 500 11 500 26 500 c 2,0,-1
EndSplineSet
EndChar

StartChar: v
Encoding: 118 118 89
Width: 624
GlyphClass: 2
Flags: W
LayerCount: 2
Fore
SplineSet
14 500 m 2,0,-1
 204 500 l 2,1,2
 219 500 219 500 219 485 c 128,-1,3
 219 470 219 470 204 470 c 2,4,-1
 142 470 l 2,5,6
 124 470 124 470 132 455 c 1,7,-1
 306 48 l 2,8,9
 308 42 308 42 312 42 c 128,-1,10
 316 42 316 42 318 48 c 2,11,-1
 492 455 l 1,12,13
 500 470 500 470 482 470 c 2,14,-1
 420 470 l 2,15,16
 405 470 405 470 405 485 c 128,-1,17
 405 500 405 500 420 500 c 2,18,-1
 610 500 l 2,19,20
 625 500 625 500 625 485 c 128,-1,21
 625 470 625 470 610 470 c 2,22,-1
 545 470 l 2,23,24
 532 470 532 470 525 455 c 2,25,-1
 332 5 l 1,26,27
 324 -10 324 -10 312 -10 c 128,-1,28
 300 -10 300 -10 292 5 c 1,29,-1
 99 455 l 2,30,31
 92 470 92 470 79 470 c 2,32,-1
 14 470 l 2,33,34
 -1 470 -1 470 -1 485 c 128,-1,35
 -1 500 -1 500 14 500 c 2,0,-1
EndSplineSet
EndChar

StartChar: w
Encoding: 119 119 90
Width: 864
GlyphClass: 2
Flags: W
LayerCount: 2
Fore
SplineSet
14 500 m 2,0,-1
 204 500 l 2,1,2
 219 500 219 500 219 485 c 128,-1,3
 219 470 219 470 204 470 c 2,4,-1
 144 470 l 2,5,6
 126 470 126 470 134 455 c 1,7,-1
 269 72 l 2,8,9
 271 66 271 66 275 66 c 128,-1,10
 279 66 279 66 281 72 c 2,11,-1
 412 485 l 2,12,13
 416 500 416 500 432 500 c 128,-1,14
 448 500 448 500 452 485 c 2,15,-1
 583 72 l 2,16,17
 585 66 585 66 589 66 c 128,-1,18
 593 66 593 66 595 72 c 2,19,-1
 730 455 l 1,20,21
 738 470 738 470 720 470 c 2,22,-1
 660 470 l 2,23,24
 645 470 645 470 645 485 c 128,-1,25
 645 500 645 500 660 500 c 2,26,-1
 850 500 l 2,27,28
 865 500 865 500 865 485 c 128,-1,29
 865 470 865 470 850 470 c 2,30,-1
 785 470 l 2,31,32
 770 470 770 470 765 455 c 2,33,-1
 606 5 l 1,34,35
 602 -10 602 -10 589 -10 c 128,-1,36
 576 -10 576 -10 572 5 c 2,37,-1
 442 415 l 2,38,39
 440 423 440 423 432 423 c 128,-1,40
 424 423 424 423 422 415 c 2,41,-1
 292 5 l 2,42,43
 288 -10 288 -10 275 -10 c 128,-1,44
 262 -10 262 -10 258 5 c 1,45,-1
 99 455 l 2,46,47
 94 470 94 470 79 470 c 2,48,-1
 14 470 l 2,49,50
 -1 470 -1 470 -1 485 c 128,-1,51
 -1 500 -1 500 14 500 c 2,0,-1
EndSplineSet
EndChar

StartChar: x
Encoding: 120 120 91
Width: 579
GlyphClass: 2
Flags: W
LayerCount: 2
Fore
SplineSet
37 30 m 2,0,-1
 97 30 l 2,1,2
 109 30 109 30 122 45 c 1,3,-1
 265 244 l 2,4,5
 271 253 271 253 265 262 c 2,6,-1
 127 455 l 1,7,8
 118 470 118 470 102 470 c 2,9,-1
 42 470 l 2,10,11
 27 470 27 470 27 485 c 128,-1,12
 27 500 27 500 42 500 c 2,13,-1
 232 500 l 2,14,15
 247 500 247 500 247 485 c 128,-1,16
 247 470 247 470 232 470 c 2,17,-1
 172 470 l 2,18,19
 164 470 164 470 160.5 465.5 c 128,-1,20
 157 461 157 461 162 455 c 2,21,-1
 282 288 l 2,22,23
 289 278 289 278 296 288 c 2,24,-1
 417 455 l 2,25,26
 422 461 422 461 418.5 465.5 c 128,-1,27
 415 470 415 470 407 470 c 2,28,-1
 347 470 l 2,29,30
 332 470 332 470 332 485 c 128,-1,31
 332 500 332 500 347 500 c 2,32,-1
 537 500 l 2,33,34
 552 500 552 500 552 485 c 128,-1,35
 552 470 552 470 537 470 c 2,36,-1
 477 470 l 2,37,38
 461 470 461 470 452 455 c 1,39,-1
 314 262 l 2,40,41
 308 253 308 253 314 244 c 2,42,-1
 457 45 l 1,43,44
 470 30 470 30 482 30 c 2,45,-1
 542 30 l 2,46,47
 557 30 557 30 557 15 c 128,-1,48
 557 0 557 0 542 0 c 2,49,-1
 352 0 l 2,50,51
 337 0 337 0 337 15 c 128,-1,52
 337 30 337 30 352 30 c 2,53,-1
 412 30 l 2,54,55
 420 30 420 30 423.5 34.5 c 128,-1,56
 427 39 427 39 422 45 c 2,57,-1
 296 219 l 2,58,59
 289 229 289 229 282 219 c 2,60,-1
 157 45 l 2,61,62
 152 39 152 39 155.5 34.5 c 128,-1,63
 159 30 159 30 167 30 c 2,64,-1
 227 30 l 2,65,66
 242 30 242 30 242 15 c 128,-1,67
 242 0 242 0 227 0 c 2,68,-1
 37 0 l 2,69,70
 22 0 22 0 22 15 c 128,-1,71
 22 30 22 30 37 30 c 2,0,-1
EndSplineSet
EndChar

StartChar: y
Encoding: 121 121 92
Width: 617
GlyphClass: 2
Flags: W
LayerCount: 2
Fore
SplineSet
214.5 -199.5 m 128,-1,1
 191 -210 191 -210 163 -210 c 0,2,3
 116 -210 116 -210 84 -192.5 c 128,-1,4
 52 -175 52 -175 35 -153 c 1,5,6
 23 -141 23 -141 33 -130.5 c 128,-1,7
 43 -120 43 -120 54 -130 c 0,8,9
 71 -147 71 -147 96.5 -163.5 c 128,-1,10
 122 -180 122 -180 164.5 -180 c 128,-1,11
 207 -180 207 -180 237 -145.5 c 128,-1,12
 267 -111 267 -111 296 -35 c 2,13,-1
 306 -9 l 2,14,15
 310 4 310 4 306 15 c 1,16,-1
 99 455 l 2,17,18
 91 470 91 470 79 470 c 2,19,-1
 14 470 l 2,20,21
 -1 470 -1 470 -1 485 c 256,22,23
 -1 500 -1 500 14 500 c 2,24,-1
 204 500 l 2,25,26
 219 500 219 500 219 485 c 256,27,28
 219 470 219 470 204 470 c 2,29,-1
 142 470 l 2,30,31
 124 470 124 470 132 455 c 2,32,-1
 321 60 l 1,33,34
 326 46 326 46 332 60 c 2,35,-1
 485 455 l 1,36,37
 492 470 492 470 475 470 c 2,38,-1
 413 470 l 2,39,40
 398 470 398 470 398 485 c 256,41,42
 398 500 398 500 413 500 c 2,43,-1
 603 500 l 2,44,45
 618 500 618 500 618 485 c 256,46,47
 618 470 618 470 603 470 c 2,48,-1
 538 470 l 2,49,50
 525 470 525 470 518 455 c 1,51,-1
 328 -35 l 2,52,53
 289 -133 289 -133 263.5 -161 c 128,-1,0
 238 -189 238 -189 214.5 -199.5 c 128,-1,1
EndSplineSet
EndChar

StartChar: z
Encoding: 122 122 93
Width: 538
GlyphClass: 2
Flags: W
LayerCount: 2
Fore
SplineSet
49 17 m 0,0,1
 49 26 49 26 61 40 c 2,2,-1
 429 454 l 1,3,4
 435 459 435 459 432 464.5 c 128,-1,5
 429 470 429 470 418 470 c 2,6,-1
 100 470 l 2,7,8
 85 470 85 470 85 455 c 2,9,-1
 85 360 l 2,10,11
 85 345 85 345 70 345 c 128,-1,12
 55 345 55 345 55 360 c 2,13,-1
 55 485 l 2,14,15
 55 500 55 500 70 500 c 2,16,-1
 473 500 l 2,17,18
 488 500 488 500 488 483 c 0,19,20
 488 474 488 474 476 460 c 2,21,-1
 108 46 l 1,22,23
 102 41 102 41 105 35.5 c 128,-1,24
 108 30 108 30 119 30 c 2,25,-1
 438 30 l 2,26,27
 453 30 453 30 453 45 c 2,28,-1
 453 140 l 2,29,30
 453 155 453 155 468 155 c 128,-1,31
 483 155 483 155 483 140 c 2,32,-1
 483 15 l 2,33,34
 483 0 483 0 468 0 c 2,35,-1
 64 0 l 2,36,37
 49 0 49 0 49 17 c 0,0,1
EndSplineSet
EndChar

StartChar: braceleft
Encoding: 123 123 94
Width: 324
GlyphClass: 2
Flags: W
LayerCount: 2
Fore
SplineSet
21 310 m 128,-1,1
 21 325 21 325 36 325 c 2,2,-1
 46 325 l 1,3,4
 141 327 141 327 141 425 c 2,5,-1
 141 650 l 2,6,7
 141 710 141 710 176 745 c 128,-1,8
 211 780 211 780 271 780 c 2,9,-1
 286 780 l 2,10,11
 301 780 301 780 301 765 c 128,-1,12
 301 750 301 750 286 750 c 2,13,-1
 271 750 l 2,14,15
 171 750 171 750 171 650 c 2,16,-1
 171 425 l 2,17,18
 171 337 171 337 101 310 c 1,19,20
 171 283 171 283 171 195 c 2,21,-1
 171 -30 l 2,22,23
 171 -130 171 -130 271 -130 c 2,24,-1
 286 -130 l 2,25,26
 301 -130 301 -130 301 -145 c 128,-1,27
 301 -160 301 -160 286 -160 c 2,28,-1
 271 -160 l 2,29,30
 211 -160 211 -160 176 -125 c 128,-1,31
 141 -90 141 -90 141 -30 c 2,32,-1
 141 195 l 2,33,34
 141 292 141 292 46 295 c 1,35,-1
 36 295 l 2,36,0
 21 295 21 295 21 310 c 128,-1,1
EndSplineSet
EndChar

StartChar: bar
Encoding: 124 124 95
Width: 246
GlyphClass: 2
Flags: W
LayerCount: 2
Fore
SplineSet
108 -185 m 2,0,-1
 108 685 l 2,1,2
 108 700 108 700 123 700 c 128,-1,3
 138 700 138 700 138 685 c 2,4,-1
 138 -185 l 2,5,6
 138 -200 138 -200 123 -200 c 128,-1,7
 108 -200 108 -200 108 -185 c 2,0,-1
EndSplineSet
EndChar

StartChar: braceright
Encoding: 125 125 96
Width: 324
GlyphClass: 2
Flags: W
LayerCount: 2
Fore
SplineSet
23 -145 m 128,-1,1
 23 -130 23 -130 38 -130 c 2,2,-1
 53 -130 l 2,3,4
 153 -130 153 -130 153 -30 c 2,5,-1
 153 195 l 2,6,7
 153 283 153 283 223 310 c 1,8,9
 153 337 153 337 153 425 c 2,10,-1
 153 650 l 2,11,12
 153 750 153 750 53 750 c 2,13,-1
 38 750 l 2,14,15
 23 750 23 750 23 765 c 128,-1,16
 23 780 23 780 38 780 c 2,17,-1
 53 780 l 2,18,19
 113 780 113 780 148 745 c 128,-1,20
 183 710 183 710 183 650 c 2,21,-1
 183 425 l 2,22,23
 183 327 183 327 278 325 c 1,24,-1
 288 325 l 2,25,26
 303 325 303 325 303 310 c 128,-1,27
 303 295 303 295 288 295 c 2,28,-1
 278 295 l 1,29,30
 183 292 183 292 183 195 c 2,31,-1
 183 -30 l 2,32,33
 183 -90 183 -90 148 -125 c 128,-1,34
 113 -160 113 -160 53 -160 c 2,35,-1
 38 -160 l 2,36,0
 23 -160 23 -160 23 -145 c 128,-1,1
EndSplineSet
EndChar

StartChar: asciitilde
Encoding: 126 126 97
Width: 524
GlyphClass: 2
Flags: W
LayerCount: 2
Fore
SplineSet
78 280 m 0,0,1
 78 380 78 380 178 380 c 0,2,3
 204 380 204 380 228 365 c 256,4,5
 252 350 252 350 268 332 c 1,6,7
 321 289 321 289 348 285 c 1,8,9
 418 285 418 285 418 355 c 0,10,11
 418 370 418 370 433 370 c 128,-1,12
 448 370 448 370 448 355 c 0,13,14
 448 255 448 255 348 255 c 0,15,16
 322 255 322 255 298 270 c 0,17,18
 274 284 274 284 258 302 c 0,19,20
 216 350 216 350 178 350 c 0,21,22
 108 350 108 350 108 280 c 0,23,24
 108 265 108 265 93 265 c 128,-1,25
 78 265 78 265 78 280 c 0,0,1
EndSplineSet
EndChar

StartChar: exclamdown
Encoding: 161 161 99
Width: 240
GlyphClass: 2
Flags: W
LayerCount: 2
Fore
SplineSet
70 460 m 128,-1,1
 70 483 70 483 83.5 496.5 c 128,-1,2
 97 510 97 510 120 510 c 128,-1,3
 143 510 143 510 156.5 496.5 c 128,-1,4
 170 483 170 483 170 460 c 128,-1,5
 170 437 170 437 156.5 423.5 c 128,-1,6
 143 410 143 410 120 410 c 128,-1,7
 97 410 97 410 83.5 423.5 c 128,-1,0
 70 437 70 437 70 460 c 128,-1,1
105 -185 m 2,8,-1
 105 315 l 2,9,10
 105 330 105 330 120 330 c 128,-1,11
 135 330 135 330 135 315 c 2,12,-1
 135 -185 l 2,13,14
 135 -200 135 -200 120 -200 c 128,-1,15
 105 -200 105 -200 105 -185 c 2,8,-1
EndSplineSet
EndChar

StartChar: cent
Encoding: 162 162 100
Width: 578
GlyphClass: 2
Flags: W
LayerCount: 2
Fore
SplineSet
272 -9 m 1,0,1
 180 -3 180 -3 118.5 66 c 128,-1,2
 57 135 57 135 57 250 c 256,3,4
 57 365 57 365 119.5 437 c 128,-1,5
 182 509 182 509 272 510 c 1,6,-1
 272 565 l 2,7,8
 272 580 272 580 287 580 c 256,9,10
 302 580 302 580 302 565 c 2,11,-1
 302 509 l 1,12,13
 384 500 384 500 451 435 c 1,14,15
 467 421 467 421 467 445 c 2,16,-1
 467 485 l 2,17,18
 467 500 467 500 482 500 c 256,19,20
 497 500 497 500 497 485 c 2,21,-1
 497 325 l 2,22,23
 497 310 497 310 482 310 c 256,24,25
 467 310 467 310 467 325 c 2,26,-1
 467 375 l 1,27,28
 396 467 396 467 302 478 c 1,29,-1
 302 20 l 1,30,31
 392 23 392 23 450 70 c 0,32,33
 464 82 464 82 473 90 c 128,-1,34
 482 98 482 98 487 95.5 c 128,-1,35
 492 93 492 93 497 87 c 128,-1,36
 502 81 502 81 502 76.5 c 128,-1,37
 502 72 502 72 493 63 c 0,38,39
 412 -8 412 -8 302 -10 c 1,40,-1
 302 -65 l 2,41,42
 302 -80 302 -80 287 -80 c 256,43,44
 272 -80 272 -80 272 -65 c 2,45,-1
 272 -9 l 1,0,1
141 416 m 1,46,47
 87 351 87 351 87 248 c 128,-1,48
 87 145 87 145 141.5 85.5 c 128,-1,49
 196 26 196 26 272 20 c 1,50,-1
 272 480 l 1,51,52
 195 477 195 477 141 416 c 1,46,47
EndSplineSet
EndChar

StartChar: sterling
Encoding: 163 163 101
Width: 578
GlyphClass: 2
Flags: W
LayerCount: 2
Fore
SplineSet
36 15 m 128,-1,1
 36 30 36 30 51 30 c 0,2,3
 99 30 99 30 130 67 c 128,-1,4
 161 104 161 104 161 175 c 2,5,-1
 161 325 l 2,6,7
 161 340 161 340 146 340 c 2,8,-1
 76 340 l 2,9,10
 61 340 61 340 61 355 c 128,-1,11
 61 370 61 370 76 370 c 2,12,-1
 146 370 l 2,13,14
 161 370 161 370 161 385 c 2,15,-1
 161 525 l 2,16,17
 161 614 161 614 201 662 c 0,18,19
 242 710 242 710 310 710 c 128,-1,20
 378 710 378 710 419.5 667 c 128,-1,21
 461 624 461 624 461 555 c 0,22,23
 461 540 461 540 446 540 c 128,-1,24
 431 540 431 540 431 555 c 0,25,26
 431 612 431 612 398 646 c 0,27,28
 364 680 364 680 310 680 c 128,-1,29
 256 680 256 680 223.5 640.5 c 128,-1,30
 191 601 191 601 191 525 c 2,31,-1
 191 385 l 2,32,33
 191 370 191 370 206 370 c 2,34,-1
 326 370 l 2,35,36
 341 370 341 370 341 355 c 128,-1,37
 341 340 341 340 326 340 c 2,38,-1
 206 340 l 2,39,40
 191 340 191 340 191 325 c 2,41,-1
 191 175 l 2,42,43
 191 74 191 74 136 30 c 1,44,-1
 401 30 l 2,45,46
 447 30 447 30 479 62 c 128,-1,47
 511 94 511 94 511 145 c 0,48,49
 511 160 511 160 526 160 c 128,-1,50
 541 160 541 160 541 145 c 0,51,52
 541 82 541 82 501 41 c 128,-1,53
 461 0 461 0 401 0 c 2,54,-1
 51 0 l 2,55,0
 36 0 36 0 36 15 c 128,-1,1
EndSplineSet
EndChar

StartChar: currency
Encoding: 164 164 102
Width: 653
GlyphClass: 2
Flags: W
LayerCount: 2
Fore
SplineSet
80 30 m 2,0,-1
 150 30 l 2,1,2
 165 30 165 30 165 45 c 2,3,-1
 165 180 l 2,4,5
 165 195 165 195 150 195 c 2,6,-1
 80 195 l 2,7,8
 65 195 65 195 65 210 c 128,-1,9
 65 225 65 225 80 225 c 2,10,-1
 150 225 l 2,11,12
 165 225 165 225 165 240 c 2,13,-1
 165 285 l 2,14,15
 165 300 165 300 150 300 c 2,16,-1
 80 300 l 2,17,18
 65 300 65 300 65 315 c 128,-1,19
 65 330 65 330 80 330 c 2,20,-1
 150 330 l 2,21,22
 165 330 165 330 165 345 c 2,23,-1
 165 655 l 2,24,25
 165 670 165 670 150 670 c 2,26,-1
 80 670 l 2,27,28
 65 670 65 670 65 685 c 128,-1,29
 65 700 65 700 80 700 c 2,30,-1
 415 700 l 2,31,32
 512 700 512 700 563.5 647.5 c 128,-1,33
 615 595 615 595 615 500 c 128,-1,34
 615 405 615 405 563.5 352.5 c 128,-1,35
 512 300 512 300 415 300 c 2,36,-1
 210 300 l 2,37,38
 195 300 195 300 195 285 c 2,39,-1
 195 240 l 2,40,41
 195 225 195 225 210 225 c 2,42,-1
 490 225 l 2,43,44
 505 225 505 225 505 210 c 128,-1,45
 505 195 505 195 490 195 c 2,46,-1
 210 195 l 2,47,48
 195 195 195 195 195 180 c 2,49,-1
 195 45 l 2,50,51
 195 30 195 30 210 30 c 2,52,-1
 290 30 l 2,53,54
 305 30 305 30 305 15 c 128,-1,55
 305 0 305 0 290 0 c 2,56,-1
 80 0 l 2,57,58
 65 0 65 0 65 15 c 128,-1,59
 65 30 65 30 80 30 c 2,0,-1
195 345 m 2,60,61
 195 330 195 330 210 330 c 2,62,-1
 415 330 l 2,63,64
 498 330 498 330 541.5 373.5 c 128,-1,65
 585 417 585 417 585 500 c 128,-1,66
 585 583 585 583 541.5 626.5 c 128,-1,67
 498 670 498 670 415 670 c 2,68,-1
 210 670 l 2,69,70
 195 670 195 670 195 655 c 2,71,-1
 195 345 l 2,60,61
EndSplineSet
EndChar

StartChar: yen
Encoding: 165 165 103
Width: 703
GlyphClass: 2
Flags: W
LayerCount: 2
Fore
SplineSet
43 700 m 2,0,-1
 233 700 l 2,1,2
 248 700 248 700 248 685 c 128,-1,3
 248 670 248 670 233 670 c 2,4,-1
 173 670 l 2,5,6
 165 670 165 670 162 665.5 c 128,-1,7
 159 661 159 661 163 655 c 2,8,-1
 344 339 l 1,9,10
 351 329 351 329 358 339 c 1,11,-1
 540 655 l 2,12,13
 544 661 544 661 541 665.5 c 128,-1,14
 538 670 538 670 530 670 c 2,15,-1
 470 670 l 2,16,17
 455 670 455 670 455 685 c 128,-1,18
 455 700 455 700 470 700 c 2,19,-1
 660 700 l 2,20,21
 675 700 675 700 675 685 c 128,-1,22
 675 670 675 670 660 670 c 2,23,-1
 600 670 l 2,24,25
 584 670 584 670 575 655 c 2,26,-1
 382 320 l 2,27,28
 374 305 374 305 392 305 c 2,29,-1
 507 305 l 2,30,31
 522 305 522 305 522 290 c 128,-1,32
 522 275 522 275 507 275 c 2,33,-1
 382 275 l 2,34,35
 367 275 367 275 367 260 c 2,36,-1
 367 200 l 2,37,38
 367 185 367 185 382 185 c 2,39,-1
 507 185 l 2,40,41
 522 185 522 185 522 170 c 128,-1,42
 522 155 522 155 507 155 c 2,43,-1
 382 155 l 2,44,45
 367 155 367 155 367 140 c 2,46,-1
 367 45 l 2,47,48
 367 30 367 30 382 30 c 2,49,-1
 452 30 l 2,50,51
 467 30 467 30 467 15 c 128,-1,52
 467 0 467 0 452 0 c 2,53,-1
 252 0 l 2,54,55
 237 0 237 0 237 15 c 128,-1,56
 237 30 237 30 252 30 c 2,57,-1
 322 30 l 2,58,59
 337 30 337 30 337 45 c 2,60,-1
 337 140 l 2,61,62
 337 155 337 155 322 155 c 2,63,-1
 197 155 l 2,64,65
 182 155 182 155 182 170 c 128,-1,66
 182 185 182 185 197 185 c 2,67,-1
 322 185 l 2,68,69
 337 185 337 185 337 200 c 2,70,-1
 337 260 l 2,71,72
 337 275 337 275 322 275 c 2,73,-1
 197 275 l 2,74,75
 182 275 182 275 182 290 c 128,-1,76
 182 305 182 305 197 305 c 2,77,-1
 312 305 l 2,78,79
 328 305 328 305 321 320 c 1,80,-1
 128 655 l 2,81,82
 119 670 119 670 103 670 c 2,83,-1
 43 670 l 2,84,85
 28 670 28 670 28 685 c 128,-1,86
 28 700 28 700 43 700 c 2,0,-1
EndSplineSet
EndChar

StartChar: brokenbar
Encoding: 166 166 104
Width: 256
GlyphClass: 2
Flags: W
LayerCount: 2
Fore
SplineSet
113 165 m 2,0,1
 113 180 113 180 128 180 c 128,-1,2
 143 180 143 180 143 165 c 2,3,-1
 143 -185 l 2,4,5
 143 -200 143 -200 128 -200 c 128,-1,6
 113 -200 113 -200 113 -185 c 2,7,-1
 113 165 l 2,0,1
113 335 m 2,8,-1
 113 685 l 2,9,10
 113 700 113 700 128 700 c 128,-1,11
 143 700 143 700 143 685 c 2,12,-1
 143 335 l 2,13,14
 143 320 143 320 128 320 c 128,-1,15
 113 320 113 320 113 335 c 2,8,-1
EndSplineSet
EndChar

StartChar: section
Encoding: 167 167 105
Width: 582
GlyphClass: 2
Flags: W
LayerCount: 2
Fore
SplineSet
329 120 m 1,0,1
 411 120 411 120 450 152 c 1,2,3
 489 186 489 186 489 224 c 0,4,5
 489 293 489 293 433 323 c 1,6,7
 404 340 404 340 351 354 c 128,-1,8
 298 368 298 368 283 372 c 128,-1,9
 268 376 268 376 253 380 c 1,10,11
 174 380 174 380 133.5 348.5 c 128,-1,12
 93 317 93 317 93 270 c 0,13,14
 93 207 93 207 149 177 c 1,15,16
 178 160 178 160 231 146 c 128,-1,17
 284 132 284 132 299 128 c 128,-1,18
 314 124 314 124 329 120 c 1,0,1
457 -155 m 128,-1,20
 401 -200 401 -200 302 -200 c 0,21,22
 202 -200 202 -200 126 -162 c 0,23,24
 104 -152 104 -152 92.5 -142.5 c 128,-1,25
 81 -133 81 -133 89.5 -121 c 128,-1,26
 98 -109 98 -109 110 -118 c 0,27,28
 135 -138 135 -138 186.5 -154 c 128,-1,29
 238 -170 238 -170 293 -170 c 0,30,31
 390 -170 390 -170 436.5 -133 c 128,-1,32
 483 -96 483 -96 483 -46 c 128,-1,33
 483 4 483 4 453.5 28.5 c 128,-1,34
 424 53 424 53 378 70 c 128,-1,35
 332 87 332 87 277 100.5 c 128,-1,36
 222 114 222 114 174.5 132.5 c 128,-1,37
 127 151 127 151 95 182.5 c 128,-1,38
 63 214 63 214 63 264 c 128,-1,39
 63 314 63 314 91 349.5 c 128,-1,40
 119 385 119 385 169 399 c 0,41,42
 174 401 174 401 174 404 c 0,43,44
 174 406 174 406 160 412 c 0,45,46
 120 428 120 428 94.5 459 c 128,-1,47
 69 490 69 490 69 532 c 0,48,49
 69 611 69 611 125 655.5 c 128,-1,50
 181 700 181 700 280.5 700 c 128,-1,51
 380 700 380 700 455 662 c 0,52,53
 476 652 476 652 488.5 642.5 c 128,-1,54
 501 633 501 633 492.5 621 c 128,-1,55
 484 609 484 609 472 618 c 0,56,57
 447 638 447 638 395.5 654 c 128,-1,58
 344 670 344 670 289 670 c 0,59,60
 191 670 191 670 145 633 c 128,-1,61
 99 596 99 596 99 546 c 128,-1,62
 99 496 99 496 128.5 471.5 c 128,-1,63
 158 447 158 447 204 430 c 128,-1,64
 250 413 250 413 305 399.5 c 128,-1,65
 360 386 360 386 396 372 c 0,66,67
 460 347 460 347 489.5 314.5 c 128,-1,68
 519 282 519 282 519 234 c 128,-1,69
 519 186 519 186 490.5 150.5 c 128,-1,70
 462 115 462 115 413 101 c 0,71,72
 408 99 408 99 408 96 c 128,-1,73
 408 93 408 93 421.5 87.5 c 128,-1,74
 435 82 435 82 454 70 c 1,75,76
 472 60 472 60 485 44 c 0,77,78
 513 11 513 11 513 -49.5 c 128,-1,19
 513 -110 513 -110 457 -155 c 128,-1,20
EndSplineSet
EndChar

StartChar: dieresis
Encoding: 168 168 106
Width: 240
GlyphClass: 2
Flags: W
LayerCount: 2
Fore
SplineSet
0 600 m 128,-1,1
 0 617 0 617 11.5 628.5 c 128,-1,2
 23 640 23 640 40 640 c 128,-1,3
 57 640 57 640 68.5 628.5 c 128,-1,4
 80 617 80 617 80 600 c 128,-1,5
 80 583 80 583 68.5 571.5 c 128,-1,6
 57 560 57 560 40 560 c 128,-1,7
 23 560 23 560 11.5 571.5 c 128,-1,0
 0 583 0 583 0 600 c 128,-1,1
160 600 m 128,-1,9
 160 617 160 617 171.5 628.5 c 128,-1,10
 183 640 183 640 200 640 c 128,-1,11
 217 640 217 640 228.5 628.5 c 128,-1,12
 240 617 240 617 240 600 c 128,-1,13
 240 583 240 583 228.5 571.5 c 128,-1,14
 217 560 217 560 200 560 c 128,-1,15
 183 560 183 560 171.5 571.5 c 128,-1,8
 160 583 160 583 160 600 c 128,-1,9
EndSplineSet
EndChar

StartChar: copyright
Encoding: 169 169 107
Width: 878
GlyphClass: 2
Flags: W
LayerCount: 2
Fore
SplineSet
54 350 m 128,-1,1
 54 517 54 517 165.5 628.5 c 128,-1,2
 277 740 277 740 439 740 c 128,-1,3
 601 740 601 740 712.5 628.5 c 128,-1,4
 824 517 824 517 824 350 c 128,-1,5
 824 183 824 183 712.5 71.5 c 128,-1,6
 601 -40 601 -40 439 -40 c 128,-1,7
 277 -40 277 -40 165.5 71.5 c 128,-1,0
 54 183 54 183 54 350 c 128,-1,1
84 350 m 128,-1,9
 84 192 84 192 184.5 91 c 128,-1,10
 285 -10 285 -10 439 -10 c 128,-1,11
 593 -10 593 -10 693.5 91 c 128,-1,12
 794 192 794 192 794 350 c 128,-1,13
 794 508 794 508 693.5 609 c 128,-1,14
 593 710 593 710 439 710 c 128,-1,15
 285 710 285 710 184.5 609 c 128,-1,8
 84 508 84 508 84 350 c 128,-1,9
288 175.5 m 128,-1,17
 229 241 229 241 229 349.5 c 128,-1,18
 229 458 229 458 285 523 c 0,19,20
 341 589 341 589 425 589 c 128,-1,21
 509 589 509 589 578 520 c 1,22,23
 594 508 594 508 594 530 c 2,24,-1
 594 570 l 2,25,26
 594 585 594 585 609 585 c 128,-1,27
 624 585 624 585 624 570 c 2,28,-1
 624 420 l 2,29,30
 624 405 624 405 609 405 c 128,-1,31
 594 405 594 405 594 420 c 2,32,-1
 594 460 l 1,33,34
 576 482 576 482 545 510 c 1,35,36
 483 560 483 560 429 560 c 0,37,38
 355 560 355 560 307 503 c 128,-1,39
 259 446 259 446 259 349.5 c 128,-1,40
 259 253 259 253 310 196.5 c 128,-1,41
 361 140 361 140 444 140 c 0,42,43
 551 140 551 140 613 241 c 1,44,45
 621 252 621 252 632 243 c 1,46,47
 639 239 639 239 639 233 c 256,48,49
 639 227 639 227 634 220 c 0,50,51
 564 110 564 110 444 110 c 0,52,16
 347 110 347 110 288 175.5 c 128,-1,17
EndSplineSet
EndChar

StartChar: ordfeminine
Encoding: 170 170 108
Width: 420
GlyphClass: 2
Flags: W
LayerCount: 2
Fore
SplineSet
270 430 m 1,0,1
 225 385 225 385 173 385 c 128,-1,2
 121 385 121 385 90.5 410.5 c 128,-1,3
 60 436 60 436 60 481 c 128,-1,4
 60 526 60 526 90.5 553 c 128,-1,5
 121 580 121 580 180 580 c 2,6,-1
 255 580 l 2,7,8
 270 580 270 580 270 595 c 2,9,-1
 270 599 l 2,10,11
 270 675 270 675 190 675 c 0,12,13
 137 675 137 675 102 638 c 0,14,15
 92 628 92 628 81 638 c 128,-1,16
 70 648 70 648 81 659 c 1,17,18
 97 679 97 679 127 692 c 128,-1,19
 157 705 157 705 190 705 c 0,20,21
 242 705 242 705 271 675.5 c 128,-1,22
 300 646 300 646 300 599 c 2,23,-1
 300 435 l 2,24,25
 300 420 300 420 315 420 c 2,26,-1
 335 420 l 2,27,28
 350 420 350 420 350 405 c 128,-1,29
 350 390 350 390 335 390 c 2,30,-1
 285 390 l 2,31,32
 270 390 270 390 270 405 c 2,33,-1
 270 430 l 1,0,1
270 535 m 2,34,35
 270 550 270 550 255 550 c 2,36,-1
 180 550 l 2,37,38
 136 550 136 550 113 530.5 c 128,-1,39
 90 511 90 511 90 481.5 c 128,-1,40
 90 452 90 452 112.5 433.5 c 128,-1,41
 135 415 135 415 171 415 c 128,-1,42
 207 415 207 415 241 442 c 0,43,44
 259 456 259 456 270 470 c 1,45,-1
 270 535 l 2,34,35
EndSplineSet
EndChar

StartChar: guillemotleft
Encoding: 171 171 109
Width: 499
GlyphClass: 2
Flags: W
LayerCount: 2
Fore
SplineSet
47 265 m 2,0,-1
 278 495 l 2,1,2
 283 500 283 500 288 500 c 0,3,4
 294 500 294 500 302 492 c 128,-1,5
 310 484 310 484 299 474 c 2,6,-1
 83 258 l 2,7,8
 74 249 74 249 83 240 c 2,9,-1
 297 26 l 2,10,11
 308 16 308 16 300 8 c 128,-1,12
 292 0 292 0 286.5 0 c 128,-1,13
 281 0 281 0 276 5 c 2,14,-1
 48 232 l 2,15,16
 39 241 39 241 39 249 c 256,17,18
 39 257 39 257 47 265 c 2,0,-1
217 265 m 2,19,-1
 403 450 l 2,20,21
 408 455 408 455 413.5 455 c 128,-1,22
 419 455 419 455 424 450 c 128,-1,23
 429 445 429 445 429 439.5 c 128,-1,24
 429 434 429 434 424 429 c 2,25,-1
 253 258 l 2,26,27
 244 249 244 249 253 240 c 2,28,-1
 422 71 l 2,29,30
 427 66 427 66 427 60.5 c 128,-1,31
 427 55 427 55 422 50 c 128,-1,32
 417 45 417 45 411.5 45 c 128,-1,33
 406 45 406 45 401 50 c 2,34,-1
 218 232 l 2,35,36
 209 241 209 241 209 249 c 256,37,38
 209 257 209 257 217 265 c 2,19,-1
EndSplineSet
EndChar

StartChar: logicalnot
Encoding: 172 172 110
Width: 592
GlyphClass: 2
Flags: W
LayerCount: 2
Fore
SplineSet
92 330 m 128,-1,1
 92 345 92 345 107 345 c 2,2,-1
 497 345 l 2,3,4
 512 345 512 345 512 330 c 2,5,-1
 512 225 l 2,6,7
 512 210 512 210 497 210 c 128,-1,8
 482 210 482 210 482 225 c 2,9,-1
 482 300 l 2,10,11
 482 315 482 315 467 315 c 2,12,-1
 107 315 l 2,13,0
 92 315 92 315 92 330 c 128,-1,1
EndSplineSet
EndChar

StartChar: uni00AD
Encoding: 173 173 111
Width: 572
GlyphClass: 2
Flags: W
LayerCount: 2
Fore
SplineSet
76 320 m 128,-1,1
 76 335 76 335 91 335 c 2,2,-1
 481 335 l 2,3,4
 496 335 496 335 496 320 c 128,-1,5
 496 305 496 305 481 305 c 2,6,-1
 91 305 l 2,7,0
 76 305 76 305 76 320 c 128,-1,1
EndSplineSet
EndChar

StartChar: registered
Encoding: 174 174 112
Width: 878
GlyphClass: 2
Flags: W
LayerCount: 2
Fore
SplineSet
165 71 m 1,0,1
 54 183 54 183 54 350 c 128,-1,2
 54 517 54 517 165.5 628.5 c 128,-1,3
 277 740 277 740 439 740 c 128,-1,4
 601 740 601 740 712.5 628.5 c 128,-1,5
 824 517 824 517 824 350 c 128,-1,6
 824 183 824 183 712.5 71.5 c 128,-1,7
 601 -40 601 -40 439 -40 c 128,-1,8
 277 -40 277 -40 165 71 c 1,0,1
439 710 m 128,-1,10
 285 710 285 710 184.5 609 c 128,-1,11
 84 508 84 508 84 350 c 128,-1,12
 84 192 84 192 184.5 91 c 128,-1,13
 285 -10 285 -10 439 -10 c 128,-1,14
 593 -10 593 -10 693.5 91 c 128,-1,15
 794 192 794 192 794 350 c 128,-1,16
 794 508 794 508 693.5 609 c 128,-1,9
 593 710 593 710 439 710 c 128,-1,10
339 375 m 2,17,18
 339 360 339 360 354 360 c 2,19,-1
 484 360 l 2,20,21
 538 360 538 360 568.5 387.5 c 128,-1,22
 599 415 599 415 599 455 c 128,-1,23
 599 495 599 495 568.5 522.5 c 128,-1,24
 538 550 538 550 484 550 c 2,25,-1
 354 550 l 2,26,27
 339 550 339 550 339 535 c 2,28,-1
 339 375 l 2,17,18
339 315 m 2,29,-1
 339 155 l 2,30,31
 339 140 339 140 354 140 c 2,32,-1
 384 140 l 2,33,34
 399 140 399 140 399 125 c 128,-1,35
 399 110 399 110 384 110 c 2,36,-1
 244 110 l 2,37,38
 229 110 229 110 229 125 c 128,-1,39
 229 140 229 140 244 140 c 2,40,-1
 294 140 l 2,41,42
 309 140 309 140 309 155 c 2,43,-1
 309 535 l 2,44,45
 309 550 309 550 294 550 c 2,46,-1
 244 550 l 2,47,48
 229 550 229 550 229 565 c 128,-1,49
 229 580 229 580 244 580 c 2,50,-1
 484 580 l 2,51,52
 551 580 551 580 590 545 c 128,-1,53
 629 510 629 510 629 455 c 128,-1,54
 629 400 629 400 590 365 c 128,-1,55
 551 330 551 330 484 330 c 0,56,57
 476 330 476 330 472.5 325.5 c 128,-1,58
 469 321 469 321 474 315 c 2,59,-1
 578 155 l 1,60,61
 591 140 591 140 603 140 c 2,62,-1
 648 140 l 2,63,64
 663 140 663 140 663 125 c 128,-1,65
 663 110 663 110 648 110 c 2,66,-1
 503 110 l 2,67,68
 488 110 488 110 488 125 c 128,-1,69
 488 140 488 140 503 140 c 2,70,-1
 536 140 l 2,71,72
 554 140 554 140 541 155 c 1,73,-1
 427 330 l 1,74,-1
 354 330 l 2,75,76
 339 330 339 330 339 315 c 2,29,-1
EndSplineSet
EndChar

StartChar: degree
Encoding: 176 176 113
Width: 440
GlyphClass: 2
Flags: W
LayerCount: 2
Fore
SplineSet
55 540 m 128,-1,1
 55 612 55 612 102 661 c 128,-1,2
 149 710 149 710 220 710 c 128,-1,3
 291 710 291 710 338 661 c 128,-1,4
 385 612 385 612 385 540 c 128,-1,5
 385 468 385 468 338 419 c 128,-1,6
 291 370 291 370 220 370 c 128,-1,7
 149 370 149 370 102 419 c 128,-1,0
 55 468 55 468 55 540 c 128,-1,1
85 540 m 128,-1,9
 85 480 85 480 124 440 c 128,-1,10
 163 400 163 400 220 400 c 128,-1,11
 277 400 277 400 316 440 c 128,-1,12
 355 480 355 480 355 540 c 128,-1,13
 355 600 355 600 316 640 c 128,-1,14
 277 680 277 680 220 680 c 128,-1,15
 163 680 163 680 124 640 c 128,-1,8
 85 600 85 600 85 540 c 128,-1,9
EndSplineSet
EndChar

StartChar: plusminus
Encoding: 177 177 114
Width: 511
GlyphClass: 2
Flags: W
LayerCount: 2
Fore
SplineSet
45 100 m 128,-1,1
 45 115 45 115 60 115 c 2,2,-1
 450 115 l 2,3,4
 465 115 465 115 465 100 c 128,-1,5
 465 85 465 85 450 85 c 2,6,-1
 60 85 l 2,7,0
 45 85 45 85 45 100 c 128,-1,1
45 320 m 128,-1,9
 45 335 45 335 60 335 c 2,10,-1
 220 335 l 2,11,12
 235 335 235 335 235 350 c 2,13,-1
 235 515 l 2,14,15
 235 530 235 530 250 530 c 128,-1,16
 265 530 265 530 265 515 c 2,17,-1
 265 350 l 2,18,19
 265 335 265 335 280 335 c 2,20,-1
 450 335 l 2,21,22
 465 335 465 335 465 320 c 128,-1,23
 465 305 465 305 450 305 c 2,24,-1
 280 305 l 2,25,26
 265 305 265 305 265 290 c 2,27,-1
 265 165 l 2,28,29
 265 150 265 150 250 150 c 128,-1,30
 235 150 235 150 235 165 c 2,31,-1
 235 290 l 2,32,33
 235 305 235 305 220 305 c 2,34,-1
 60 305 l 2,35,8
 45 305 45 305 45 320 c 128,-1,9
EndSplineSet
EndChar

StartChar: uni00B2
Encoding: 178 178 115
Width: 401
GlyphClass: 2
Flags: W
LayerCount: 2
Fore
SplineSet
75 405 m 2,0,-1
 75 435 l 2,1,2
 75 477 75 477 109.5 504 c 128,-1,3
 144 531 144 531 185 540.5 c 128,-1,4
 226 550 226 550 260.5 568.5 c 128,-1,5
 295 587 295 587 295 615 c 0,6,7
 295 675 295 675 195 675 c 0,8,9
 133 675 133 675 96 634 c 1,10,11
 88 621 88 621 75 634 c 0,12,13
 70 639 70 639 70 644 c 128,-1,14
 70 649 70 649 75 655 c 0,15,16
 125 705 125 705 195 705 c 0,17,18
 325 705 325 705 325 615 c 0,19,20
 325 583 325 583 302.5 562.5 c 128,-1,21
 280 542 280 542 248 531 c 1,22,-1
 182 511 l 2,23,24
 105 487 105 487 105 435 c 0,25,26
 105 420 105 420 120 420 c 2,27,-1
 280 420 l 2,28,29
 295 420 295 420 295 435 c 2,30,-1
 295 460 l 2,31,32
 295 475 295 475 310 475 c 128,-1,33
 325 475 325 475 325 460 c 2,34,-1
 325 405 l 2,35,36
 325 390 325 390 310 390 c 2,37,-1
 90 390 l 2,38,39
 75 390 75 390 75 405 c 2,0,-1
EndSplineSet
EndChar

StartChar: uni00B3
Encoding: 179 179 116
Width: 381
GlyphClass: 2
Flags: W
LayerCount: 2
Fore
SplineSet
71 435 m 0,0,1
 66 440 66 440 66 446 c 0,2,3
 66 450 66 450 74 458 c 128,-1,4
 82 466 82 466 95 452 c 128,-1,5
 108 438 108 438 135.5 426.5 c 128,-1,6
 163 415 163 415 192 415 c 0,7,8
 287 415 287 415 287 470 c 0,9,10
 287 500 287 500 266 517.5 c 128,-1,11
 245 535 245 535 207 535 c 2,12,-1
 142 535 l 1,13,14
 127 536 127 536 127 550 c 128,-1,15
 127 564 127 564 142 564 c 2,16,-1
 207 564 l 2,17,18
 277 564 277 564 277 620 c 128,-1,19
 277 676 277 676 187 675 c 0,20,21
 129 675 129 675 94 638 c 0,22,23
 84 628 84 628 76 636 c 128,-1,24
 68 644 68 644 67.5 649 c 128,-1,25
 67 654 67 654 73 659 c 1,26,27
 89 678 89 678 121.5 691.5 c 128,-1,28
 154 705 154 705 200 705 c 128,-1,29
 246 705 246 705 276.5 682 c 128,-1,30
 307 659 307 659 307 615 c 128,-1,31
 307 571 307 571 257 550 c 1,32,33
 317 528 317 528 317 470 c 0,34,35
 317 430 317 430 285.5 407.5 c 128,-1,36
 254 385 254 385 205 385 c 128,-1,37
 156 385 156 385 122 400 c 128,-1,38
 88 415 88 415 71 435 c 0,0,1
EndSplineSet
EndChar

StartChar: acute
Encoding: 180 180 117
Width: 122
GlyphClass: 2
Flags: W
LayerCount: 2
Fore
SplineSet
4 584 m 2,0,-1
 93 711 l 1,1,2
 98 720 98 720 104 720 c 0,3,4
 109 720 109 720 114 715 c 1,5,6
 122 711 122 711 122 706 c 128,-1,7
 122 701 122 701 118 695 c 2,8,-1
 28 567 l 2,9,10
 23 561 23 561 17 561 c 0,11,12
 12 561 12 561 6 565 c 128,-1,13
 0 569 0 569 0 574 c 128,-1,14
 0 579 0 579 4 584 c 2,0,-1
EndSplineSet
EndChar

StartChar: uni00B5
Encoding: 181 181 118
Width: 688
GlyphClass: 2
Flags: W
LayerCount: 2
Fore
SplineSet
52 500 m 2,0,-1
 152 500 l 2,1,2
 167 500 167 500 167 485 c 2,3,-1
 167 181 l 2,4,5
 167 101 167 101 212 60.5 c 128,-1,6
 257 20 257 20 334 20 c 128,-1,7
 411 20 411 20 477 90 c 0,8,9
 504 119 504 119 527 160 c 1,10,-1
 527 455 l 2,11,12
 527 470 527 470 512 470 c 2,13,-1
 442 470 l 2,14,15
 427 470 427 470 427 485 c 128,-1,16
 427 500 427 500 442 500 c 2,17,-1
 542 500 l 2,18,19
 557 500 557 500 557 485 c 2,20,-1
 557 45 l 2,21,22
 557 30 557 30 572 30 c 2,23,-1
 642 30 l 2,24,25
 657 30 657 30 657 15 c 128,-1,26
 657 0 657 0 642 0 c 2,27,-1
 542 0 l 2,28,29
 527 0 527 0 527 15 c 2,30,-1
 527 71 l 2,31,32
 527 95 527 95 511 81 c 1,33,34
 430 -10 430 -10 337 -10 c 0,35,36
 217 -10 217 -10 167 70 c 1,37,-1
 167 -185 l 2,38,39
 167 -200 167 -200 152 -200 c 128,-1,40
 137 -200 137 -200 137 -185 c 2,41,-1
 137 455 l 2,42,43
 137 470 137 470 122 470 c 2,44,-1
 52 470 l 2,45,46
 37 470 37 470 37 485 c 128,-1,47
 37 500 37 500 52 500 c 2,0,-1
EndSplineSet
EndChar

StartChar: paragraph
Encoding: 182 182 119
Width: 735
GlyphClass: 2
Flags: W
LayerCount: 2
Fore
SplineSet
282 220 m 2,0,1
 170 220 170 220 103 283 c 0,2,3
 37 346 37 346 37 460 c 256,4,5
 37 574 37 574 103 637 c 128,-1,6
 169 700 169 700 282 700 c 2,7,-1
 687 700 l 2,8,9
 702 700 702 700 702 685 c 256,10,11
 702 670 702 670 687 670 c 2,12,-1
 587 670 l 2,13,14
 572 670 572 670 572 655 c 2,15,-1
 572 -185 l 2,16,17
 572 -200 572 -200 557 -200 c 256,18,19
 542 -200 542 -200 542 -185 c 2,20,-1
 542 655 l 2,21,22
 542 670 542 670 527 670 c 2,23,-1
 387 670 l 2,24,25
 372 670 372 670 372 655 c 2,26,-1
 372 -185 l 2,27,28
 372 -200 372 -200 357 -200 c 256,29,30
 342 -200 342 -200 342 -185 c 2,31,-1
 342 205 l 2,32,33
 342 220 342 220 327 220 c 2,34,-1
 282 220 l 2,0,1
327 250 m 2,35,36
 342 250 342 250 342 265 c 2,37,-1
 342 655 l 2,38,39
 342 670 342 670 327 670 c 2,40,-1
 282 670 l 2,41,42
 180 670 180 670 123.5 616.5 c 128,-1,43
 67 563 67 563 67 460 c 256,44,45
 67 357 67 357 123.5 303.5 c 128,-1,46
 180 250 180 250 282 250 c 2,47,-1
 327 250 l 2,35,36
EndSplineSet
EndChar

StartChar: periodcentered
Encoding: 183 183 120
Width: 252
GlyphClass: 2
Flags: W
LayerCount: 2
Fore
SplineSet
76 350 m 128,-1,1
 76 373 76 373 89.5 386.5 c 128,-1,2
 103 400 103 400 126 400 c 128,-1,3
 149 400 149 400 162.5 386.5 c 128,-1,4
 176 373 176 373 176 350 c 128,-1,5
 176 327 176 327 162.5 313.5 c 128,-1,6
 149 300 149 300 126 300 c 128,-1,7
 103 300 103 300 89.5 313.5 c 128,-1,0
 76 327 76 327 76 350 c 128,-1,1
EndSplineSet
EndChar

StartChar: cedilla
Encoding: 184 184 121
Width: 115
GlyphClass: 2
Flags: W
LayerCount: 2
Fore
SplineSet
0 -165 m 128,-1,1
 0 -150 0 -150 15 -150 c 0,2,3
 85 -150 85 -150 85 -110 c 0,4,5
 85 -93 85 -93 72.5 -81.5 c 128,-1,6
 60 -70 60 -70 35 -70 c 2,7,-1
 20 -70 l 2,8,9
 5 -70 5 -70 5 -55 c 2,10,-1
 5 0 l 2,11,12
 5 15 5 15 20 15 c 128,-1,13
 35 15 35 15 35 0 c 2,14,-1
 35 -40 l 1,15,16
 72 -40 72 -40 94 -60 c 0,17,18
 115 -78 115 -78 115 -110 c 128,-1,19
 115 -142 115 -142 90.5 -161 c 128,-1,20
 66 -180 66 -180 15 -180 c 0,21,0
 0 -180 0 -180 0 -165 c 128,-1,1
EndSplineSet
EndChar

StartChar: uni00B9
Encoding: 185 185 122
Width: 309
GlyphClass: 2
Flags: W
LayerCount: 2
Fore
SplineSet
85 606 m 2,0,1
 74 596 74 596 66 604.5 c 128,-1,2
 58 613 58 613 58 618.5 c 128,-1,3
 58 624 58 624 65 629 c 2,4,-1
 139 690 l 1,5,6
 160 705 160 705 166 705 c 0,7,8
 186 705 186 705 186 690 c 2,9,-1
 186 435 l 2,10,11
 186 420 186 420 201 420 c 2,12,-1
 241 420 l 2,13,14
 256 420 256 420 256 405 c 128,-1,15
 256 390 256 390 241 390 c 2,16,-1
 101 390 l 2,17,18
 86 390 86 390 86 405 c 128,-1,19
 86 420 86 420 101 420 c 2,20,-1
 141 420 l 2,21,22
 156 420 156 420 156 435 c 2,23,-1
 156 655 l 2,24,25
 156 665 156 665 142 655 c 1,26,-1
 85 606 l 2,0,1
EndSplineSet
EndChar

StartChar: ordmasculine
Encoding: 186 186 123
Width: 396
GlyphClass: 2
Flags: W
LayerCount: 2
Fore
SplineSet
58 545 m 128,-1,1
 58 618 58 618 97.5 661.5 c 128,-1,2
 137 705 137 705 198 705 c 128,-1,3
 259 705 259 705 298.5 661.5 c 128,-1,4
 338 618 338 618 338 545 c 128,-1,5
 338 472 338 472 298.5 428.5 c 128,-1,6
 259 385 259 385 198 385 c 128,-1,7
 137 385 137 385 97.5 428.5 c 128,-1,0
 58 472 58 472 58 545 c 128,-1,1
88 545 m 128,-1,9
 88 483 88 483 118 449 c 128,-1,10
 148 415 148 415 198 415 c 128,-1,11
 248 415 248 415 278 449 c 128,-1,12
 308 483 308 483 308 545 c 128,-1,13
 308 607 308 607 278 641 c 128,-1,14
 248 675 248 675 198 675 c 128,-1,15
 148 675 148 675 118 641 c 128,-1,8
 88 607 88 607 88 545 c 128,-1,9
EndSplineSet
EndChar

StartChar: guillemotright
Encoding: 187 187 124
Width: 499
GlyphClass: 2
Flags: W
LayerCount: 2
Fore
SplineSet
75 429 m 2,0,1
 69 434 69 434 69 440 c 1,2,3
 70 444 70 444 78 452 c 128,-1,4
 86 460 86 460 96 450 c 2,5,-1
 282 265 l 2,6,7
 290 257 290 257 290 249 c 256,8,9
 290 241 290 241 281 232 c 2,10,-1
 98 50 l 2,11,12
 88 40 88 40 80 48 c 128,-1,13
 72 56 72 56 71.5 61 c 128,-1,14
 71 66 71 66 77 71 c 2,15,-1
 246 240 l 2,16,17
 255 249 255 249 246 258 c 2,18,-1
 75 429 l 2,0,1
200 474 m 2,19,20
 195 479 195 479 195 484.5 c 128,-1,21
 195 490 195 490 200 495 c 128,-1,22
 205 500 205 500 210 500 c 128,-1,23
 215 500 215 500 221 495 c 2,24,-1
 452 265 l 2,25,26
 460 257 460 257 460 249 c 256,27,28
 460 241 460 241 451 232 c 2,29,-1
 223 5 l 2,30,31
 218 0 218 0 212.5 0 c 128,-1,32
 207 0 207 0 202 5 c 128,-1,33
 197 10 197 10 197 15.5 c 128,-1,34
 197 21 197 21 202 26 c 2,35,-1
 416 240 l 2,36,37
 425 249 425 249 416 258 c 2,38,-1
 200 474 l 2,19,20
EndSplineSet
EndChar

StartChar: onequarter
Encoding: 188 188 125
Width: 672
GlyphClass: 2
Flags: W
LayerCount: 2
Fore
SplineSet
71 607 m 1,0,1
 60 596 60 596 52 605 c 128,-1,2
 44 614 44 614 44 619.5 c 128,-1,3
 44 625 44 625 51 630 c 2,4,-1
 125 691 l 1,5,6
 146 706 146 706 152 706 c 0,7,8
 172 706 172 706 172 691 c 2,9,-1
 172 436 l 2,10,11
 172 421 172 421 187 421 c 2,12,-1
 227 421 l 2,13,14
 242 421 242 421 242 406 c 128,-1,15
 242 391 242 391 227 391 c 2,16,-1
 87 391 l 2,17,18
 72 391 72 391 72 406 c 128,-1,19
 72 421 72 421 87 421 c 2,20,-1
 127 421 l 2,21,22
 142 421 142 421 142 436 c 2,23,-1
 142 656 l 2,24,25
 142 666 142 666 128 656 c 1,26,-1
 71 607 l 1,0,1
104 23 m 2,27,-1
 537 692 l 2,28,29
 542 699 542 699 547.5 699 c 128,-1,30
 553 699 553 699 557 697 c 0,31,32
 571 687 571 687 561 677 c 1,33,-1
 129 7 l 2,34,35
 121 -4 121 -4 110.5 1.5 c 128,-1,36
 100 7 100 7 100 12.5 c 128,-1,37
 100 18 100 18 104 23 c 2,27,-1
344 88 m 1,38,-1
 344 93 l 2,39,40
 344 97 344 97 347 100 c 0,41,42
 397 143 397 143 422 188.5 c 128,-1,43
 447 234 447 234 447 305 c 0,44,45
 447 320 447 320 462 320 c 128,-1,46
 477 320 477 320 477 305 c 0,47,48
 477 240 477 240 455.5 189 c 128,-1,49
 434 138 434 138 402 110 c 1,50,-1
 532 110 l 2,51,52
 547 110 547 110 547 125 c 2,53,-1
 547 231 l 2,54,55
 547 246 547 246 562 246 c 128,-1,56
 577 246 577 246 577 231 c 2,57,-1
 577 125 l 2,58,59
 577 110 577 110 592 110 c 2,60,-1
 622 110 l 2,61,62
 637 110 637 110 637 95 c 128,-1,63
 637 80 637 80 622 80 c 2,64,-1
 592 80 l 2,65,66
 577 80 577 80 577 65 c 2,67,-1
 577 10 l 2,68,69
 577 -5 577 -5 562 -5 c 128,-1,70
 547 -5 547 -5 547 10 c 2,71,-1
 547 65 l 2,72,73
 547 80 547 80 532 80 c 2,74,-1
 357 80 l 2,75,76
 347 80 347 80 344 88 c 1,38,-1
EndSplineSet
EndChar

StartChar: onehalf
Encoding: 189 189 126
Width: 674
GlyphClass: 2
Flags: W
LayerCount: 2
Fore
SplineSet
66 607 m 1,0,1
 56 596 56 596 47.5 605 c 128,-1,2
 39 614 39 614 39 619.5 c 128,-1,3
 39 625 39 625 46 630 c 2,4,-1
 120 691 l 1,5,6
 141 706 141 706 147 706 c 0,7,8
 167 706 167 706 167 691 c 2,9,-1
 167 436 l 2,10,11
 167 421 167 421 182 421 c 2,12,-1
 222 421 l 2,13,14
 237 421 237 421 237 406 c 128,-1,15
 237 391 237 391 222 391 c 2,16,-1
 82 391 l 2,17,18
 67 391 67 391 67 406 c 128,-1,19
 67 421 67 421 82 421 c 2,20,-1
 122 421 l 2,21,22
 137 421 137 421 137 436 c 2,23,-1
 137 656 l 2,24,25
 137 666 137 666 123 656 c 1,26,-1
 66 607 l 1,0,1
99 23 m 2,27,-1
 532 692 l 2,28,29
 537 699 537 699 542.5 699 c 128,-1,30
 548 699 548 699 552 697 c 0,31,32
 566 687 566 687 556 677 c 1,33,-1
 124 7 l 2,34,35
 119 0 119 0 113.5 0 c 128,-1,36
 108 0 108 0 101.5 3.5 c 128,-1,37
 95 7 95 7 95 12.5 c 128,-1,38
 95 18 95 18 99 23 c 2,27,-1
375 15 m 2,39,-1
 375 45 l 2,40,41
 375 87 375 87 409.5 114 c 128,-1,42
 444 141 444 141 485 150.5 c 128,-1,43
 526 160 526 160 560.5 178.5 c 128,-1,44
 595 197 595 197 595 225 c 0,45,46
 595 285 595 285 495 285 c 0,47,48
 433 285 433 285 396 244 c 1,49,50
 388 231 388 231 375 244 c 0,51,52
 370 249 370 249 370 254.5 c 128,-1,53
 370 260 370 260 375 265 c 0,54,55
 425 315 425 315 495 315 c 0,56,57
 625 315 625 315 625 225 c 0,58,59
 625 193 625 193 602.5 172.5 c 128,-1,60
 580 152 580 152 548 142 c 2,61,-1
 483 121 l 1,62,63
 405 97 405 97 405 45 c 0,64,65
 405 30 405 30 420 30 c 2,66,-1
 580 30 l 2,67,68
 595 30 595 30 595 45 c 2,69,-1
 595 70 l 2,70,71
 595 85 595 85 610 85 c 128,-1,72
 625 85 625 85 625 70 c 2,73,-1
 625 15 l 2,74,75
 625 0 625 0 610 0 c 2,76,-1
 390 0 l 2,77,78
 375 0 375 0 375 15 c 2,39,-1
EndSplineSet
EndChar

StartChar: threequarters
Encoding: 190 190 127
Width: 706
GlyphClass: 2
Flags: W
LayerCount: 2
Fore
SplineSet
55 435 m 0,0,1
 50 441 50 441 50 446 c 1,2,3
 49 450 49 450 57 458 c 128,-1,4
 65 466 65 466 76 456 c 1,5,6
 92 439 92 439 119.5 427 c 128,-1,7
 147 415 147 415 176 415 c 0,8,9
 271 415 271 415 271 470 c 0,10,11
 271 500 271 500 250 517.5 c 128,-1,12
 229 535 229 535 191 535 c 2,13,-1
 126 535 l 1,14,15
 111 536 111 536 111 550 c 128,-1,16
 111 564 111 564 126 564 c 2,17,-1
 191 564 l 2,18,19
 261 564 261 564 261 620 c 128,-1,20
 261 676 261 676 171 675 c 0,21,22
 113 675 113 675 78 638 c 1,23,24
 67 628 67 628 59 636 c 128,-1,25
 51 644 51 644 51.5 649 c 128,-1,26
 52 654 52 654 57 659 c 0,27,28
 73 678 73 678 105.5 691.5 c 128,-1,29
 138 705 138 705 184 705 c 128,-1,30
 230 705 230 705 260.5 682 c 128,-1,31
 291 659 291 659 291 615 c 128,-1,32
 291 571 291 571 241 550 c 1,33,34
 301 528 301 528 301 470 c 0,35,36
 301 430 301 430 269.5 407.5 c 128,-1,37
 238 385 238 385 189 385 c 128,-1,38
 140 385 140 385 106 400 c 128,-1,39
 72 415 72 415 55 435 c 0,0,1
139 23 m 2,40,-1
 572 692 l 2,41,42
 577 699 577 699 583 699 c 128,-1,43
 589 699 589 699 592 697 c 0,44,45
 606 687 606 687 596 677 c 1,46,-1
 164 7 l 1,47,48
 155 -4 155 -4 145 2 c 128,-1,49
 135 8 135 8 135 12 c 0,50,51
 135 18 135 18 139 23 c 2,40,-1
379 88 m 1,52,-1
 379 93 l 2,53,54
 379 97 379 97 382 100 c 0,55,56
 432 143 432 143 457 188.5 c 128,-1,57
 482 234 482 234 482 305 c 0,58,59
 482 320 482 320 497 320 c 128,-1,60
 512 320 512 320 512 305 c 0,61,62
 512 240 512 240 490.5 189 c 128,-1,63
 469 138 469 138 437 110 c 1,64,-1
 567 110 l 2,65,66
 582 110 582 110 582 125 c 2,67,-1
 582 231 l 2,68,69
 582 246 582 246 597 246 c 128,-1,70
 612 246 612 246 612 231 c 2,71,-1
 612 125 l 2,72,73
 612 110 612 110 627 110 c 2,74,-1
 657 110 l 2,75,76
 672 110 672 110 672 95 c 128,-1,77
 672 80 672 80 657 80 c 2,78,-1
 627 80 l 2,79,80
 612 80 612 80 612 65 c 2,81,-1
 612 10 l 2,82,83
 612 -5 612 -5 597 -5 c 128,-1,84
 582 -5 582 -5 582 10 c 2,85,-1
 582 65 l 2,86,87
 582 80 582 80 567 80 c 2,88,-1
 392 80 l 2,89,90
 382 80 382 80 379 88 c 1,52,-1
EndSplineSet
EndChar

StartChar: questiondown
Encoding: 191 191 128
Width: 532
GlyphClass: 2
Flags: W
LayerCount: 2
Fore
SplineSet
83 102 m 0,0,1
 102 123 102 123 125 141 c 2,2,-1
 170 176 l 2,3,4
 193 194 193 194 212 212 c 0,5,6
 255 254 255 254 255 315 c 0,7,8
 255 330 255 330 270 330 c 128,-1,9
 285 330 285 330 285 315 c 0,10,11
 285 264 285 264 263 226.5 c 128,-1,12
 241 189 241 189 210 165 c 1,13,-1
 146 119 l 2,14,15
 70 64 70 64 70 -20 c 0,16,17
 70 -84 70 -84 124 -132 c 128,-1,18
 178 -180 178 -180 270.5 -180 c 128,-1,19
 363 -180 363 -180 416.5 -134.5 c 128,-1,20
 470 -89 470 -89 470 -10 c 0,21,22
 470 5 470 5 485 5 c 128,-1,23
 500 5 500 5 500 -10 c 0,24,25
 500 -101 500 -101 439 -155.5 c 128,-1,26
 378 -210 378 -210 270.5 -210 c 128,-1,27
 163 -210 163 -210 101.5 -153.5 c 128,-1,28
 40 -97 40 -97 40 -21.5 c 128,-1,29
 40 54 40 54 83 102 c 0,0,1
234 424 m 256,30,31
 220 438 220 438 220 460 c 128,-1,32
 220 482 220 482 234 496 c 128,-1,33
 248 510 248 510 270 510 c 128,-1,34
 292 510 292 510 306 496 c 128,-1,35
 320 482 320 482 320 460 c 128,-1,36
 320 438 320 438 306 424 c 128,-1,37
 292 410 292 410 270 410 c 128,-1,38
 248 410 248 410 234 424 c 256,30,31
EndSplineSet
EndChar

StartChar: Agrave
Encoding: 192 192 129
Width: 724
GlyphClass: 2
Flags: W
LayerCount: 2
Fore
SplineSet
257 890 m 2,0,1
 253 895 253 895 253 900.5 c 128,-1,2
 253 906 253 906 261 910 c 1,3,4
 266 915 266 915 271.5 915 c 128,-1,5
 277 915 277 915 282 906 c 1,6,-1
 371 779 l 2,7,8
 375 774 375 774 375 769 c 256,9,10
 375 764 375 764 368 759 c 1,11,12
 362 756 362 756 356.5 756 c 128,-1,13
 351 756 351 756 347 762 c 2,14,-1
 257 890 l 2,0,1
368 645 m 2,15,16
 366 651 366 651 362 651 c 128,-1,17
 358 651 358 651 356 645 c 2,18,-1
 219 289 l 1,19,20
 211 274 211 274 230 274 c 2,21,-1
 494 274 l 2,22,23
 512 274 512 274 505 289 c 1,24,-1
 368 645 l 2,15,16
528 230 m 2,25,26
 522 244 522 244 504 244 c 2,27,-1
 220 244 l 2,28,29
 202 244 202 244 196 230 c 2,30,-1
 125 45 l 1,31,32
 117 30 117 30 135 30 c 2,33,-1
 195 30 l 2,34,35
 210 30 210 30 210 15 c 256,36,37
 210 0 210 0 195 0 c 2,38,-1
 5 0 l 2,39,40
 -10 0 -10 0 -10 15 c 256,41,42
 -10 30 -10 30 5 30 c 2,43,-1
 70 30 l 2,44,45
 82 30 82 30 90 45 c 1,46,-1
 340 695 l 1,47,48
 344 710 344 710 362 710 c 128,-1,49
 380 710 380 710 384 695 c 1,50,-1
 634 45 l 1,51,52
 641 30 641 30 654 30 c 2,53,-1
 719 30 l 2,54,55
 734 30 734 30 734 15 c 256,56,57
 734 0 734 0 719 0 c 2,58,-1
 529 0 l 2,59,60
 514 0 514 0 514 15 c 256,61,62
 514 30 514 30 529 30 c 2,63,-1
 589 30 l 2,64,65
 606 30 606 30 599 45 c 1,66,-1
 528 230 l 2,25,26
EndSplineSet
EndChar

StartChar: Aacute
Encoding: 193 193 130
Width: 724
GlyphClass: 2
Flags: W
LayerCount: 2
Fore
SplineSet
351 779 m 2,0,-1
 440 906 l 1,1,2
 445 915 445 915 450.5 915 c 128,-1,3
 456 915 456 915 461 910 c 1,4,5
 469 906 469 906 469 900.5 c 128,-1,6
 469 895 469 895 465 890 c 2,7,-1
 375 762 l 2,8,9
 370 756 370 756 364.5 756 c 128,-1,10
 359 756 359 756 354 759 c 0,11,12
 347 764 347 764 347 769 c 256,13,14
 347 774 347 774 351 779 c 2,0,-1
368 645 m 2,15,16
 366 651 366 651 362 651 c 128,-1,17
 358 651 358 651 356 645 c 2,18,-1
 219 289 l 1,19,20
 211 274 211 274 230 274 c 2,21,-1
 494 274 l 2,22,23
 512 274 512 274 505 289 c 1,24,-1
 368 645 l 2,15,16
528 230 m 2,25,26
 522 244 522 244 504 244 c 2,27,-1
 220 244 l 2,28,29
 202 244 202 244 196 230 c 2,30,-1
 125 45 l 1,31,32
 117 30 117 30 135 30 c 2,33,-1
 195 30 l 2,34,35
 210 30 210 30 210 15 c 256,36,37
 210 0 210 0 195 0 c 2,38,-1
 5 0 l 2,39,40
 -10 0 -10 0 -10 15 c 256,41,42
 -10 30 -10 30 5 30 c 2,43,-1
 70 30 l 2,44,45
 82 30 82 30 90 45 c 1,46,-1
 340 695 l 1,47,48
 344 710 344 710 362 710 c 128,-1,49
 380 710 380 710 384 695 c 1,50,-1
 634 45 l 1,51,52
 641 30 641 30 654 30 c 2,53,-1
 719 30 l 2,54,55
 734 30 734 30 734 15 c 256,56,57
 734 0 734 0 719 0 c 2,58,-1
 529 0 l 2,59,60
 514 0 514 0 514 15 c 256,61,62
 514 30 514 30 529 30 c 2,63,-1
 589 30 l 2,64,65
 606 30 606 30 599 45 c 1,66,-1
 528 230 l 2,25,26
EndSplineSet
EndChar

StartChar: Acircumflex
Encoding: 194 194 131
Width: 724
GlyphClass: 2
Flags: W
LayerCount: 2
Fore
SplineSet
237 761 m 2,0,-1
 344 870 l 2,1,2
 353 879 353 879 361 879 c 256,3,4
 369 879 369 879 377 871 c 2,5,-1
 487 761 l 2,6,7
 493 756 493 756 493 750.5 c 128,-1,8
 493 745 493 745 487.5 740 c 128,-1,9
 482 735 482 735 476.5 735 c 128,-1,10
 471 735 471 735 466 740 c 2,11,-1
 370 835 l 2,12,13
 361 844 361 844 352 835 c 2,14,-1
 258 740 l 2,15,16
 253 735 253 735 248 735 c 128,-1,17
 243 735 243 735 237.5 740 c 128,-1,18
 232 745 232 745 232 750.5 c 128,-1,19
 232 756 232 756 237 761 c 2,0,-1
368 645 m 2,20,21
 366 651 366 651 362 651 c 128,-1,22
 358 651 358 651 356 645 c 2,23,-1
 219 289 l 1,24,25
 211 274 211 274 230 274 c 2,26,-1
 494 274 l 2,27,28
 512 274 512 274 505 289 c 1,29,-1
 368 645 l 2,20,21
528 230 m 2,30,31
 522 244 522 244 504 244 c 2,32,-1
 220 244 l 2,33,34
 202 244 202 244 196 230 c 2,35,-1
 125 45 l 1,36,37
 117 30 117 30 135 30 c 2,38,-1
 195 30 l 2,39,40
 210 30 210 30 210 15 c 256,41,42
 210 0 210 0 195 0 c 2,43,-1
 5 0 l 2,44,45
 -10 0 -10 0 -10 15 c 256,46,47
 -10 30 -10 30 5 30 c 2,48,-1
 70 30 l 2,49,50
 82 30 82 30 90 45 c 1,51,-1
 340 695 l 1,52,53
 344 710 344 710 362 710 c 128,-1,54
 380 710 380 710 384 695 c 1,55,-1
 634 45 l 1,56,57
 641 30 641 30 654 30 c 2,58,-1
 719 30 l 2,59,60
 734 30 734 30 734 15 c 256,61,62
 734 0 734 0 719 0 c 2,63,-1
 529 0 l 2,64,65
 514 0 514 0 514 15 c 256,66,67
 514 30 514 30 529 30 c 2,68,-1
 589 30 l 2,69,70
 606 30 606 30 599 45 c 1,71,-1
 528 230 l 2,30,31
EndSplineSet
EndChar

StartChar: Atilde
Encoding: 195 195 132
Width: 724
GlyphClass: 2
Flags: W
LayerCount: 2
Fore
SplineSet
237 761 m 0,0,1
 237 804 237 804 256.5 827.5 c 128,-1,2
 276 851 276 851 302 851 c 0,3,4
 348 851 348 851 369 813.5 c 128,-1,5
 390 776 390 776 417 776 c 0,6,7
 457 776 457 776 457 836 c 0,8,9
 457 851 457 851 472 851 c 128,-1,10
 487 851 487 851 487 836 c 0,11,12
 487 792 487 792 467.5 769 c 128,-1,13
 448 746 448 746 422 746 c 0,14,15
 376 746 376 746 355 783.5 c 128,-1,16
 334 821 334 821 307 821 c 0,17,18
 267 821 267 821 267 761 c 0,19,20
 267 746 267 746 252 746 c 128,-1,21
 237 746 237 746 237 761 c 0,0,1
368 645 m 2,22,23
 366 651 366 651 362 651 c 128,-1,24
 358 651 358 651 356 645 c 2,25,-1
 219 289 l 1,26,27
 211 274 211 274 230 274 c 2,28,-1
 494 274 l 2,29,30
 512 274 512 274 505 289 c 1,31,-1
 368 645 l 2,22,23
528 230 m 2,32,33
 522 244 522 244 504 244 c 2,34,-1
 220 244 l 2,35,36
 202 244 202 244 196 230 c 2,37,-1
 125 45 l 1,38,39
 117 30 117 30 135 30 c 2,40,-1
 195 30 l 2,41,42
 210 30 210 30 210 15 c 256,43,44
 210 0 210 0 195 0 c 2,45,-1
 5 0 l 2,46,47
 -10 0 -10 0 -10 15 c 256,48,49
 -10 30 -10 30 5 30 c 2,50,-1
 70 30 l 2,51,52
 82 30 82 30 90 45 c 1,53,-1
 340 695 l 1,54,55
 344 710 344 710 362 710 c 128,-1,56
 380 710 380 710 384 695 c 1,57,-1
 634 45 l 1,58,59
 641 30 641 30 654 30 c 2,60,-1
 719 30 l 2,61,62
 734 30 734 30 734 15 c 256,63,64
 734 0 734 0 719 0 c 2,65,-1
 529 0 l 2,66,67
 514 0 514 0 514 15 c 256,68,69
 514 30 514 30 529 30 c 2,70,-1
 589 30 l 2,71,72
 606 30 606 30 599 45 c 1,73,-1
 528 230 l 2,32,33
EndSplineSet
EndChar

StartChar: Adieresis
Encoding: 196 196 133
Width: 724
GlyphClass: 2
Flags: W
LayerCount: 2
Fore
SplineSet
253 756 m 1,0,1
 242 768 242 768 242 785 c 128,-1,2
 242 802 242 802 253.5 813.5 c 128,-1,3
 265 825 265 825 282 825 c 128,-1,4
 299 825 299 825 310.5 813.5 c 128,-1,5
 322 802 322 802 322 785 c 128,-1,6
 322 768 322 768 310.5 756.5 c 128,-1,7
 299 745 299 745 282 745 c 128,-1,8
 265 745 265 745 253 756 c 1,0,1
413 756 m 1,9,10
 402 768 402 768 402 785 c 128,-1,11
 402 802 402 802 413.5 813.5 c 128,-1,12
 425 825 425 825 442 825 c 128,-1,13
 459 825 459 825 470.5 813.5 c 128,-1,14
 482 802 482 802 482 785 c 128,-1,15
 482 768 482 768 470.5 756.5 c 128,-1,16
 459 745 459 745 442 745 c 128,-1,17
 425 745 425 745 413 756 c 1,9,10
368 645 m 2,18,19
 366 651 366 651 362 651 c 128,-1,20
 358 651 358 651 356 645 c 2,21,-1
 219 289 l 1,22,23
 211 274 211 274 230 274 c 2,24,-1
 494 274 l 2,25,26
 512 274 512 274 505 289 c 1,27,-1
 368 645 l 2,18,19
528 230 m 2,28,29
 522 244 522 244 504 244 c 2,30,-1
 220 244 l 2,31,32
 202 244 202 244 196 230 c 2,33,-1
 125 45 l 1,34,35
 117 30 117 30 135 30 c 2,36,-1
 195 30 l 2,37,38
 210 30 210 30 210 15 c 256,39,40
 210 0 210 0 195 0 c 2,41,-1
 5 0 l 2,42,43
 -10 0 -10 0 -10 15 c 256,44,45
 -10 30 -10 30 5 30 c 2,46,-1
 70 30 l 2,47,48
 82 30 82 30 90 45 c 1,49,-1
 340 695 l 1,50,51
 344 710 344 710 362 710 c 128,-1,52
 380 710 380 710 384 695 c 1,53,-1
 634 45 l 1,54,55
 641 30 641 30 654 30 c 2,56,-1
 719 30 l 2,57,58
 734 30 734 30 734 15 c 256,59,60
 734 0 734 0 719 0 c 2,61,-1
 529 0 l 2,62,63
 514 0 514 0 514 15 c 256,64,65
 514 30 514 30 529 30 c 2,66,-1
 589 30 l 2,67,68
 606 30 606 30 599 45 c 1,69,-1
 528 230 l 2,28,29
EndSplineSet
EndChar

StartChar: Aring
Encoding: 197 197 134
Width: 725
GlyphClass: 2
Flags: W
LayerCount: 2
Fore
SplineSet
528 230 m 2,0,1
 522 244 522 244 504 244 c 2,2,-1
 220 244 l 2,3,4
 202 244 202 244 196 230 c 2,5,-1
 125 45 l 1,6,7
 117 30 117 30 135 30 c 2,8,-1
 195 30 l 2,9,10
 210 30 210 30 210 15 c 256,11,12
 210 0 210 0 195 0 c 2,13,-1
 5 0 l 2,14,15
 -10 0 -10 0 -10 15 c 256,16,17
 -10 30 -10 30 5 30 c 2,18,-1
 70 30 l 2,19,20
 82 30 82 30 90 45 c 1,21,-1
 336 684 l 1,22,23
 283 702 283 702 283 760 c 0,24,25
 283 794 283 794 305 817 c 128,-1,26
 327 840 327 840 362 840 c 256,27,28
 397 840 397 840 420 817 c 128,-1,29
 443 794 443 794 443 764 c 0,30,31
 443 701 443 701 388 684 c 1,32,-1
 634 45 l 1,33,34
 641 30 641 30 654 30 c 2,35,-1
 719 30 l 2,36,37
 734 30 734 30 734 15 c 256,38,39
 734 0 734 0 719 0 c 2,40,-1
 529 0 l 2,41,42
 514 0 514 0 514 15 c 256,43,44
 514 30 514 30 529 30 c 2,45,-1
 589 30 l 2,46,47
 606 30 606 30 599 45 c 1,48,-1
 528 230 l 2,0,1
368 645 m 2,49,50
 366 651 366 651 362 651 c 128,-1,51
 358 651 358 651 356 645 c 2,52,-1
 219 289 l 2,53,54
 217 285 217 285 217 281 c 0,55,56
 217 274 217 274 230 274 c 2,57,-1
 494 274 l 2,58,59
 507 274 507 274 507 282 c 0,60,61
 507 285 507 285 505 289 c 2,62,-1
 368 645 l 2,49,50
411 760 m 256,63,64
 411 783 411 783 396.5 796.5 c 128,-1,65
 382 810 382 810 362 810 c 256,66,67
 342 810 342 810 327.5 796.5 c 128,-1,68
 313 783 313 783 313 760 c 256,69,70
 313 737 313 737 327.5 723.5 c 128,-1,71
 342 710 342 710 362 710 c 256,72,73
 382 710 382 710 396.5 723.5 c 128,-1,74
 411 737 411 737 411 760 c 256,63,64
EndSplineSet
EndChar

StartChar: AE
Encoding: 198 198 135
Width: 964
GlyphClass: 2
Flags: W
LayerCount: 2
Fore
SplineSet
496 255 m 2,0,1
 496 270 496 270 481 270 c 2,2,-1
 252 270 l 2,3,4
 234 270 234 270 228 256 c 1,5,-1
 111 45 l 2,6,7
 103 30 103 30 121 30 c 2,8,-1
 181 30 l 2,9,10
 196 30 196 30 196 15 c 256,11,12
 196 0 196 0 181 0 c 2,13,-1
 -9 0 l 2,14,15
 -24 0 -24 0 -24 15 c 256,16,17
 -24 30 -24 30 -9 30 c 2,18,-1
 56 30 l 2,19,20
 68 30 68 30 76 45 c 2,21,-1
 428 680 l 1,22,23
 437 700 437 700 454 700 c 2,24,-1
 886 700 l 2,25,26
 901 700 901 700 901 685 c 2,27,-1
 901 545 l 2,28,29
 901 530 901 530 886 530 c 256,30,31
 871 530 871 530 871 545 c 2,32,-1
 871 655 l 2,33,34
 871 670 871 670 856 670 c 2,35,-1
 541 670 l 2,36,37
 526 670 526 670 526 655 c 2,38,-1
 526 385 l 2,39,40
 526 370 526 370 541 370 c 2,41,-1
 766 370 l 2,42,43
 781 370 781 370 781 385 c 2,44,-1
 781 435 l 2,45,46
 781 450 781 450 796 450 c 256,47,48
 811 450 811 450 811 435 c 2,49,-1
 811 275 l 2,50,51
 811 260 811 260 796 260 c 256,52,53
 781 260 781 260 781 275 c 2,54,-1
 781 325 l 2,55,56
 781 340 781 340 766 340 c 2,57,-1
 541 340 l 2,58,59
 526 340 526 340 526 325 c 2,60,-1
 526 45 l 2,61,62
 526 30 526 30 541 30 c 2,63,-1
 866 30 l 2,64,65
 881 30 881 30 881 45 c 2,66,-1
 881 155 l 2,67,68
 881 170 881 170 896 170 c 256,69,70
 911 170 911 170 911 155 c 2,71,-1
 911 15 l 2,72,73
 911 0 911 0 896 0 c 2,74,-1
 421 0 l 2,75,76
 406 0 406 0 406 15 c 256,77,78
 406 30 406 30 421 30 c 2,79,-1
 481 30 l 2,80,81
 496 30 496 30 496 45 c 2,82,-1
 496 255 l 2,0,1
496 655 m 2,83,84
 496 670 496 670 481 670 c 2,85,-1
 470 670 l 2,86,87
 457 670 457 670 450 655 c 1,88,-1
 261 315 l 2,89,90
 259 311 259 311 259 307 c 0,91,92
 259 300 259 300 272 300 c 2,93,-1
 481 300 l 2,94,95
 496 300 496 300 496 315 c 2,96,-1
 496 655 l 2,83,84
EndSplineSet
EndChar

StartChar: Ccedilla
Encoding: 199 199 136
Width: 696
GlyphClass: 2
Flags: W
LayerCount: 2
Fore
SplineSet
367 -150 m 0,0,1
 437 -150 437 -150 437 -110 c 0,2,3
 437 -93 437 -93 424.5 -81.5 c 128,-1,4
 412 -70 412 -70 387 -70 c 2,5,-1
 372 -70 l 2,6,7
 357 -70 357 -70 357 -55 c 2,8,-1
 357 0 l 2,9,10
 357 15 357 15 372 15 c 128,-1,11
 387 15 387 15 387 0 c 2,12,-1
 387 -40 l 1,13,14
 424 -40 424 -40 445.5 -59.5 c 128,-1,15
 467 -79 467 -79 467 -110.5 c 128,-1,16
 467 -142 467 -142 442.5 -161 c 128,-1,17
 418 -180 418 -180 367 -180 c 0,18,19
 352 -180 352 -180 352 -165 c 128,-1,20
 352 -150 352 -150 367 -150 c 0,0,1
59 350 m 256,21,22
 59 194 59 194 151 92 c 128,-1,23
 243 -10 243 -10 392.5 -10 c 128,-1,24
 542 -10 542 -10 644 90 c 0,25,26
 649 95 649 95 649 100 c 128,-1,27
 649 105 649 105 641 113 c 128,-1,28
 633 121 633 121 623 111 c 0,29,30
 537 20 537 20 397 20 c 128,-1,31
 257 20 257 20 173 113 c 256,32,33
 89 206 89 206 89 348.5 c 128,-1,34
 89 491 89 491 170 585.5 c 128,-1,35
 251 680 251 680 374 680 c 0,36,37
 464 680 464 680 546 622 c 0,38,39
 582 596 582 596 609 565 c 1,40,-1
 609 495 l 2,41,42
 609 480 609 480 624 480 c 256,43,44
 639 480 639 480 639 495 c 2,45,-1
 639 685 l 2,46,47
 639 700 639 700 624 700 c 256,48,49
 609 700 609 700 609 685 c 2,50,-1
 609 635 l 2,51,52
 609 612 609 612 593 625 c 0,53,54
 495 710 495 710 374 710 c 0,55,56
 235 710 235 710 147 608 c 128,-1,57
 59 506 59 506 59 350 c 256,21,22
EndSplineSet
EndChar

StartChar: Egrave
Encoding: 200 200 137
Width: 614
GlyphClass: 2
Flags: W
LayerCount: 2
Fore
SplineSet
46 15 m 128,-1,1
 46 30 46 30 61 30 c 2,2,-1
 131 30 l 2,3,4
 146 30 146 30 146 45 c 2,5,-1
 146 655 l 2,6,7
 146 670 146 670 131 670 c 2,8,-1
 61 670 l 2,9,10
 46 670 46 670 46 685 c 128,-1,11
 46 700 46 700 61 700 c 2,12,-1
 536 700 l 2,13,14
 551 700 551 700 551 685 c 2,15,-1
 551 545 l 2,16,17
 551 530 551 530 536 530 c 128,-1,18
 521 530 521 530 521 545 c 2,19,-1
 521 655 l 2,20,21
 521 670 521 670 506 670 c 2,22,-1
 191 670 l 2,23,24
 176 670 176 670 176 655 c 2,25,-1
 176 385 l 2,26,27
 176 370 176 370 191 370 c 2,28,-1
 416 370 l 2,29,30
 431 370 431 370 431 385 c 2,31,-1
 431 435 l 2,32,33
 431 450 431 450 446 450 c 128,-1,34
 461 450 461 450 461 435 c 2,35,-1
 461 275 l 2,36,37
 461 260 461 260 446 260 c 128,-1,38
 431 260 431 260 431 275 c 2,39,-1
 431 325 l 2,40,41
 431 340 431 340 416 340 c 2,42,-1
 191 340 l 2,43,44
 176 340 176 340 176 325 c 2,45,-1
 176 45 l 2,46,47
 176 30 176 30 191 30 c 2,48,-1
 516 30 l 2,49,50
 531 30 531 30 531 45 c 2,51,-1
 531 155 l 2,52,53
 531 170 531 170 546 170 c 128,-1,54
 561 170 561 170 561 155 c 2,55,-1
 561 15 l 2,56,57
 561 0 561 0 546 0 c 2,58,-1
 61 0 l 2,59,0
 46 0 46 0 46 15 c 128,-1,1
236 895 m 2,60,61
 232 900 232 900 232 906 c 128,-1,62
 232 912 232 912 240 915 c 1,63,64
 244 920 244 920 250 920 c 128,-1,65
 256 920 256 920 261 911 c 1,66,-1
 350 784 l 2,67,68
 354 779 354 779 354 774 c 256,69,70
 354 769 354 769 347 764 c 0,71,72
 342 761 342 761 336 761 c 128,-1,73
 330 761 330 761 326 767 c 2,74,-1
 236 895 l 2,60,61
EndSplineSet
EndChar

StartChar: Eacute
Encoding: 201 201 138
Width: 614
GlyphClass: 2
Flags: W
LayerCount: 2
Fore
SplineSet
46 15 m 128,-1,1
 46 30 46 30 61 30 c 2,2,-1
 131 30 l 2,3,4
 146 30 146 30 146 45 c 2,5,-1
 146 655 l 2,6,7
 146 670 146 670 131 670 c 2,8,-1
 61 670 l 2,9,10
 46 670 46 670 46 685 c 128,-1,11
 46 700 46 700 61 700 c 2,12,-1
 536 700 l 2,13,14
 551 700 551 700 551 685 c 2,15,-1
 551 545 l 2,16,17
 551 530 551 530 536 530 c 128,-1,18
 521 530 521 530 521 545 c 2,19,-1
 521 655 l 2,20,21
 521 670 521 670 506 670 c 2,22,-1
 191 670 l 2,23,24
 176 670 176 670 176 655 c 2,25,-1
 176 385 l 2,26,27
 176 370 176 370 191 370 c 2,28,-1
 416 370 l 2,29,30
 431 370 431 370 431 385 c 2,31,-1
 431 435 l 2,32,33
 431 450 431 450 446 450 c 128,-1,34
 461 450 461 450 461 435 c 2,35,-1
 461 275 l 2,36,37
 461 260 461 260 446 260 c 128,-1,38
 431 260 431 260 431 275 c 2,39,-1
 431 325 l 2,40,41
 431 340 431 340 416 340 c 2,42,-1
 191 340 l 2,43,44
 176 340 176 340 176 325 c 2,45,-1
 176 45 l 2,46,47
 176 30 176 30 191 30 c 2,48,-1
 516 30 l 2,49,50
 531 30 531 30 531 45 c 2,51,-1
 531 155 l 2,52,53
 531 170 531 170 546 170 c 128,-1,54
 561 170 561 170 561 155 c 2,55,-1
 561 15 l 2,56,57
 561 0 561 0 546 0 c 2,58,-1
 61 0 l 2,59,0
 46 0 46 0 46 15 c 128,-1,1
296 774 m 2,60,-1
 385 901 l 1,61,62
 390 910 390 910 396 910 c 128,-1,63
 402 910 402 910 406 905 c 1,64,65
 414 902 414 902 414 896 c 128,-1,66
 414 890 414 890 410 885 c 2,67,-1
 320 757 l 2,68,69
 316 751 316 751 310 751 c 128,-1,70
 304 751 304 751 299 754 c 0,71,72
 292 759 292 759 292 764 c 256,73,74
 292 769 292 769 296 774 c 2,60,-1
EndSplineSet
EndChar

StartChar: Ecircumflex
Encoding: 202 202 139
Width: 614
GlyphClass: 2
Flags: W
LayerCount: 2
Fore
SplineSet
46 15 m 128,-1,1
 46 30 46 30 61 30 c 2,2,-1
 131 30 l 2,3,4
 146 30 146 30 146 45 c 2,5,-1
 146 655 l 2,6,7
 146 670 146 670 131 670 c 2,8,-1
 61 670 l 2,9,10
 46 670 46 670 46 685 c 128,-1,11
 46 700 46 700 61 700 c 2,12,-1
 536 700 l 2,13,14
 551 700 551 700 551 685 c 2,15,-1
 551 545 l 2,16,17
 551 530 551 530 536 530 c 128,-1,18
 521 530 521 530 521 545 c 2,19,-1
 521 655 l 2,20,21
 521 670 521 670 506 670 c 2,22,-1
 191 670 l 2,23,24
 176 670 176 670 176 655 c 2,25,-1
 176 385 l 2,26,27
 176 370 176 370 191 370 c 2,28,-1
 416 370 l 2,29,30
 431 370 431 370 431 385 c 2,31,-1
 431 435 l 2,32,33
 431 450 431 450 446 450 c 128,-1,34
 461 450 461 450 461 435 c 2,35,-1
 461 275 l 2,36,37
 461 260 461 260 446 260 c 128,-1,38
 431 260 431 260 431 275 c 2,39,-1
 431 325 l 2,40,41
 431 340 431 340 416 340 c 2,42,-1
 191 340 l 2,43,44
 176 340 176 340 176 325 c 2,45,-1
 176 45 l 2,46,47
 176 30 176 30 191 30 c 2,48,-1
 516 30 l 2,49,50
 531 30 531 30 531 45 c 2,51,-1
 531 155 l 2,52,53
 531 170 531 170 546 170 c 128,-1,54
 561 170 561 170 561 155 c 2,55,-1
 561 15 l 2,56,57
 561 0 561 0 546 0 c 2,58,-1
 61 0 l 2,59,0
 46 0 46 0 46 15 c 128,-1,1
188 766 m 128,-1,61
 183 771 183 771 183 776.5 c 128,-1,62
 183 782 183 782 188 787 c 2,63,-1
 295 896 l 2,64,65
 304 905 304 905 312 905 c 256,66,67
 320 905 320 905 328 897 c 2,68,-1
 438 787 l 2,69,70
 443 782 443 782 443 776.5 c 128,-1,71
 443 771 443 771 438 766 c 128,-1,72
 433 761 433 761 427.5 761 c 128,-1,73
 422 761 422 761 417 766 c 2,74,-1
 321 861 l 2,75,76
 312 870 312 870 303 861 c 2,77,-1
 209 766 l 2,78,79
 204 761 204 761 198.5 761 c 128,-1,60
 193 761 193 761 188 766 c 128,-1,61
EndSplineSet
EndChar

StartChar: Edieresis
Encoding: 203 203 140
Width: 614
GlyphClass: 2
Flags: W
LayerCount: 2
Fore
SplineSet
46 15 m 128,-1,1
 46 30 46 30 61 30 c 2,2,-1
 131 30 l 2,3,4
 146 30 146 30 146 45 c 2,5,-1
 146 655 l 2,6,7
 146 670 146 670 131 670 c 2,8,-1
 61 670 l 2,9,10
 46 670 46 670 46 685 c 128,-1,11
 46 700 46 700 61 700 c 2,12,-1
 536 700 l 2,13,14
 551 700 551 700 551 685 c 2,15,-1
 551 545 l 2,16,17
 551 530 551 530 536 530 c 128,-1,18
 521 530 521 530 521 545 c 2,19,-1
 521 655 l 2,20,21
 521 670 521 670 506 670 c 2,22,-1
 191 670 l 2,23,24
 176 670 176 670 176 655 c 2,25,-1
 176 385 l 2,26,27
 176 370 176 370 191 370 c 2,28,-1
 416 370 l 2,29,30
 431 370 431 370 431 385 c 2,31,-1
 431 435 l 2,32,33
 431 450 431 450 446 450 c 128,-1,34
 461 450 461 450 461 435 c 2,35,-1
 461 275 l 2,36,37
 461 260 461 260 446 260 c 128,-1,38
 431 260 431 260 431 275 c 2,39,-1
 431 325 l 2,40,41
 431 340 431 340 416 340 c 2,42,-1
 191 340 l 2,43,44
 176 340 176 340 176 325 c 2,45,-1
 176 45 l 2,46,47
 176 30 176 30 191 30 c 2,48,-1
 516 30 l 2,49,50
 531 30 531 30 531 45 c 2,51,-1
 531 155 l 2,52,53
 531 170 531 170 546 170 c 128,-1,54
 561 170 561 170 561 155 c 2,55,-1
 561 15 l 2,56,57
 561 0 561 0 546 0 c 2,58,-1
 61 0 l 2,59,0
 46 0 46 0 46 15 c 128,-1,1
203 810 m 128,-1,61
 203 827 203 827 214.5 838.5 c 128,-1,62
 226 850 226 850 243 850 c 128,-1,63
 260 850 260 850 271.5 838.5 c 128,-1,64
 283 827 283 827 283 810 c 128,-1,65
 283 793 283 793 271.5 781.5 c 128,-1,66
 260 770 260 770 243 770 c 128,-1,67
 226 770 226 770 214.5 781.5 c 128,-1,60
 203 793 203 793 203 810 c 128,-1,61
363 810 m 128,-1,69
 363 827 363 827 374.5 838.5 c 128,-1,70
 386 850 386 850 403 850 c 128,-1,71
 420 850 420 850 431.5 838.5 c 128,-1,72
 443 827 443 827 443 810 c 128,-1,73
 443 793 443 793 431.5 781.5 c 128,-1,74
 420 770 420 770 403 770 c 128,-1,75
 386 770 386 770 374.5 781.5 c 128,-1,68
 363 793 363 793 363 810 c 128,-1,69
EndSplineSet
EndChar

StartChar: Igrave
Encoding: 204 204 141
Width: 322
GlyphClass: 2
Flags: W
LayerCount: 2
Fore
SplineSet
46 15 m 128,-1,1
 46 30 46 30 61 30 c 2,2,-1
 131 30 l 2,3,4
 146 30 146 30 146 45 c 2,5,-1
 146 655 l 2,6,7
 146 670 146 670 131 670 c 2,8,-1
 61 670 l 2,9,10
 46 670 46 670 46 685 c 128,-1,11
 46 700 46 700 61 700 c 2,12,-1
 261 700 l 2,13,14
 276 700 276 700 276 685 c 128,-1,15
 276 670 276 670 261 670 c 2,16,-1
 191 670 l 2,17,18
 176 670 176 670 176 655 c 2,19,-1
 176 45 l 2,20,21
 176 30 176 30 191 30 c 2,22,-1
 261 30 l 2,23,24
 276 30 276 30 276 15 c 128,-1,25
 276 0 276 0 261 0 c 2,26,-1
 61 0 l 2,27,0
 46 0 46 0 46 15 c 128,-1,1
54 885 m 2,28,29
 50 890 50 890 50 896 c 128,-1,30
 50 902 50 902 58 905 c 1,31,32
 62 910 62 910 68 910 c 128,-1,33
 74 910 74 910 79 901 c 1,34,-1
 168 774 l 2,35,36
 172 769 172 769 172 764 c 256,37,38
 172 759 172 759 165 754 c 0,39,40
 160 751 160 751 154 751 c 128,-1,41
 148 751 148 751 144 757 c 2,42,-1
 54 885 l 2,28,29
EndSplineSet
EndChar

StartChar: Iacute
Encoding: 205 205 142
Width: 322
GlyphClass: 2
Flags: W
LayerCount: 2
Fore
SplineSet
46 15 m 128,-1,1
 46 30 46 30 61 30 c 2,2,-1
 131 30 l 2,3,4
 146 30 146 30 146 45 c 2,5,-1
 146 655 l 2,6,7
 146 670 146 670 131 670 c 2,8,-1
 61 670 l 2,9,10
 46 670 46 670 46 685 c 128,-1,11
 46 700 46 700 61 700 c 2,12,-1
 261 700 l 2,13,14
 276 700 276 700 276 685 c 128,-1,15
 276 670 276 670 261 670 c 2,16,-1
 191 670 l 2,17,18
 176 670 176 670 176 655 c 2,19,-1
 176 45 l 2,20,21
 176 30 176 30 191 30 c 2,22,-1
 261 30 l 2,23,24
 276 30 276 30 276 15 c 128,-1,25
 276 0 276 0 261 0 c 2,26,-1
 61 0 l 2,27,0
 46 0 46 0 46 15 c 128,-1,1
144 774 m 2,28,-1
 233 901 l 1,29,30
 238 910 238 910 244 910 c 128,-1,31
 250 910 250 910 254 905 c 1,32,33
 262 902 262 902 262 896 c 128,-1,34
 262 890 262 890 258 885 c 2,35,-1
 168 757 l 2,36,37
 164 751 164 751 158 751 c 128,-1,38
 152 751 152 751 147 754 c 0,39,40
 140 759 140 759 140 764 c 256,41,42
 140 769 140 769 144 774 c 2,28,-1
EndSplineSet
EndChar

StartChar: Icircumflex
Encoding: 206 206 143
Width: 322
GlyphClass: 2
Flags: W
LayerCount: 2
Fore
SplineSet
57 766 m 2,0,1
 46 756 46 756 38.5 763.5 c 128,-1,2
 31 771 31 771 31 776.5 c 128,-1,3
 31 782 31 782 36 787 c 2,4,-1
 143 896 l 2,5,6
 152 905 152 905 160 905 c 256,7,8
 168 905 168 905 176 897 c 2,9,-1
 286 787 l 2,10,11
 291 782 291 782 291 776.5 c 128,-1,12
 291 771 291 771 283.5 763.5 c 128,-1,13
 276 756 276 756 265 766 c 2,14,-1
 169 861 l 2,15,16
 160 870 160 870 151 861 c 2,17,-1
 57 766 l 2,0,1
46 15 m 128,-1,19
 46 30 46 30 61 30 c 2,20,-1
 131 30 l 2,21,22
 146 30 146 30 146 45 c 2,23,-1
 146 655 l 2,24,25
 146 670 146 670 131 670 c 2,26,-1
 61 670 l 2,27,28
 46 670 46 670 46 685 c 128,-1,29
 46 700 46 700 61 700 c 2,30,-1
 261 700 l 2,31,32
 276 700 276 700 276 685 c 128,-1,33
 276 670 276 670 261 670 c 2,34,-1
 191 670 l 2,35,36
 176 670 176 670 176 655 c 2,37,-1
 176 45 l 2,38,39
 176 30 176 30 191 30 c 2,40,-1
 261 30 l 2,41,42
 276 30 276 30 276 15 c 128,-1,43
 276 0 276 0 261 0 c 2,44,-1
 61 0 l 2,45,18
 46 0 46 0 46 15 c 128,-1,19
EndSplineSet
EndChar

StartChar: Idieresis
Encoding: 207 207 144
Width: 322
GlyphClass: 2
Flags: W
LayerCount: 2
Fore
SplineSet
41 810 m 128,-1,1
 41 827 41 827 52.5 838.5 c 128,-1,2
 64 850 64 850 81 850 c 128,-1,3
 98 850 98 850 109.5 838.5 c 128,-1,4
 121 827 121 827 121 810 c 128,-1,5
 121 793 121 793 109.5 781.5 c 128,-1,6
 98 770 98 770 81 770 c 128,-1,7
 64 770 64 770 52.5 781.5 c 128,-1,0
 41 793 41 793 41 810 c 128,-1,1
46 15 m 128,-1,9
 46 30 46 30 61 30 c 2,10,-1
 131 30 l 2,11,12
 146 30 146 30 146 45 c 2,13,-1
 146 655 l 2,14,15
 146 670 146 670 131 670 c 2,16,-1
 61 670 l 2,17,18
 46 670 46 670 46 685 c 128,-1,19
 46 700 46 700 61 700 c 2,20,-1
 261 700 l 2,21,22
 276 700 276 700 276 685 c 128,-1,23
 276 670 276 670 261 670 c 2,24,-1
 191 670 l 2,25,26
 176 670 176 670 176 655 c 2,27,-1
 176 45 l 2,28,29
 176 30 176 30 191 30 c 2,30,-1
 261 30 l 2,31,32
 276 30 276 30 276 15 c 128,-1,33
 276 0 276 0 261 0 c 2,34,-1
 61 0 l 2,35,8
 46 0 46 0 46 15 c 128,-1,9
201 810 m 128,-1,37
 201 827 201 827 212.5 838.5 c 128,-1,38
 224 850 224 850 241 850 c 128,-1,39
 258 850 258 850 269.5 838.5 c 128,-1,40
 281 827 281 827 281 810 c 128,-1,41
 281 793 281 793 269.5 781.5 c 128,-1,42
 258 770 258 770 241 770 c 128,-1,43
 224 770 224 770 212.5 781.5 c 128,-1,36
 201 793 201 793 201 810 c 128,-1,37
EndSplineSet
EndChar

StartChar: Eth
Encoding: 208 208 145
Width: 734
GlyphClass: 2
Flags: W
LayerCount: 2
Fore
SplineSet
46 15 m 128,-1,1
 46 30 46 30 61 30 c 2,2,-1
 131 30 l 2,3,4
 146 30 146 30 146 45 c 2,5,-1
 146 320 l 2,6,7
 146 335 146 335 131 335 c 2,8,-1
 61 335 l 2,9,10
 46 335 46 335 46 350 c 128,-1,11
 46 365 46 365 61 365 c 2,12,-1
 131 365 l 2,13,14
 146 365 146 365 146 380 c 2,15,-1
 146 655 l 2,16,17
 146 670 146 670 131 670 c 2,18,-1
 61 670 l 2,19,20
 46 670 46 670 46 685 c 128,-1,21
 46 700 46 700 61 700 c 2,22,-1
 341 700 l 2,23,24
 492 700 492 700 584 600 c 128,-1,25
 676 500 676 500 676 350 c 128,-1,26
 676 200 676 200 584 100 c 128,-1,27
 492 0 492 0 341 0 c 2,28,-1
 61 0 l 2,29,0
 46 0 46 0 46 15 c 128,-1,1
176 45 m 2,30,31
 176 30 176 30 191 30 c 2,32,-1
 341 30 l 2,33,34
 477 30 477 30 561.5 121 c 128,-1,35
 646 212 646 212 646 350 c 128,-1,36
 646 488 646 488 561.5 579 c 128,-1,37
 477 670 477 670 341 670 c 2,38,-1
 191 670 l 2,39,40
 176 670 176 670 176 655 c 2,41,-1
 176 380 l 2,42,43
 176 365 176 365 191 365 c 2,44,-1
 261 365 l 2,45,46
 276 365 276 365 276 350 c 128,-1,47
 276 335 276 335 261 335 c 2,48,-1
 191 335 l 2,49,50
 176 335 176 335 176 320 c 2,51,-1
 176 45 l 2,30,31
EndSplineSet
EndChar

StartChar: Ntilde
Encoding: 209 209 146
Width: 785
GlyphClass: 2
Flags: W
LayerCount: 2
Fore
SplineSet
61 30 m 2,0,-1
 131 30 l 2,1,2
 146 30 146 30 146 45 c 2,3,-1
 146 655 l 2,4,5
 146 670 146 670 131 670 c 2,6,-1
 61 670 l 2,7,8
 46 670 46 670 46 685 c 128,-1,9
 46 700 46 700 61 700 c 2,10,-1
 171 700 l 2,11,12
 187 700 187 700 196 685 c 2,13,-1
 606 60 l 2,14,15
 608 56 608 56 612 56.5 c 128,-1,16
 616 57 616 57 616 65 c 2,17,-1
 616 655 l 2,18,19
 616 670 616 670 601 670 c 2,20,-1
 541 670 l 2,21,22
 526 670 526 670 526 685 c 128,-1,23
 526 700 526 700 541 700 c 2,24,-1
 731 700 l 2,25,26
 746 700 746 700 746 685 c 128,-1,27
 746 670 746 670 731 670 c 2,28,-1
 661 670 l 2,29,30
 646 670 646 670 646 655 c 2,31,-1
 646 45 l 2,32,33
 646 30 646 30 661 30 c 2,34,-1
 731 30 l 2,35,36
 746 30 746 30 746 15 c 128,-1,37
 746 0 746 0 731 0 c 2,38,-1
 621 0 l 2,39,40
 605 0 605 0 596 15 c 2,41,-1
 186 640 l 2,42,43
 184 644 184 644 180 643.5 c 128,-1,44
 176 643 176 643 176 635 c 2,45,-1
 176 45 l 2,46,47
 176 30 176 30 191 30 c 2,48,-1
 251 30 l 2,49,50
 266 30 266 30 266 15 c 128,-1,51
 266 0 266 0 251 0 c 2,52,-1
 61 0 l 2,53,54
 46 0 46 0 46 15 c 128,-1,55
 46 30 46 30 61 30 c 2,0,-1
261 785 m 0,56,57
 261 828 261 828 280.5 851.5 c 128,-1,58
 300 875 300 875 326 875 c 0,59,60
 372 875 372 875 393 837.5 c 128,-1,61
 414 800 414 800 441 800 c 0,62,63
 481 800 481 800 481 860 c 0,64,65
 481 875 481 875 496 875 c 128,-1,66
 511 875 511 875 511 860 c 0,67,68
 511 816 511 816 491.5 793 c 128,-1,69
 472 770 472 770 446 770 c 0,70,71
 400 770 400 770 379 807.5 c 128,-1,72
 358 845 358 845 331 845 c 0,73,74
 291 845 291 845 291 785 c 0,75,76
 291 770 291 770 276 770 c 128,-1,77
 261 770 261 770 261 785 c 0,56,57
EndSplineSet
EndChar

StartChar: Ograve
Encoding: 210 210 147
Width: 786
GlyphClass: 2
Flags: W
LayerCount: 2
Fore
SplineSet
58 350 m 128,-1,1
 58 507 58 507 150 608.5 c 128,-1,2
 242 710 242 710 393 710 c 128,-1,3
 544 710 544 710 636 608.5 c 128,-1,4
 728 507 728 507 728 350 c 128,-1,5
 728 193 728 193 636 91.5 c 128,-1,6
 544 -10 544 -10 393 -10 c 128,-1,7
 242 -10 242 -10 150 91.5 c 128,-1,0
 58 193 58 193 58 350 c 128,-1,1
88 350 m 128,-1,9
 88 206 88 206 172 113 c 128,-1,10
 256 20 256 20 393 20 c 128,-1,11
 530 20 530 20 614 113 c 128,-1,12
 698 206 698 206 698 350 c 128,-1,13
 698 494 698 494 614 587 c 128,-1,14
 530 680 530 680 393 680 c 128,-1,15
 256 680 256 680 172 587 c 128,-1,8
 88 494 88 494 88 350 c 128,-1,9
296 895 m 2,16,17
 292 900 292 900 292 906 c 128,-1,18
 292 912 292 912 300 915 c 1,19,20
 304 920 304 920 310 920 c 128,-1,21
 316 920 316 920 321 911 c 1,22,-1
 410 784 l 2,23,24
 414 779 414 779 414 774 c 256,25,26
 414 769 414 769 407 764 c 0,27,28
 402 761 402 761 396 761 c 128,-1,29
 390 761 390 761 386 767 c 2,30,-1
 296 895 l 2,16,17
EndSplineSet
EndChar

StartChar: Oacute
Encoding: 211 211 148
Width: 786
GlyphClass: 2
Flags: W
LayerCount: 2
Fore
SplineSet
58 350 m 128,-1,1
 58 507 58 507 150 608.5 c 128,-1,2
 242 710 242 710 393 710 c 128,-1,3
 544 710 544 710 636 608.5 c 128,-1,4
 728 507 728 507 728 350 c 128,-1,5
 728 193 728 193 636 91.5 c 128,-1,6
 544 -10 544 -10 393 -10 c 128,-1,7
 242 -10 242 -10 150 91.5 c 128,-1,0
 58 193 58 193 58 350 c 128,-1,1
88 350 m 128,-1,9
 88 206 88 206 172 113 c 128,-1,10
 256 20 256 20 393 20 c 128,-1,11
 530 20 530 20 614 113 c 128,-1,12
 698 206 698 206 698 350 c 128,-1,13
 698 494 698 494 614 587 c 128,-1,14
 530 680 530 680 393 680 c 128,-1,15
 256 680 256 680 172 587 c 128,-1,8
 88 494 88 494 88 350 c 128,-1,9
376 784 m 2,16,-1
 465 911 l 1,17,18
 470 920 470 920 476 920 c 128,-1,19
 482 920 482 920 486 915 c 1,20,21
 494 912 494 912 494 906 c 128,-1,22
 494 900 494 900 490 895 c 2,23,-1
 400 767 l 2,24,25
 396 761 396 761 390 761 c 128,-1,26
 384 761 384 761 379 764 c 0,27,28
 372 769 372 769 372 774 c 256,29,30
 372 779 372 779 376 784 c 2,16,-1
EndSplineSet
EndChar

StartChar: Ocircumflex
Encoding: 212 212 149
Width: 786
GlyphClass: 2
Flags: W
LayerCount: 2
Fore
SplineSet
58 350 m 128,-1,1
 58 507 58 507 150 608.5 c 128,-1,2
 242 710 242 710 393 710 c 128,-1,3
 544 710 544 710 636 608.5 c 128,-1,4
 728 507 728 507 728 350 c 128,-1,5
 728 193 728 193 636 91.5 c 128,-1,6
 544 -10 544 -10 393 -10 c 128,-1,7
 242 -10 242 -10 150 91.5 c 128,-1,0
 58 193 58 193 58 350 c 128,-1,1
88 350 m 128,-1,9
 88 206 88 206 172 113 c 128,-1,10
 256 20 256 20 393 20 c 128,-1,11
 530 20 530 20 614 113 c 128,-1,12
 698 206 698 206 698 350 c 128,-1,13
 698 494 698 494 614 587 c 128,-1,14
 530 680 530 680 393 680 c 128,-1,15
 256 680 256 680 172 587 c 128,-1,8
 88 494 88 494 88 350 c 128,-1,9
268 766 m 128,-1,17
 263 771 263 771 263 776.5 c 128,-1,18
 263 782 263 782 268 787 c 2,19,-1
 375 896 l 2,20,21
 384 905 384 905 392 905 c 256,22,23
 400 905 400 905 408 897 c 2,24,-1
 518 787 l 2,25,26
 523 782 523 782 523 776.5 c 128,-1,27
 523 771 523 771 518 766 c 128,-1,28
 513 761 513 761 507.5 761 c 128,-1,29
 502 761 502 761 497 766 c 2,30,-1
 401 861 l 2,31,32
 392 870 392 870 383 861 c 2,33,-1
 289 766 l 2,34,35
 284 761 284 761 278.5 761 c 128,-1,16
 273 761 273 761 268 766 c 128,-1,17
EndSplineSet
EndChar

StartChar: Otilde
Encoding: 213 213 150
Width: 786
GlyphClass: 2
Flags: W
LayerCount: 2
Fore
SplineSet
58 350 m 128,-1,1
 58 507 58 507 150 608.5 c 128,-1,2
 242 710 242 710 393 710 c 128,-1,3
 544 710 544 710 636 608.5 c 128,-1,4
 728 507 728 507 728 350 c 128,-1,5
 728 193 728 193 636 91.5 c 128,-1,6
 544 -10 544 -10 393 -10 c 128,-1,7
 242 -10 242 -10 150 91.5 c 128,-1,0
 58 193 58 193 58 350 c 128,-1,1
88 350 m 128,-1,9
 88 206 88 206 172 113 c 128,-1,10
 256 20 256 20 393 20 c 128,-1,11
 530 20 530 20 614 113 c 128,-1,12
 698 206 698 206 698 350 c 128,-1,13
 698 494 698 494 614 587 c 128,-1,14
 530 680 530 680 393 680 c 128,-1,15
 256 680 256 680 172 587 c 128,-1,8
 88 494 88 494 88 350 c 128,-1,9
268 785 m 0,16,17
 268 828 268 828 288 852 c 0,18,19
 308 875 308 875 334 875 c 0,20,21
 380 875 380 875 400.5 837.5 c 128,-1,22
 421 800 421 800 448 800 c 0,23,24
 488 800 488 800 488 860 c 0,25,26
 488 875 488 875 503 875 c 128,-1,27
 518 875 518 875 518 860 c 0,28,29
 518 816 518 816 498 793 c 256,30,31
 478 770 478 770 452 770 c 0,32,33
 406 770 406 770 385.5 807.5 c 128,-1,34
 365 845 365 845 338 845 c 0,35,36
 298 845 298 845 298 785 c 0,37,38
 298 770 298 770 283 770 c 128,-1,39
 268 770 268 770 268 785 c 0,16,17
EndSplineSet
EndChar

StartChar: Odieresis
Encoding: 214 214 151
Width: 786
GlyphClass: 2
Flags: W
LayerCount: 2
Fore
SplineSet
58 350 m 128,-1,1
 58 507 58 507 150 608.5 c 128,-1,2
 242 710 242 710 393 710 c 128,-1,3
 544 710 544 710 636 608.5 c 128,-1,4
 728 507 728 507 728 350 c 128,-1,5
 728 193 728 193 636 91.5 c 128,-1,6
 544 -10 544 -10 393 -10 c 128,-1,7
 242 -10 242 -10 150 91.5 c 128,-1,0
 58 193 58 193 58 350 c 128,-1,1
88 350 m 128,-1,9
 88 206 88 206 172 113 c 128,-1,10
 256 20 256 20 393 20 c 128,-1,11
 530 20 530 20 614 113 c 128,-1,12
 698 206 698 206 698 350 c 128,-1,13
 698 494 698 494 614 587 c 128,-1,14
 530 680 530 680 393 680 c 128,-1,15
 256 680 256 680 172 587 c 128,-1,8
 88 494 88 494 88 350 c 128,-1,9
273 820 m 128,-1,17
 273 837 273 837 284.5 848.5 c 128,-1,18
 296 860 296 860 313 860 c 128,-1,19
 330 860 330 860 341.5 848.5 c 128,-1,20
 353 837 353 837 353 820 c 128,-1,21
 353 803 353 803 341.5 791.5 c 128,-1,22
 330 780 330 780 313 780 c 128,-1,23
 296 780 296 780 284.5 791.5 c 128,-1,16
 273 803 273 803 273 820 c 128,-1,17
433 820 m 128,-1,25
 433 837 433 837 444.5 848.5 c 128,-1,26
 456 860 456 860 473 860 c 128,-1,27
 490 860 490 860 501.5 848.5 c 128,-1,28
 513 837 513 837 513 820 c 128,-1,29
 513 803 513 803 501.5 791.5 c 128,-1,30
 490 780 490 780 473 780 c 128,-1,31
 456 780 456 780 444.5 791.5 c 128,-1,24
 433 803 433 803 433 820 c 128,-1,25
EndSplineSet
EndChar

StartChar: multiply
Encoding: 215 215 152
Width: 457
GlyphClass: 2
Flags: W
LayerCount: 2
Fore
SplineSet
78 477 m 2,0,1
 73 482 73 482 73 488 c 0,2,3
 73 492 73 492 78 498 c 128,-1,4
 83 504 83 504 88.5 504 c 128,-1,5
 94 504 94 504 99 499 c 2,6,-1
 216 382 l 2,7,8
 226 372 226 372 237 382 c 2,9,-1
 357 502 l 2,10,11
 362 507 362 507 368 507 c 0,12,13
 372 507 372 507 378 502 c 128,-1,14
 384 497 384 497 384 491.5 c 128,-1,15
 384 486 384 486 379 481 c 2,16,-1
 258 361 l 2,17,18
 248 350 248 350 258 340 c 2,19,-1
 375 223 l 2,20,21
 380 218 380 218 380 212.5 c 128,-1,22
 380 207 380 207 375 202 c 128,-1,23
 370 197 370 197 364.5 197 c 128,-1,24
 359 197 359 197 354 202 c 2,25,-1
 237 318 l 2,26,27
 226 328 226 328 216 318 c 2,28,-1
 103 205 l 2,29,30
 98 200 98 200 92.5 200 c 128,-1,31
 87 200 87 200 82 205 c 128,-1,32
 77 210 77 210 77 215.5 c 128,-1,33
 77 221 77 221 82 226 c 2,34,-1
 195 339 l 1,35,36
 205 351 205 351 195 361 c 2,37,-1
 78 477 l 2,0,1
EndSplineSet
EndChar

StartChar: Oslash
Encoding: 216 216 153
Width: 786
GlyphClass: 2
Flags: W
LayerCount: 2
Fore
SplineSet
58 350 m 0,0,1
 58 507 58 507 150 608.5 c 128,-1,2
 242 710 242 710 393 710 c 0,3,4
 494 710 494 710 575 659 c 1,5,-1
 597 692 l 2,6,7
 605 703 605 703 617 697 c 1,8,9
 631 687 631 687 621 677 c 1,10,-1
 599 643 l 1,11,12
 728 542 728 542 728 350 c 0,13,14
 728 193 728 193 636 91.5 c 128,-1,15
 544 -10 544 -10 393 -10 c 0,16,17
 290 -10 290 -10 210 40 c 1,18,-1
 189 7 l 2,19,20
 181 -4 181 -4 168 3 c 128,-1,21
 155 10 155 10 164 23 c 2,22,-1
 186 57 l 1,23,24
 58 160 58 160 58 350 c 0,0,1
88 350 m 0,25,26
 88 178 88 178 203 83 c 1,27,-1
 559 633 l 1,28,29
 488 680 488 680 393 680 c 0,30,31
 256 680 256 680 172 587 c 128,-1,32
 88 494 88 494 88 350 c 0,25,26
227 66 m 1,33,34
 297 20 297 20 393 20 c 0,35,36
 530 20 530 20 614 113 c 128,-1,37
 698 206 698 206 698 350 c 0,38,39
 698 524 698 524 582 617 c 1,40,-1
 227 66 l 1,33,34
EndSplineSet
EndChar

StartChar: Ugrave
Encoding: 217 217 154
Width: 776
GlyphClass: 2
Flags: W
LayerCount: 2
Fore
SplineSet
43 700 m 2,0,-1
 233 700 l 2,1,2
 248 700 248 700 248 685 c 128,-1,3
 248 670 248 670 233 670 c 2,4,-1
 173 670 l 2,5,6
 158 670 158 670 158 655 c 2,7,-1
 158 250 l 2,8,9
 158 146 158 146 223 83 c 128,-1,10
 288 20 288 20 388 20 c 128,-1,11
 488 20 488 20 553 83 c 128,-1,12
 618 146 618 146 618 250 c 2,13,-1
 618 655 l 2,14,15
 618 670 618 670 603 670 c 2,16,-1
 543 670 l 2,17,18
 528 670 528 670 528 685 c 128,-1,19
 528 700 528 700 543 700 c 2,20,-1
 733 700 l 2,21,22
 748 700 748 700 748 685 c 128,-1,23
 748 670 748 670 733 670 c 2,24,-1
 663 670 l 2,25,26
 648 670 648 670 648 655 c 2,27,-1
 648 250 l 2,28,29
 648 135 648 135 574.5 62.5 c 128,-1,30
 501 -10 501 -10 388 -10 c 128,-1,31
 275 -10 275 -10 201.5 62.5 c 128,-1,32
 128 135 128 135 128 250 c 2,33,-1
 128 655 l 2,34,35
 128 670 128 670 113 670 c 2,36,-1
 43 670 l 2,37,38
 28 670 28 670 28 685 c 128,-1,39
 28 700 28 700 43 700 c 2,0,-1
311 885 m 2,40,41
 307 890 307 890 307 896 c 128,-1,42
 307 902 307 902 315 905 c 1,43,44
 320 910 320 910 326 910 c 128,-1,45
 332 910 332 910 336 901 c 1,46,-1
 425 774 l 2,47,48
 429 769 429 769 429 764 c 256,49,50
 429 759 429 759 422 754 c 1,51,52
 416 751 416 751 410 751 c 128,-1,53
 404 751 404 751 401 757 c 2,54,-1
 311 885 l 2,40,41
EndSplineSet
EndChar

StartChar: Uacute
Encoding: 218 218 155
Width: 776
GlyphClass: 2
Flags: W
LayerCount: 2
Fore
SplineSet
43 700 m 2,0,-1
 233 700 l 2,1,2
 248 700 248 700 248 685 c 128,-1,3
 248 670 248 670 233 670 c 2,4,-1
 173 670 l 2,5,6
 158 670 158 670 158 655 c 2,7,-1
 158 250 l 2,8,9
 158 146 158 146 223 83 c 128,-1,10
 288 20 288 20 388 20 c 128,-1,11
 488 20 488 20 553 83 c 128,-1,12
 618 146 618 146 618 250 c 2,13,-1
 618 655 l 2,14,15
 618 670 618 670 603 670 c 2,16,-1
 543 670 l 2,17,18
 528 670 528 670 528 685 c 128,-1,19
 528 700 528 700 543 700 c 2,20,-1
 733 700 l 2,21,22
 748 700 748 700 748 685 c 128,-1,23
 748 670 748 670 733 670 c 2,24,-1
 663 670 l 2,25,26
 648 670 648 670 648 655 c 2,27,-1
 648 250 l 2,28,29
 648 135 648 135 574.5 62.5 c 128,-1,30
 501 -10 501 -10 388 -10 c 128,-1,31
 275 -10 275 -10 201.5 62.5 c 128,-1,32
 128 135 128 135 128 250 c 2,33,-1
 128 655 l 2,34,35
 128 670 128 670 113 670 c 2,36,-1
 43 670 l 2,37,38
 28 670 28 670 28 685 c 128,-1,39
 28 700 28 700 43 700 c 2,0,-1
371 774 m 2,40,-1
 460 901 l 1,41,42
 464 910 464 910 470 910 c 128,-1,43
 476 910 476 910 481 905 c 1,44,45
 489 902 489 902 489 896 c 128,-1,46
 489 890 489 890 485 885 c 2,47,-1
 395 757 l 2,48,49
 390 751 390 751 384 751 c 128,-1,50
 378 751 378 751 374 754 c 0,51,52
 367 759 367 759 367 764 c 256,53,54
 367 769 367 769 371 774 c 2,40,-1
EndSplineSet
EndChar

StartChar: Ucircumflex
Encoding: 219 219 156
Width: 776
GlyphClass: 2
Flags: W
LayerCount: 2
Fore
SplineSet
43 700 m 2,0,-1
 233 700 l 2,1,2
 248 700 248 700 248 685 c 128,-1,3
 248 670 248 670 233 670 c 2,4,-1
 173 670 l 2,5,6
 158 670 158 670 158 655 c 2,7,-1
 158 250 l 2,8,9
 158 146 158 146 223 83 c 128,-1,10
 288 20 288 20 388 20 c 128,-1,11
 488 20 488 20 553 83 c 128,-1,12
 618 146 618 146 618 250 c 2,13,-1
 618 655 l 2,14,15
 618 670 618 670 603 670 c 2,16,-1
 543 670 l 2,17,18
 528 670 528 670 528 685 c 128,-1,19
 528 700 528 700 543 700 c 2,20,-1
 733 700 l 2,21,22
 748 700 748 700 748 685 c 128,-1,23
 748 670 748 670 733 670 c 2,24,-1
 663 670 l 2,25,26
 648 670 648 670 648 655 c 2,27,-1
 648 250 l 2,28,29
 648 135 648 135 574.5 62.5 c 128,-1,30
 501 -10 501 -10 388 -10 c 128,-1,31
 275 -10 275 -10 201.5 62.5 c 128,-1,32
 128 135 128 135 128 250 c 2,33,-1
 128 655 l 2,34,35
 128 670 128 670 113 670 c 2,36,-1
 43 670 l 2,37,38
 28 670 28 670 28 685 c 128,-1,39
 28 700 28 700 43 700 c 2,0,-1
263 787 m 2,40,-1
 370 896 l 2,41,42
 379 905 379 905 387 905 c 256,43,44
 395 905 395 905 403 897 c 2,45,-1
 513 787 l 2,46,47
 518 782 518 782 518 776.5 c 128,-1,48
 518 771 518 771 513 766 c 128,-1,49
 508 761 508 761 502.5 761 c 128,-1,50
 497 761 497 761 492 766 c 2,51,-1
 396 861 l 2,52,53
 387 870 387 870 378 861 c 2,54,-1
 284 766 l 2,55,56
 279 761 279 761 273.5 761 c 128,-1,57
 268 761 268 761 263 766 c 128,-1,58
 258 771 258 771 258 776.5 c 128,-1,59
 258 782 258 782 263 787 c 2,40,-1
EndSplineSet
EndChar

StartChar: Udieresis
Encoding: 220 220 157
Width: 776
GlyphClass: 2
Flags: W
LayerCount: 2
Fore
SplineSet
43 700 m 2,0,-1
 233 700 l 2,1,2
 248 700 248 700 248 685 c 128,-1,3
 248 670 248 670 233 670 c 2,4,-1
 173 670 l 2,5,6
 158 670 158 670 158 655 c 2,7,-1
 158 250 l 2,8,9
 158 146 158 146 223 83 c 128,-1,10
 288 20 288 20 388 20 c 128,-1,11
 488 20 488 20 553 83 c 128,-1,12
 618 146 618 146 618 250 c 2,13,-1
 618 655 l 2,14,15
 618 670 618 670 603 670 c 2,16,-1
 543 670 l 2,17,18
 528 670 528 670 528 685 c 128,-1,19
 528 700 528 700 543 700 c 2,20,-1
 733 700 l 2,21,22
 748 700 748 700 748 685 c 128,-1,23
 748 670 748 670 733 670 c 2,24,-1
 663 670 l 2,25,26
 648 670 648 670 648 655 c 2,27,-1
 648 250 l 2,28,29
 648 135 648 135 574.5 62.5 c 128,-1,30
 501 -10 501 -10 388 -10 c 128,-1,31
 275 -10 275 -10 201.5 62.5 c 128,-1,32
 128 135 128 135 128 250 c 2,33,-1
 128 655 l 2,34,35
 128 670 128 670 113 670 c 2,36,-1
 43 670 l 2,37,38
 28 670 28 670 28 685 c 128,-1,39
 28 700 28 700 43 700 c 2,0,-1
279 781 m 1,40,41
 268 793 268 793 268 810 c 128,-1,42
 268 827 268 827 279.5 838.5 c 128,-1,43
 291 850 291 850 308 850 c 128,-1,44
 325 850 325 850 336.5 838.5 c 128,-1,45
 348 827 348 827 348 810 c 128,-1,46
 348 793 348 793 336.5 781.5 c 128,-1,47
 325 770 325 770 308 770 c 128,-1,48
 291 770 291 770 279 781 c 1,40,41
439 781 m 1,49,50
 428 793 428 793 428 810 c 128,-1,51
 428 827 428 827 439.5 838.5 c 128,-1,52
 451 850 451 850 468 850 c 128,-1,53
 485 850 485 850 496.5 838.5 c 128,-1,54
 508 827 508 827 508 810 c 128,-1,55
 508 793 508 793 496.5 781.5 c 128,-1,56
 485 770 485 770 468 770 c 128,-1,57
 451 770 451 770 439 781 c 1,49,50
EndSplineSet
EndChar

StartChar: Yacute
Encoding: 221 221 158
Width: 627
GlyphClass: 2
Flags: W
LayerCount: 2
Fore
SplineSet
5 700 m 2,0,-1
 195 700 l 2,1,2
 210 700 210 700 210 685 c 128,-1,3
 210 670 210 670 195 670 c 2,4,-1
 135 670 l 2,5,6
 127 670 127 670 124 665.5 c 128,-1,7
 121 661 121 661 125 655 c 2,8,-1
 306 339 l 1,9,10
 313 329 313 329 320 339 c 1,11,-1
 502 655 l 2,12,13
 506 661 506 661 503 665.5 c 128,-1,14
 500 670 500 670 492 670 c 2,15,-1
 432 670 l 2,16,17
 417 670 417 670 417 685 c 128,-1,18
 417 700 417 700 432 700 c 2,19,-1
 622 700 l 2,20,21
 637 700 637 700 637 685 c 128,-1,22
 637 670 637 670 622 670 c 2,23,-1
 562 670 l 2,24,25
 546 670 546 670 537 655 c 2,26,-1
 329 294 l 1,27,-1
 329 45 l 2,28,29
 329 30 329 30 344 30 c 2,30,-1
 414 30 l 2,31,32
 429 30 429 30 429 15 c 128,-1,33
 429 0 429 0 414 0 c 2,34,-1
 214 0 l 2,35,36
 199 0 199 0 199 15 c 128,-1,37
 199 30 199 30 214 30 c 2,38,-1
 284 30 l 2,39,40
 299 30 299 30 299 45 c 2,41,-1
 299 292 l 1,42,-1
 90 655 l 2,43,44
 81 670 81 670 65 670 c 2,45,-1
 5 670 l 2,46,47
 -10 670 -10 670 -10 685 c 128,-1,48
 -10 700 -10 700 5 700 c 2,0,-1
306 774 m 2,49,-1
 395 901 l 1,50,51
 400 910 400 910 406 910 c 128,-1,52
 412 910 412 910 416 905 c 1,53,54
 424 902 424 902 424 896 c 128,-1,55
 424 890 424 890 420 885 c 2,56,-1
 330 757 l 2,57,58
 326 751 326 751 320 751 c 128,-1,59
 314 751 314 751 309 754 c 0,60,61
 302 759 302 759 302 764 c 256,62,63
 302 769 302 769 306 774 c 2,49,-1
EndSplineSet
EndChar

StartChar: Thorn
Encoding: 222 222 159
Width: 610
GlyphClass: 2
Flags: W
LayerCount: 2
Fore
SplineSet
176 155 m 2,0,1
 176 140 176 140 191 140 c 2,2,-1
 296 140 l 2,3,4
 414 140 414 140 477.5 195 c 128,-1,5
 541 250 541 250 541 350 c 256,6,7
 541 450 541 450 477.5 505 c 128,-1,8
 414 560 414 560 296 560 c 2,9,-1
 191 560 l 2,10,11
 176 560 176 560 176 545 c 2,12,-1
 176 155 l 2,0,1
176 45 m 2,13,14
 176 30 176 30 191 30 c 2,15,-1
 261 30 l 2,16,17
 276 30 276 30 276 15 c 256,18,19
 276 0 276 0 261 0 c 2,20,-1
 61 0 l 2,21,22
 46 0 46 0 46 15 c 256,23,24
 46 30 46 30 61 30 c 2,25,-1
 131 30 l 2,26,27
 146 30 146 30 146 45 c 2,28,-1
 146 655 l 2,29,30
 146 670 146 670 131 670 c 2,31,-1
 61 670 l 2,32,33
 46 670 46 670 46 685 c 256,34,35
 46 700 46 700 61 700 c 2,36,-1
 261 700 l 2,37,38
 276 700 276 700 276 685 c 256,39,40
 276 670 276 670 261 670 c 2,41,-1
 191 670 l 2,42,43
 176 670 176 670 176 655 c 2,44,-1
 176 605 l 2,45,46
 176 590 176 590 191 590 c 2,47,-1
 296 590 l 2,48,49
 425 590 425 590 498 526 c 128,-1,50
 571 462 571 462 571 350 c 256,51,52
 571 238 571 238 498 174 c 128,-1,53
 425 110 425 110 296 110 c 2,54,-1
 191 110 l 2,55,56
 176 110 176 110 176 95 c 2,57,-1
 176 45 l 2,13,14
EndSplineSet
EndChar

StartChar: germandbls
Encoding: 223 223 160
Width: 641
GlyphClass: 2
Flags: W
LayerCount: 2
Fore
SplineSet
51 30 m 2,0,-1
 121 30 l 2,1,2
 136 30 136 30 136 45 c 2,3,-1
 136 455 l 2,4,5
 136 470 136 470 121 470 c 2,6,-1
 51 470 l 2,7,8
 36 470 36 470 36 485 c 128,-1,9
 36 500 36 500 51 500 c 2,10,-1
 121 500 l 2,11,12
 136 500 136 500 136 515 c 2,13,-1
 136 525 l 2,14,15
 136 614 136 614 186.5 662 c 128,-1,16
 237 710 237 710 313.5 710 c 128,-1,17
 390 710 390 710 438 670 c 128,-1,18
 486 630 486 630 486 573 c 128,-1,19
 486 516 486 516 428.5 480 c 128,-1,20
 371 444 371 444 371 412 c 128,-1,21
 371 380 371 380 395.5 355.5 c 128,-1,22
 420 331 420 331 456 312 c 0,23,24
 490 294 490 294 526 270 c 0,25,26
 610 214 610 214 611 130 c 0,27,28
 611 72 611 72 564 31 c 128,-1,29
 517 -10 517 -10 441 -10 c 0,30,31
 316 -10 316 -10 241 90 c 1,32,33
 229 104 229 104 242 112.5 c 128,-1,34
 255 121 255 121 262 111 c 0,35,36
 328 20 328 20 441 20 c 0,37,38
 507 20 507 20 544 51.5 c 128,-1,39
 581 83 581 83 581 124 c 0,40,41
 581 198 581 198 518 240 c 2,42,-1
 461 278 l 1,43,-1
 403 313 l 2,44,45
 377 329 377 329 359 354.5 c 128,-1,46
 341 380 341 380 341 409 c 128,-1,47
 341 438 341 438 359 459.5 c 128,-1,48
 377 481 377 481 398.5 495 c 128,-1,49
 420 509 420 509 438 527 c 128,-1,50
 456 545 456 545 456 570 c 0,51,52
 456 619 456 619 417.5 649.5 c 128,-1,53
 379 680 379 680 312.5 680 c 128,-1,54
 246 680 246 680 206 641 c 128,-1,55
 166 602 166 602 166 525 c 2,56,-1
 166 15 l 2,57,58
 166 0 166 0 151 0 c 2,59,-1
 51 0 l 2,60,61
 36 0 36 0 36 15 c 128,-1,62
 36 30 36 30 51 30 c 2,0,-1
EndSplineSet
EndChar

StartChar: agrave
Encoding: 224 224 161
Width: 572
GlyphClass: 2
Flags: W
LayerCount: 2
Fore
SplineSet
170 705 m 2,0,1
 166 710 166 710 166 715.5 c 128,-1,2
 166 721 166 721 174 725 c 1,3,4
 179 730 179 730 184.5 730 c 128,-1,5
 190 730 190 730 195 721 c 1,6,-1
 284 594 l 2,7,8
 288 589 288 589 288 584 c 256,9,10
 288 579 288 579 281 574 c 0,11,12
 276 571 276 571 270.5 571 c 128,-1,13
 265 571 265 571 260 577 c 2,14,-1
 170 705 l 2,0,1
421 245 m 2,15,16
 421 260 421 260 406 260 c 2,17,-1
 241 260 l 2,18,19
 154 260 154 260 112.5 226 c 128,-1,20
 71 192 71 192 71 139.5 c 128,-1,21
 71 87 71 87 109.5 53.5 c 128,-1,22
 148 20 148 20 226 20 c 0,23,24
 323 20 323 20 397 118 c 0,25,26
 410 135 410 135 421 155 c 1,27,-1
 421 245 l 2,15,16
265 510 m 0,28,29
 349 510 349 510 400 462.5 c 128,-1,30
 451 415 451 415 451 345 c 2,31,-1
 451 45 l 2,32,33
 451 30 451 30 466 30 c 2,34,-1
 536 30 l 2,35,36
 551 30 551 30 551 15 c 256,37,38
 551 0 551 0 536 0 c 2,39,-1
 436 0 l 2,40,41
 421 0 421 0 421 15 c 2,42,-1
 421 71 l 2,43,44
 421 81 421 81 417 85 c 128,-1,45
 413 89 413 89 405 81 c 1,46,47
 378 47 378 47 330 18.5 c 128,-1,48
 282 -10 282 -10 230 -10 c 0,49,50
 137 -10 137 -10 89 31.5 c 128,-1,51
 41 73 41 73 41 139 c 128,-1,52
 41 205 41 205 96 247.5 c 128,-1,53
 151 290 151 290 241 290 c 2,54,-1
 406 290 l 2,55,56
 421 290 421 290 421 305 c 2,57,-1
 421 345 l 2,58,59
 421 403 421 403 377 441.5 c 128,-1,60
 333 480 333 480 269 480 c 128,-1,61
 205 480 205 480 164 462.5 c 128,-1,62
 123 445 123 445 106.5 432 c 128,-1,63
 90 419 90 419 81.5 431 c 128,-1,64
 73 443 73 443 84 451 c 0,65,66
 156 510 156 510 265 510 c 0,28,29
EndSplineSet
EndChar

StartChar: aacute
Encoding: 225 225 162
Width: 572
GlyphClass: 2
Flags: W
LayerCount: 2
Fore
SplineSet
250 594 m 2,0,-1
 339 721 l 1,1,2
 344 730 344 730 349.5 730 c 128,-1,3
 355 730 355 730 360 725 c 1,4,5
 368 721 368 721 368 715.5 c 128,-1,6
 368 710 368 710 364 705 c 2,7,-1
 274 577 l 2,8,9
 269 571 269 571 263.5 571 c 128,-1,10
 258 571 258 571 253 574 c 0,11,12
 246 579 246 579 246 584 c 256,13,14
 246 589 246 589 250 594 c 2,0,-1
421 245 m 2,15,16
 421 260 421 260 406 260 c 2,17,-1
 241 260 l 2,18,19
 154 260 154 260 112.5 226 c 128,-1,20
 71 192 71 192 71 139.5 c 128,-1,21
 71 87 71 87 109.5 53.5 c 128,-1,22
 148 20 148 20 226 20 c 0,23,24
 323 20 323 20 397 118 c 0,25,26
 410 135 410 135 421 155 c 1,27,-1
 421 245 l 2,15,16
265 510 m 0,28,29
 349 510 349 510 400 462.5 c 128,-1,30
 451 415 451 415 451 345 c 2,31,-1
 451 45 l 2,32,33
 451 30 451 30 466 30 c 2,34,-1
 536 30 l 2,35,36
 551 30 551 30 551 15 c 256,37,38
 551 0 551 0 536 0 c 2,39,-1
 436 0 l 2,40,41
 421 0 421 0 421 15 c 2,42,-1
 421 71 l 2,43,44
 421 81 421 81 417 85 c 128,-1,45
 413 89 413 89 405 81 c 1,46,47
 378 47 378 47 330 18.5 c 128,-1,48
 282 -10 282 -10 230 -10 c 0,49,50
 137 -10 137 -10 89 31.5 c 128,-1,51
 41 73 41 73 41 139 c 128,-1,52
 41 205 41 205 96 247.5 c 128,-1,53
 151 290 151 290 241 290 c 2,54,-1
 406 290 l 2,55,56
 421 290 421 290 421 305 c 2,57,-1
 421 345 l 2,58,59
 421 403 421 403 377 441.5 c 128,-1,60
 333 480 333 480 269 480 c 128,-1,61
 205 480 205 480 164 462.5 c 128,-1,62
 123 445 123 445 106.5 432 c 128,-1,63
 90 419 90 419 81.5 431 c 128,-1,64
 73 443 73 443 84 451 c 0,65,66
 156 510 156 510 265 510 c 0,28,29
EndSplineSet
EndChar

StartChar: acircumflex
Encoding: 226 226 163
Width: 572
GlyphClass: 2
Flags: W
LayerCount: 2
Fore
SplineSet
142 587 m 2,0,-1
 249 696 l 2,1,2
 258 705 258 705 266 705 c 256,3,4
 274 705 274 705 282 697 c 2,5,-1
 392 587 l 2,6,7
 397 581 397 581 397 576 c 128,-1,8
 397 571 397 571 392 566 c 128,-1,9
 387 561 387 561 381.5 561 c 128,-1,10
 376 561 376 561 371 566 c 2,11,-1
 275 661 l 2,12,13
 266 670 266 670 257 661 c 2,14,-1
 163 566 l 2,15,16
 157 561 157 561 152 561 c 128,-1,17
 147 561 147 561 142 566 c 128,-1,18
 137 571 137 571 137 576 c 128,-1,19
 137 581 137 581 142 587 c 2,0,-1
421 245 m 2,20,21
 421 260 421 260 406 260 c 2,22,-1
 241 260 l 2,23,24
 154 260 154 260 112.5 226 c 128,-1,25
 71 192 71 192 71 139.5 c 128,-1,26
 71 87 71 87 109.5 53.5 c 128,-1,27
 148 20 148 20 226 20 c 0,28,29
 323 20 323 20 397 118 c 0,30,31
 410 135 410 135 421 155 c 1,32,-1
 421 245 l 2,20,21
265 510 m 0,33,34
 349 510 349 510 400 462.5 c 128,-1,35
 451 415 451 415 451 345 c 2,36,-1
 451 45 l 2,37,38
 451 30 451 30 466 30 c 2,39,-1
 536 30 l 2,40,41
 551 30 551 30 551 15 c 256,42,43
 551 0 551 0 536 0 c 2,44,-1
 436 0 l 2,45,46
 421 0 421 0 421 15 c 2,47,-1
 421 71 l 2,48,49
 421 81 421 81 417 85 c 128,-1,50
 413 89 413 89 405 81 c 1,51,52
 378 47 378 47 330 18.5 c 128,-1,53
 282 -10 282 -10 230 -10 c 0,54,55
 137 -10 137 -10 89 31.5 c 128,-1,56
 41 73 41 73 41 139 c 128,-1,57
 41 205 41 205 96 247.5 c 128,-1,58
 151 290 151 290 241 290 c 2,59,-1
 406 290 l 2,60,61
 421 290 421 290 421 305 c 2,62,-1
 421 345 l 2,63,64
 421 403 421 403 377 441.5 c 128,-1,65
 333 480 333 480 269 480 c 128,-1,66
 205 480 205 480 164 462.5 c 128,-1,67
 123 445 123 445 106.5 432 c 128,-1,68
 90 419 90 419 81.5 431 c 128,-1,69
 73 443 73 443 84 451 c 0,70,71
 156 510 156 510 265 510 c 0,33,34
EndSplineSet
EndChar

StartChar: atilde
Encoding: 227 227 164
Width: 572
GlyphClass: 2
Flags: W
LayerCount: 2
Fore
SplineSet
142 585 m 0,0,1
 142 628 142 628 162 652 c 0,2,3
 182 675 182 675 208 675 c 0,4,5
 254 675 254 675 274.5 637.5 c 128,-1,6
 295 600 295 600 322 600 c 0,7,8
 362 600 362 600 362 660 c 0,9,10
 362 675 362 675 377 675 c 128,-1,11
 392 675 392 675 392 660 c 0,12,13
 392 616 392 616 372 593 c 256,14,15
 352 570 352 570 326 570 c 0,16,17
 280 570 280 570 259.5 607.5 c 128,-1,18
 239 645 239 645 212 645 c 0,19,20
 172 645 172 645 172 585 c 0,21,22
 172 570 172 570 157 570 c 128,-1,23
 142 570 142 570 142 585 c 0,0,1
421 245 m 2,24,25
 421 260 421 260 406 260 c 2,26,-1
 241 260 l 2,27,28
 154 260 154 260 112.5 226 c 128,-1,29
 71 192 71 192 71 139.5 c 128,-1,30
 71 87 71 87 109.5 53.5 c 128,-1,31
 148 20 148 20 226 20 c 0,32,33
 323 20 323 20 397 118 c 0,34,35
 410 135 410 135 421 155 c 1,36,-1
 421 245 l 2,24,25
265 510 m 0,37,38
 349 510 349 510 400 462.5 c 128,-1,39
 451 415 451 415 451 345 c 2,40,-1
 451 45 l 2,41,42
 451 30 451 30 466 30 c 2,43,-1
 536 30 l 2,44,45
 551 30 551 30 551 15 c 256,46,47
 551 0 551 0 536 0 c 2,48,-1
 436 0 l 2,49,50
 421 0 421 0 421 15 c 2,51,-1
 421 71 l 2,52,53
 421 81 421 81 417 85 c 128,-1,54
 413 89 413 89 405 81 c 1,55,56
 378 47 378 47 330 18.5 c 128,-1,57
 282 -10 282 -10 230 -10 c 0,58,59
 137 -10 137 -10 89 31.5 c 128,-1,60
 41 73 41 73 41 139 c 128,-1,61
 41 205 41 205 96 247.5 c 128,-1,62
 151 290 151 290 241 290 c 2,63,-1
 406 290 l 2,64,65
 421 290 421 290 421 305 c 2,66,-1
 421 345 l 2,67,68
 421 403 421 403 377 441.5 c 128,-1,69
 333 480 333 480 269 480 c 128,-1,70
 205 480 205 480 164 462.5 c 128,-1,71
 123 445 123 445 106.5 432 c 128,-1,72
 90 419 90 419 81.5 431 c 128,-1,73
 73 443 73 443 84 451 c 0,74,75
 156 510 156 510 265 510 c 0,37,38
EndSplineSet
EndChar

StartChar: adieresis
Encoding: 228 228 165
Width: 572
GlyphClass: 2
Flags: W
LayerCount: 2
Fore
SplineSet
168 581 m 1,0,1
 157 593 157 593 157 610 c 128,-1,2
 157 627 157 627 168.5 638.5 c 128,-1,3
 180 650 180 650 197 650 c 128,-1,4
 214 650 214 650 225.5 638.5 c 128,-1,5
 237 627 237 627 237 610 c 128,-1,6
 237 593 237 593 225.5 581.5 c 128,-1,7
 214 570 214 570 197 570 c 128,-1,8
 180 570 180 570 168 581 c 1,0,1
328 581 m 1,9,10
 317 593 317 593 317 610 c 128,-1,11
 317 627 317 627 328.5 638.5 c 128,-1,12
 340 650 340 650 357 650 c 128,-1,13
 374 650 374 650 385.5 638.5 c 128,-1,14
 397 627 397 627 397 610 c 128,-1,15
 397 593 397 593 385.5 581.5 c 128,-1,16
 374 570 374 570 357 570 c 128,-1,17
 340 570 340 570 328 581 c 1,9,10
421 245 m 2,18,19
 421 260 421 260 406 260 c 2,20,-1
 241 260 l 2,21,22
 154 260 154 260 112.5 226 c 128,-1,23
 71 192 71 192 71 139.5 c 128,-1,24
 71 87 71 87 109.5 53.5 c 128,-1,25
 148 20 148 20 226 20 c 0,26,27
 323 20 323 20 397 118 c 0,28,29
 410 135 410 135 421 155 c 1,30,-1
 421 245 l 2,18,19
265 510 m 0,31,32
 349 510 349 510 400 462.5 c 128,-1,33
 451 415 451 415 451 345 c 2,34,-1
 451 45 l 2,35,36
 451 30 451 30 466 30 c 2,37,-1
 536 30 l 2,38,39
 551 30 551 30 551 15 c 256,40,41
 551 0 551 0 536 0 c 2,42,-1
 436 0 l 2,43,44
 421 0 421 0 421 15 c 2,45,-1
 421 71 l 2,46,47
 421 81 421 81 417 85 c 128,-1,48
 413 89 413 89 405 81 c 1,49,50
 378 47 378 47 330 18.5 c 128,-1,51
 282 -10 282 -10 230 -10 c 0,52,53
 137 -10 137 -10 89 31.5 c 128,-1,54
 41 73 41 73 41 139 c 128,-1,55
 41 205 41 205 96 247.5 c 128,-1,56
 151 290 151 290 241 290 c 2,57,-1
 406 290 l 2,58,59
 421 290 421 290 421 305 c 2,60,-1
 421 345 l 2,61,62
 421 403 421 403 377 441.5 c 128,-1,63
 333 480 333 480 269 480 c 128,-1,64
 205 480 205 480 164 462.5 c 128,-1,65
 123 445 123 445 106.5 432 c 128,-1,66
 90 419 90 419 81.5 431 c 128,-1,67
 73 443 73 443 84 451 c 0,68,69
 156 510 156 510 265 510 c 0,31,32
EndSplineSet
EndChar

StartChar: aring
Encoding: 229 229 166
Width: 572
GlyphClass: 2
Flags: W
LayerCount: 2
Fore
SplineSet
209 583 m 0,0,1
 187 606 187 606 187 640 c 128,-1,2
 187 674 187 674 209.5 697 c 128,-1,3
 232 720 232 720 267 720 c 128,-1,4
 302 720 302 720 324.5 697 c 128,-1,5
 347 674 347 674 347 640 c 128,-1,6
 347 606 347 606 324.5 583 c 128,-1,7
 302 560 302 560 267 560 c 128,-1,8
 232 560 232 560 209 583 c 0,0,1
267 690 m 128,-1,10
 244 690 244 690 230.5 676.5 c 128,-1,11
 217 663 217 663 217 640 c 128,-1,12
 217 617 217 617 230.5 603.5 c 128,-1,13
 244 590 244 590 267 590 c 128,-1,14
 290 590 290 590 303.5 603.5 c 128,-1,15
 317 617 317 617 317 640 c 128,-1,16
 317 663 317 663 303.5 676.5 c 128,-1,9
 290 690 290 690 267 690 c 128,-1,10
421 245 m 2,17,18
 421 260 421 260 406 260 c 2,19,-1
 241 260 l 2,20,21
 154 260 154 260 112.5 226 c 128,-1,22
 71 192 71 192 71 139.5 c 128,-1,23
 71 87 71 87 109.5 53.5 c 128,-1,24
 148 20 148 20 226 20 c 0,25,26
 323 20 323 20 397 118 c 0,27,28
 410 135 410 135 421 155 c 1,29,-1
 421 245 l 2,17,18
265 510 m 0,30,31
 349 510 349 510 400 462.5 c 128,-1,32
 451 415 451 415 451 345 c 2,33,-1
 451 45 l 2,34,35
 451 30 451 30 466 30 c 2,36,-1
 536 30 l 2,37,38
 551 30 551 30 551 15 c 256,39,40
 551 0 551 0 536 0 c 2,41,-1
 436 0 l 2,42,43
 421 0 421 0 421 15 c 2,44,-1
 421 71 l 2,45,46
 421 81 421 81 417 85 c 128,-1,47
 413 89 413 89 405 81 c 1,48,49
 378 47 378 47 330 18.5 c 128,-1,50
 282 -10 282 -10 230 -10 c 0,51,52
 137 -10 137 -10 89 31.5 c 128,-1,53
 41 73 41 73 41 139 c 128,-1,54
 41 205 41 205 96 247.5 c 128,-1,55
 151 290 151 290 241 290 c 2,56,-1
 406 290 l 2,57,58
 421 290 421 290 421 305 c 2,59,-1
 421 345 l 2,60,61
 421 403 421 403 377 441.5 c 128,-1,62
 333 480 333 480 269 480 c 128,-1,63
 205 480 205 480 164 462.5 c 128,-1,64
 123 445 123 445 106.5 432 c 128,-1,65
 90 419 90 419 81.5 431 c 128,-1,66
 73 443 73 443 84 451 c 0,67,68
 156 510 156 510 265 510 c 0,30,31
EndSplineSet
EndChar

StartChar: ae
Encoding: 230 230 167
Width: 937
GlyphClass: 2
Flags: W
LayerCount: 2
Fore
SplineSet
432 245 m 2,0,1
 432 260 432 260 417 260 c 2,2,-1
 242 260 l 2,3,4
 72 260 72 260 72 140 c 256,5,6
 72 20 72 20 232 20 c 0,7,8
 333 20 333 20 408 118 c 0,9,10
 421 135 421 135 432 155 c 1,11,-1
 432 245 l 2,0,1
466 305 m 1,12,13
 463 290 463 290 480 290 c 2,14,-1
 847 290 l 2,15,16
 862 290 862 290 862 305 c 0,17,18
 862 371 862 371 803.5 425.5 c 128,-1,19
 745 480 745 480 660 480 c 128,-1,20
 575 480 575 480 518 416 c 0,21,22
 497 392 497 392 484 367.5 c 128,-1,23
 471 343 471 343 466 305 c 1,12,13
85 451 m 0,24,25
 156 510 156 510 274 510 c 0,26,27
 346 510 346 510 396 473.5 c 128,-1,28
 446 437 446 437 458 380 c 1,29,30
 488 441 488 441 541.5 475.5 c 128,-1,31
 595 510 595 510 662 510 c 0,32,33
 759 510 759 510 825.5 447 c 128,-1,34
 892 384 892 384 892 305 c 2,35,-1
 892 290 l 2,36,37
 892 260 892 260 862 260 c 2,38,-1
 477 260 l 2,39,40
 462 260 462 260 462 245 c 0,41,42
 462 147 462 147 517.5 83.5 c 128,-1,43
 573 20 573 20 665 20 c 0,44,45
 756 20 756 20 818 70 c 0,46,47
 834 82 834 82 843 90 c 128,-1,48
 852 98 852 98 857 95.5 c 128,-1,49
 862 93 862 93 869.5 84.5 c 128,-1,50
 877 76 877 76 865 66 c 0,51,52
 829 35 829 35 782 12.5 c 128,-1,53
 735 -10 735 -10 662.5 -10 c 128,-1,54
 590 -10 590 -10 534.5 28 c 128,-1,55
 479 66 479 66 453 133 c 1,56,57
 418 71 418 71 356.5 30.5 c 128,-1,58
 295 -10 295 -10 232 -10 c 0,59,60
 135 -10 135 -10 88.5 29 c 128,-1,61
 42 68 42 68 42 139 c 128,-1,62
 42 210 42 210 93.5 250 c 128,-1,63
 145 290 145 290 242 290 c 2,64,-1
 417 290 l 2,65,66
 432 290 432 290 432 305 c 2,67,-1
 432 345 l 2,68,69
 432 403 432 403 387 441.5 c 128,-1,70
 342 480 342 480 274 480 c 128,-1,71
 206 480 206 480 165 462.5 c 128,-1,72
 124 445 124 445 107.5 432 c 128,-1,73
 91 419 91 419 82.5 431 c 128,-1,74
 74 443 74 443 85 451 c 0,24,25
EndSplineSet
EndChar

StartChar: ccedilla
Encoding: 231 231 168
Width: 560
GlyphClass: 2
Flags: W
LayerCount: 2
Fore
SplineSet
274 -150 m 0,0,1
 344 -150 344 -150 344 -110 c 0,2,3
 344 -93 344 -93 331.5 -81.5 c 128,-1,4
 319 -70 319 -70 294 -70 c 2,5,-1
 279 -70 l 2,6,7
 264 -70 264 -70 264 -55 c 2,8,-1
 264 0 l 2,9,10
 264 15 264 15 279 15 c 128,-1,11
 294 15 294 15 294 0 c 2,12,-1
 294 -40 l 1,13,14
 331 -40 331 -40 352.5 -59.5 c 128,-1,15
 374 -79 374 -79 374 -110.5 c 128,-1,16
 374 -142 374 -142 349.5 -161 c 128,-1,17
 325 -180 325 -180 274 -180 c 0,18,19
 259 -180 259 -180 259 -165 c 128,-1,20
 259 -150 259 -150 274 -150 c 0,0,1
461 375 m 1,21,22
 380 480 380 480 271 480 c 0,23,24
 190 480 190 480 135 416 c 1,25,26
 81 351 81 351 81 248 c 128,-1,27
 81 145 81 145 138 82.5 c 128,-1,28
 195 20 195 20 288 20 c 0,29,30
 380 20 380 20 442 70 c 0,31,32
 458 82 458 82 467 90 c 128,-1,33
 476 98 476 98 481 95.5 c 128,-1,34
 486 93 486 93 491 87 c 128,-1,35
 496 81 496 81 496 76.5 c 128,-1,36
 496 72 496 72 487 63 c 0,37,38
 454 34 454 34 406.5 12 c 128,-1,39
 359 -10 359 -10 286 -10 c 0,40,41
 180 -10 180 -10 115.5 62.5 c 128,-1,42
 51 135 51 135 51 250 c 256,43,44
 51 365 51 365 114 437.5 c 128,-1,45
 177 510 177 510 273.5 510 c 128,-1,46
 370 510 370 510 445 435 c 1,47,48
 461 421 461 421 461 445 c 2,49,-1
 461 485 l 2,50,51
 461 500 461 500 476 500 c 256,52,53
 491 500 491 500 491 485 c 2,54,-1
 491 325 l 2,55,56
 491 310 491 310 476 310 c 256,57,58
 461 310 461 310 461 325 c 2,59,-1
 461 375 l 1,21,22
EndSplineSet
EndChar

StartChar: egrave
Encoding: 232 232 169
Width: 567
GlyphClass: 2
Flags: W
LayerCount: 2
Fore
SplineSet
185 705 m 2,0,1
 181 710 181 710 181 715.5 c 128,-1,2
 181 721 181 721 189 725 c 1,3,4
 194 730 194 730 199.5 730 c 128,-1,5
 205 730 205 730 210 721 c 1,6,-1
 299 594 l 2,7,8
 303 589 303 589 303 584 c 256,9,10
 303 579 303 579 296 574 c 1,11,12
 290 571 290 571 284.5 571 c 128,-1,13
 279 571 279 571 275 577 c 2,14,-1
 185 705 l 2,0,1
444 70 m 0,15,16
 460 82 460 82 468.5 90 c 128,-1,17
 477 98 477 98 482 95.5 c 128,-1,18
 487 93 487 93 494.5 84.5 c 128,-1,19
 502 76 502 76 490 66 c 0,20,21
 454 35 454 35 407 12.5 c 128,-1,22
 360 -10 360 -10 287 -10 c 0,23,24
 181 -10 181 -10 116.5 63 c 128,-1,25
 52 136 52 136 52 250 c 256,26,27
 52 364 52 364 116.5 437 c 128,-1,28
 181 510 181 510 285.5 510 c 128,-1,29
 390 510 390 510 456 444 c 256,30,31
 522 378 522 378 522 285 c 2,32,-1
 522 270 l 2,33,34
 522 240 522 240 492 240 c 2,35,-1
 98 240 l 2,36,37
 81 240 81 240 83 225 c 0,38,39
 89 138 89 138 142.5 79 c 128,-1,40
 196 20 196 20 289.5 20 c 128,-1,41
 383 20 383 20 444 70 c 0,15,16
84 282 m 0,42,43
 84 270 84 270 98 270 c 2,44,-1
 477 270 l 2,45,46
 492 270 492 270 492 285 c 0,47,48
 492 365 492 365 433.5 422.5 c 128,-1,49
 375 480 375 480 285.5 480 c 128,-1,50
 196 480 196 480 140 417 c 128,-1,51
 84 354 84 354 84 282 c 0,42,43
EndSplineSet
EndChar

StartChar: eacute
Encoding: 233 233 170
Width: 567
GlyphClass: 2
Flags: W
LayerCount: 2
Fore
SplineSet
275 594 m 2,0,-1
 364 721 l 1,1,2
 369 730 369 730 374.5 730 c 128,-1,3
 380 730 380 730 385 725 c 1,4,5
 393 721 393 721 393 715.5 c 128,-1,6
 393 710 393 710 389 705 c 2,7,-1
 299 577 l 2,8,9
 294 571 294 571 288.5 571 c 128,-1,10
 283 571 283 571 278 574 c 0,11,12
 271 579 271 579 271 584 c 256,13,14
 271 589 271 589 275 594 c 2,0,-1
444 70 m 0,15,16
 460 82 460 82 468.5 90 c 128,-1,17
 477 98 477 98 482 95.5 c 128,-1,18
 487 93 487 93 494.5 84.5 c 128,-1,19
 502 76 502 76 490 66 c 0,20,21
 454 35 454 35 407 12.5 c 128,-1,22
 360 -10 360 -10 287 -10 c 0,23,24
 181 -10 181 -10 116.5 63 c 128,-1,25
 52 136 52 136 52 250 c 256,26,27
 52 364 52 364 116.5 437 c 128,-1,28
 181 510 181 510 285.5 510 c 128,-1,29
 390 510 390 510 456 444 c 256,30,31
 522 378 522 378 522 285 c 2,32,-1
 522 270 l 2,33,34
 522 240 522 240 492 240 c 2,35,-1
 98 240 l 2,36,37
 81 240 81 240 83 225 c 0,38,39
 89 138 89 138 142.5 79 c 128,-1,40
 196 20 196 20 289.5 20 c 128,-1,41
 383 20 383 20 444 70 c 0,15,16
84 282 m 0,42,43
 84 270 84 270 98 270 c 2,44,-1
 477 270 l 2,45,46
 492 270 492 270 492 285 c 0,47,48
 492 365 492 365 433.5 422.5 c 128,-1,49
 375 480 375 480 285.5 480 c 128,-1,50
 196 480 196 480 140 417 c 128,-1,51
 84 354 84 354 84 282 c 0,42,43
EndSplineSet
EndChar

StartChar: ecircumflex
Encoding: 234 234 171
Width: 567
GlyphClass: 2
Flags: W
LayerCount: 2
Fore
SplineSet
157 587 m 2,0,-1
 264 696 l 2,1,2
 273 705 273 705 281 705 c 256,3,4
 289 705 289 705 297 697 c 2,5,-1
 407 587 l 2,6,7
 412 582 412 582 412 576.5 c 128,-1,8
 412 571 412 571 407 566 c 128,-1,9
 402 561 402 561 396.5 561 c 128,-1,10
 391 561 391 561 386 566 c 2,11,-1
 290 661 l 2,12,13
 281 670 281 670 272 661 c 2,14,-1
 178 566 l 2,15,16
 173 561 173 561 167.5 561 c 128,-1,17
 162 561 162 561 157 566 c 128,-1,18
 152 571 152 571 152 576.5 c 128,-1,19
 152 582 152 582 157 587 c 2,0,-1
444 70 m 0,20,21
 460 82 460 82 468.5 90 c 128,-1,22
 477 98 477 98 482 95.5 c 128,-1,23
 487 93 487 93 494.5 84.5 c 128,-1,24
 502 76 502 76 490 66 c 0,25,26
 454 35 454 35 407 12.5 c 128,-1,27
 360 -10 360 -10 287 -10 c 0,28,29
 181 -10 181 -10 116.5 63 c 128,-1,30
 52 136 52 136 52 250 c 256,31,32
 52 364 52 364 116.5 437 c 128,-1,33
 181 510 181 510 285.5 510 c 128,-1,34
 390 510 390 510 456 444 c 256,35,36
 522 378 522 378 522 285 c 2,37,-1
 522 270 l 2,38,39
 522 240 522 240 492 240 c 2,40,-1
 98 240 l 2,41,42
 81 240 81 240 83 225 c 0,43,44
 89 138 89 138 142.5 79 c 128,-1,45
 196 20 196 20 289.5 20 c 128,-1,46
 383 20 383 20 444 70 c 0,20,21
84 282 m 0,47,48
 84 270 84 270 98 270 c 2,49,-1
 477 270 l 2,50,51
 492 270 492 270 492 285 c 0,52,53
 492 365 492 365 433.5 422.5 c 128,-1,54
 375 480 375 480 285.5 480 c 128,-1,55
 196 480 196 480 140 417 c 128,-1,56
 84 354 84 354 84 282 c 0,47,48
EndSplineSet
EndChar

StartChar: edieresis
Encoding: 235 235 172
Width: 567
GlyphClass: 2
Flags: W
LayerCount: 2
Fore
SplineSet
173 591 m 1,0,1
 162 603 162 603 162 620 c 128,-1,2
 162 637 162 637 173.5 648.5 c 128,-1,3
 185 660 185 660 202 660 c 128,-1,4
 219 660 219 660 230.5 648.5 c 128,-1,5
 242 637 242 637 242 620 c 128,-1,6
 242 603 242 603 230.5 591.5 c 128,-1,7
 219 580 219 580 202 580 c 128,-1,8
 185 580 185 580 173 591 c 1,0,1
333 591 m 1,9,10
 322 603 322 603 322 620 c 128,-1,11
 322 637 322 637 333.5 648.5 c 128,-1,12
 345 660 345 660 362 660 c 128,-1,13
 379 660 379 660 390.5 648.5 c 128,-1,14
 402 637 402 637 402 620 c 128,-1,15
 402 603 402 603 390.5 591.5 c 128,-1,16
 379 580 379 580 362 580 c 128,-1,17
 345 580 345 580 333 591 c 1,9,10
444 70 m 0,18,19
 460 82 460 82 468.5 90 c 128,-1,20
 477 98 477 98 482 95.5 c 128,-1,21
 487 93 487 93 494.5 84.5 c 128,-1,22
 502 76 502 76 490 66 c 0,23,24
 454 35 454 35 407 12.5 c 128,-1,25
 360 -10 360 -10 287 -10 c 0,26,27
 181 -10 181 -10 116.5 63 c 128,-1,28
 52 136 52 136 52 250 c 256,29,30
 52 364 52 364 116.5 437 c 128,-1,31
 181 510 181 510 285.5 510 c 128,-1,32
 390 510 390 510 456 444 c 256,33,34
 522 378 522 378 522 285 c 2,35,-1
 522 270 l 2,36,37
 522 240 522 240 492 240 c 2,38,-1
 98 240 l 2,39,40
 81 240 81 240 83 225 c 0,41,42
 89 138 89 138 142.5 79 c 128,-1,43
 196 20 196 20 289.5 20 c 128,-1,44
 383 20 383 20 444 70 c 0,18,19
84 282 m 0,45,46
 84 270 84 270 98 270 c 2,47,-1
 477 270 l 2,48,49
 492 270 492 270 492 285 c 0,50,51
 492 365 492 365 433.5 422.5 c 128,-1,52
 375 480 375 480 285.5 480 c 128,-1,53
 196 480 196 480 140 417 c 128,-1,54
 84 354 84 354 84 282 c 0,45,46
EndSplineSet
EndChar

StartChar: igrave
Encoding: 236 236 173
Width: 286
GlyphClass: 2
Flags: W
LayerCount: 2
Fore
SplineSet
37 15 m 128,-1,1
 37 30 37 30 52 30 c 2,2,-1
 122 30 l 2,3,4
 137 30 137 30 137 45 c 2,5,-1
 137 455 l 2,6,7
 137 470 137 470 122 470 c 2,8,-1
 52 470 l 2,9,10
 37 470 37 470 37 485 c 128,-1,11
 37 500 37 500 52 500 c 2,12,-1
 152 500 l 2,13,14
 167 500 167 500 167 485 c 2,15,-1
 167 45 l 2,16,17
 167 30 167 30 182 30 c 2,18,-1
 252 30 l 2,19,20
 267 30 267 30 267 15 c 128,-1,21
 267 0 267 0 252 0 c 2,22,-1
 52 0 l 2,23,0
 37 0 37 0 37 15 c 128,-1,1
45 705 m 2,24,25
 41 710 41 710 41 716 c 128,-1,26
 41 722 41 722 49 725 c 1,27,28
 54 730 54 730 60 730 c 128,-1,29
 66 730 66 730 70 721 c 1,30,-1
 159 594 l 2,31,32
 163 589 163 589 163 584 c 256,33,34
 163 579 163 579 156 574 c 1,35,36
 150 571 150 571 144 571 c 128,-1,37
 138 571 138 571 135 577 c 2,38,-1
 45 705 l 2,24,25
EndSplineSet
EndChar

StartChar: iacute
Encoding: 237 237 174
Width: 286
GlyphClass: 2
Flags: W
LayerCount: 2
Fore
SplineSet
37 15 m 128,-1,1
 37 30 37 30 52 30 c 2,2,-1
 122 30 l 2,3,4
 137 30 137 30 137 45 c 2,5,-1
 137 455 l 2,6,7
 137 470 137 470 122 470 c 2,8,-1
 52 470 l 2,9,10
 37 470 37 470 37 485 c 128,-1,11
 37 500 37 500 52 500 c 2,12,-1
 152 500 l 2,13,14
 167 500 167 500 167 485 c 2,15,-1
 167 45 l 2,16,17
 167 30 167 30 182 30 c 2,18,-1
 252 30 l 2,19,20
 267 30 267 30 267 15 c 128,-1,21
 267 0 267 0 252 0 c 2,22,-1
 52 0 l 2,23,0
 37 0 37 0 37 15 c 128,-1,1
125 594 m 2,24,-1
 214 721 l 1,25,26
 218 730 218 730 224 730 c 128,-1,27
 230 730 230 730 235 725 c 1,28,29
 243 722 243 722 243 716 c 128,-1,30
 243 710 243 710 239 705 c 2,31,-1
 149 577 l 2,32,33
 144 571 144 571 138 571 c 128,-1,34
 132 571 132 571 128 574 c 0,35,36
 121 579 121 579 121 584 c 256,37,38
 121 589 121 589 125 594 c 2,24,-1
EndSplineSet
EndChar

StartChar: icircumflex
Encoding: 238 238 175
Width: 286
GlyphClass: 2
Flags: W
LayerCount: 2
Fore
SplineSet
38 566 m 2,0,1
 28 556 28 556 20 563.5 c 128,-1,2
 12 571 12 571 12 576.5 c 128,-1,3
 12 582 12 582 17 587 c 2,4,-1
 124 696 l 2,5,6
 133 705 133 705 141 705 c 256,7,8
 149 705 149 705 157 697 c 2,9,-1
 267 587 l 2,10,11
 272 582 272 582 272 576.5 c 128,-1,12
 272 571 272 571 264 563.5 c 128,-1,13
 256 556 256 556 246 566 c 2,14,-1
 150 661 l 2,15,16
 141 670 141 670 132 661 c 2,17,-1
 38 566 l 2,0,1
37 15 m 128,-1,19
 37 30 37 30 52 30 c 2,20,-1
 122 30 l 2,21,22
 137 30 137 30 137 45 c 2,23,-1
 137 455 l 2,24,25
 137 470 137 470 122 470 c 2,26,-1
 52 470 l 2,27,28
 37 470 37 470 37 485 c 128,-1,29
 37 500 37 500 52 500 c 2,30,-1
 152 500 l 2,31,32
 167 500 167 500 167 485 c 2,33,-1
 167 45 l 2,34,35
 167 30 167 30 182 30 c 2,36,-1
 252 30 l 2,37,38
 267 30 267 30 267 15 c 128,-1,39
 267 0 267 0 252 0 c 2,40,-1
 52 0 l 2,41,18
 37 0 37 0 37 15 c 128,-1,19
EndSplineSet
EndChar

StartChar: idieresis
Encoding: 239 239 176
Width: 286
GlyphClass: 2
Flags: W
LayerCount: 2
Fore
SplineSet
22 620 m 128,-1,1
 22 637 22 637 33.5 648.5 c 128,-1,2
 45 660 45 660 62 660 c 128,-1,3
 79 660 79 660 90.5 648.5 c 128,-1,4
 102 637 102 637 102 620 c 128,-1,5
 102 603 102 603 90.5 591.5 c 128,-1,6
 79 580 79 580 62 580 c 128,-1,7
 45 580 45 580 33.5 591.5 c 128,-1,0
 22 603 22 603 22 620 c 128,-1,1
37 15 m 128,-1,9
 37 30 37 30 52 30 c 2,10,-1
 122 30 l 2,11,12
 137 30 137 30 137 45 c 2,13,-1
 137 455 l 2,14,15
 137 470 137 470 122 470 c 2,16,-1
 52 470 l 2,17,18
 37 470 37 470 37 485 c 128,-1,19
 37 500 37 500 52 500 c 2,20,-1
 152 500 l 2,21,22
 167 500 167 500 167 485 c 2,23,-1
 167 45 l 2,24,25
 167 30 167 30 182 30 c 2,26,-1
 252 30 l 2,27,28
 267 30 267 30 267 15 c 128,-1,29
 267 0 267 0 252 0 c 2,30,-1
 52 0 l 2,31,8
 37 0 37 0 37 15 c 128,-1,9
182 620 m 128,-1,33
 182 637 182 637 193.5 648.5 c 128,-1,34
 205 660 205 660 222 660 c 128,-1,35
 239 660 239 660 250.5 648.5 c 128,-1,36
 262 637 262 637 262 620 c 128,-1,37
 262 603 262 603 250.5 591.5 c 128,-1,38
 239 580 239 580 222 580 c 128,-1,39
 205 580 205 580 193.5 591.5 c 128,-1,32
 182 603 182 603 182 620 c 128,-1,33
EndSplineSet
EndChar

StartChar: eth
Encoding: 240 240 177
Width: 627
GlyphClass: 2
Flags: W
LayerCount: 2
Fore
SplineSet
524 300 m 0,0,1
 524 362 524 362 509 415 c 1,2,3
 503 430 503 430 489 430 c 2,4,-1
 326 430 l 2,5,6
 205 430 205 430 144.5 377 c 128,-1,7
 84 324 84 324 84 228.5 c 128,-1,8
 84 133 84 133 141.5 76.5 c 128,-1,9
 199 20 199 20 299 20 c 256,10,11
 399 20 399 20 461.5 93.5 c 128,-1,12
 524 167 524 167 524 300 c 0,0,1
489 475 m 1,13,14
 454 558 454 558 391 618 c 1,15,16
 379 627 379 627 370 617 c 2,17,-1
 314 551 l 2,18,19
 305 539 305 539 293 549.5 c 128,-1,20
 281 560 281 560 292 571 c 1,21,-1
 347 636 l 1,22,23
 358 647 358 647 347 653 c 1,24,25
 255 720 255 720 144 720 c 0,26,27
 129 720 129 720 129 735 c 256,28,29
 129 750 129 750 144 750 c 0,30,31
 260 750 260 750 363 679 c 0,32,33
 376 669 376 669 385 681 c 2,34,-1
 447 755 l 2,35,36
 451 761 451 761 457 761 c 256,37,38
 463 761 463 761 468 757 c 1,39,40
 478 746 478 746 471 736 c 1,41,-1
 409 662 l 2,42,43
 400 652 400 652 411 641 c 0,44,45
 478 575 478 575 516 486 c 128,-1,46
 554 397 554 397 554 300 c 0,47,48
 554 160 554 160 484.5 75 c 128,-1,49
 415 -10 415 -10 300.5 -10 c 128,-1,50
 186 -10 186 -10 120 56 c 256,51,52
 54 122 54 122 54 230 c 128,-1,53
 54 338 54 338 126 399 c 128,-1,54
 198 460 198 460 321 460 c 2,55,-1
 476 460 l 2,56,57
 494 460 494 460 489 475 c 1,13,14
EndSplineSet
EndChar

